<?xml version="1.0" encoding="utf-8"?>
<!-- Generator: Adobe Illustrator 24.2.3, SVG Export Plug-In . SVG Version: 6.00 Build 0)  -->
<svg version="1.1" id="Camada_1" xmlns="http://www.w3.org/2000/svg" xmlns:xlink="http://www.w3.org/1999/xlink" x="0px" y="0px"
	 viewBox="0 0 808 66" style="enable-background:new 0 0 808 66;" xml:space="preserve">
<style type="text/css">
	.st0{fill:#B50116;}
</style>
<path class="st0" d="M80.8,49.2L102.7,33L80.8,16.8L58.9,33L80.8,49.2z M92.6,33l-11.8,8.8L69,33l11.8-8.8L92.6,33z"/>
<path class="st0" d="M242.4,16.8L220.5,33l21.9,16.2L264.3,33L242.4,16.8z M230.6,33l11.8-8.8l11.8,8.8l-11.8,8.8L230.6,33z"/>
<path class="st0" d="M161.6,16.8L139.7,33l21.9,16.2L183.5,33L161.6,16.8z M149.8,33l11.8-8.8l11.8,8.8l-11.8,8.8L149.8,33z"/>
<path class="st0" d="M404,16.8L382.1,33L404,49.2L425.9,33L404,16.8z M392.2,33l11.8-8.8l11.8,8.8L404,41.8L392.2,33z"/>
<path class="st0" d="M323.2,16.8L301.3,33l21.9,16.2L345.1,33L323.2,16.8z M311.4,33l11.8-8.8L335,33l-11.8,8.8L311.4,33z"/>
<path class="st0" d="M565.6,16.8L543.7,33l21.9,16.2L587.5,33L565.6,16.8z M553.8,33l11.8-8.8l11.8,8.8l-11.8,8.8L553.8,33z"/>
<path class="st0" d="M484.8,16.8L462.9,33l21.9,16.2L506.7,33L484.8,16.8z M473,33l11.8-8.8l11.8,8.8l-11.8,8.8L473,33z"/>
<path class="st0" d="M646.4,0H0v6l0,0v0.7L35.4,33L0,59.3V60l0,0v6h808v-6l0,0v-0.7L772.6,33L808,6.7V6l0,0V0H646.4z M775.4,6
	l-7.8,5.8L759.8,6H775.4z M686.8,46.8L669,60h-13.5l31.3-23.3L718.1,60h-13.5L686.8,46.8z M694.6,60H679l7.8-5.8L694.6,60z
	 M606,46.8L588.2,60h-13.5L606,36.7L637.3,60h-13.5L606,46.8z M613.8,60h-15.5l7.8-5.8L613.8,60z M525.2,46.8L507.4,60h-13.5
	l31.3-23.3L556.5,60H543L525.2,46.8z M533,60h-15.6l7.8-5.8L533,60z M444.4,46.8L426.6,60h-13.5l31.3-23.3L475.7,60h-13.5
	L444.4,46.8z M452.2,60h-15.5l7.8-5.8L452.2,60z M363.6,46.8L345.8,60h-13.5l31.3-23.3L394.9,60h-13.5L363.6,46.8z M371.4,60h-15.5
	l7.8-5.8L371.4,60z M282.8,46.8L265,60h-13.5l31.3-23.3L314.1,60h-13.5L282.8,46.8z M290.6,60H275l7.8-5.8L290.6,60z M202,46.8
	L184.2,60h-13.5L202,36.7L233.3,60h-13.5L202,46.8z M209.8,60h-15.5l7.8-5.8L209.8,60z M121.2,46.8L103.4,60H89.9l31.3-23.3
	L152.5,60H139L121.2,46.8z M129,60h-15.6l7.8-5.8L129,60z M121.2,19.2L139,6h13.5l-31.3,23.3L89.9,6h13.5L121.2,19.2z M113.4,6H129
	l-7.8,5.8L113.4,6z M202,19.2L219.8,6h13.5L202,29.3L170.7,6h13.5L202,19.2z M194.2,6h15.5l-7.8,5.8L194.2,6z M282.8,19.2L300.6,6
	h13.5l-31.3,23.3L251.5,6H265L282.8,19.2z M275,6h15.5l-7.8,5.8L275,6z M363.6,19.2L381.4,6h13.5l-31.3,23.3L332.3,6h13.5
	L363.6,19.2z M355.8,6h15.5l-7.8,5.8L355.8,6z M444.4,19.2L462.2,6h13.5l-31.3,23.3L413.1,6h13.5L444.4,19.2z M436.6,6h15.5
	l-7.8,5.8L436.6,6z M525.2,19.2L543,6h13.5l-31.3,23.3L493.9,6h13.5L525.2,19.2z M517.4,6H533l-7.8,5.8L517.4,6z M606,19.2L623.8,6
	h13.5L606,29.3L574.7,6h13.5L606,19.2z M598.2,6h15.5l-7.8,5.8L598.2,6z M686.8,19.2L704.6,6h13.5l-31.3,23.3L655.5,6H669
	L686.8,19.2z M679,6h15.5l-7.8,5.8L679,6z M126.2,33l35.4-26.3L197,33l-35.4,26.3L126.2,33z M207,33l35.4-26.3L277.8,33l-35.4,26.3
	L207,33z M287.8,33l35.4-26.3L358.6,33l-35.4,26.3L287.8,33z M368.6,33L404,6.7L439.4,33L404,59.3L368.6,33z M449.4,33l35.4-26.3
	L520.2,33l-35.4,26.3L449.4,33z M530.2,33l35.4-26.3L601,33l-35.4,26.3L530.2,33z M611,33l35.4-26.3L681.8,33l-35.4,26.3L611,33z
	 M116.2,33L80.8,59.3L45.4,33L80.8,6.7L116.2,33z M691.8,33l35.4-26.3L762.6,33l-35.4,26.3L691.8,33z M48.2,6l-7.8,5.8L32.6,6H48.2z
	 M9.1,6h13.5l17.8,13.2L58.2,6h13.5L40.4,29.3L9.1,6z M40.4,36.7L71.7,60H58.2L40.4,46.8L22.6,60H9.1L40.4,36.7z M48.2,60H32.6
	l7.8-5.8L48.2,60z M759.8,60l7.8-5.8l7.8,5.8H759.8z M798.9,60h-13.5l-17.8-13.2L749.8,60h-13.5l31.3-23.3L798.9,60z M767.6,29.3
	L736.3,6h13.5l17.8,13.2L785.4,6h13.5L767.6,29.3z"/>
<path class="st0" d="M727.2,16.8L705.3,33l21.9,16.2L749.1,33L727.2,16.8z M715.4,33l11.8-8.8L739,33l-11.8,8.8L715.4,33z"/>
<path class="st0" d="M646.4,16.8L624.5,33l21.9,16.2L668.3,33L646.4,16.8z M634.6,33l11.8-8.8l11.8,8.8l-11.8,8.8L634.6,33z"/>
<polygon class="st0" points="0,49.2 21.9,33 0,16.8 0,24.2 11.8,33 0,41.8 "/>
<polygon class="st0" points="808,16.8 786.1,33 808,49.2 808,41.8 796.2,33 808,24.2 "/>
</svg>
