<svg xmlns="http://www.w3.org/2000/svg" viewBox="0 0 710 456"><rect width="710" height="456" style="fill:#fff"/><path d="M102.55,402.91c0,4.63-.43,7.11-2.06,10.54-.68,1.46.17,2.32,1.54,1.29a15.93,15.93,0,0,1,9.65-2.92c11.4,0,18.5,8.49,18.5,21.95s-7.89,22-20.91,22a27.67,27.67,0,0,1-10.45-1.89l-9.09-3.6a1.21,1.21,0,0,1-.86-1.28V393.55a1,1,0,0,1,.95-1.12h11.61a1,1,0,0,1,1.12.95v9.53Zm1.54,39.77a15.44,15.44,0,0,0,5.23,1.11c4.82,0,7.63-3.77,7.63-10s-2.92-9.86-7.46-9.86c-5,0-7.11,3.6-7.11,8.4v9.6Z" style="fill:#a62121"/><path d="M166.34,422.79c0,.8-.34,1.11-1.11,1.11-9.43.43-12.35,5.74-12.35,22.88v7a1,1,0,0,1-.94,1.11.48.48,0,0,1-.17,0h-11.4a1,1,0,0,1-1.12-.95v-40a1.06,1.06,0,0,1,1-1.12h6.24a1.37,1.37,0,0,1,1.29.81L150,417c.81,1.11,1.11,1.37,2.14.26,3.69-3.86,7.12-5.23,13.12-5.4a1,1,0,0,1,1.11.95.43.43,0,0,1,0,.16Z" style="fill:#a62121"/><path d="M179.51,413.19a35.37,35.37,0,0,1,9.43-1.38c13,0,20.66,6.18,20.66,16.63v25.29a1,1,0,0,1-.95,1.11.48.48,0,0,1-.17,0h-6.43a1.47,1.47,0,0,1-1.38-.8l-.8-1.55c-.52-1-1.29-1.2-2.75,0a14.26,14.26,0,0,1-9.25,3.22c-10.2,0-16.28-5.06-16.28-13.72,0-8,6.33-12.68,17-12.68h8v-.18c-.33-3.68-3.51-5.83-8.39-5.83a22.3,22.3,0,0,0-5.57.86l-3.26.95a1,1,0,0,1-1.33-.63,1.16,1.16,0,0,1,0-.18l-2.66-8.91c-.26-.8,0-1.2.81-1.37Zm9.08,24.68c-2.48,0-4.28,1.37-4.28,3.22,0,2.41,1.8,3.77,4.89,3.77,4.45,0,6.94-2.15,7.45-6.86v-.17Z" style="fill:#a62121"/><path d="M231.15,437.71c-8.31-1.89-12.06-5.63-12.06-12.18,0-8.66,6.18-13.72,16.72-13.72A53.56,53.56,0,0,1,247,413.19l4.29,1a1,1,0,0,1,.89,1,1,1,0,0,1-.09.34l-2.57,8.91a.94.94,0,0,1-1,.87,1.4,1.4,0,0,1-.28-.06l-4.37-1a43.49,43.49,0,0,0-8-.86c-2.23,0-3.51.8-3.51,2.14,0,.86.8,1.8,2.22,2.23l7.29,1.71c8.23,2,11.92,5.83,11.92,12.52,0,8.66-6.18,13.8-16.63,13.8A54.73,54.73,0,0,1,224,454.28l-4.54-1.12a1,1,0,0,1-.89-1,1,1,0,0,1,.09-.34l2.57-9.08a.94.94,0,0,1,1-.87,1.4,1.4,0,0,1,.28.06l4,1a55,55,0,0,0,10.54,1.37c2.14,0,3.34-.85,3.34-2.31,0-1.12-.8-2.15-2.48-2.57Z" style="fill:#a62121"/><path d="M266.35,454.84a1,1,0,0,1-1.11-.94.49.49,0,0,1,0-.17V424.67h-4.46a1,1,0,0,1-1.11-.94.49.49,0,0,1,0-.17v-9.65a1,1,0,0,1,.95-1.11h17a1,1,0,0,1,1.12.95v40a1,1,0,0,1-.94,1.11.54.54,0,0,1-.18,0Zm9.25-48.51a1.3,1.3,0,0,1-1.28.8h-8.57c-.81,0-1.12-.51-.95-1.28l3.51-12.43a1.2,1.2,0,0,1,1.21-.94h11.9c.95,0,1.29.51.87,1.28Z" style="fill:#a62121"/><path d="M303.15,442.16c0,.94.35,1.61,1.12,1.61h.51a1.12,1.12,0,0,1,1.46.59h0l3.53,8.93a1,1,0,0,1-.37,1.39l-.15.07a12.84,12.84,0,0,1-5,1c-9.18,0-14.74-5.06-14.74-13.67V393.56a1,1,0,0,1,.93-1.12h11.58a1,1,0,0,1,1.11.94v.18Z" style="fill:#a62121"/><path d="M332.86,453.73a1,1,0,0,1-.94,1.11.54.54,0,0,1-.18,0H320.43a1,1,0,0,1-1.11-.94V424.67h-4.46a1,1,0,0,1-1.11-.94.49.49,0,0,1,0-.17v-9.65a1,1,0,0,1,.95-1.11h17a1,1,0,0,1,1.12.95.48.48,0,0,1,0,.17Zm-.25-54.34c0,4.88-2.75,7.88-7.64,7.88s-7.62-3-7.62-7.88,2.82-7.8,7.62-7.8,7.64,2.82,7.64,7.8Z" style="fill:#a62121"/><path d="M349.17,413.19a35.43,35.43,0,0,1,9.43-1.38c13,0,20.66,6.18,20.66,16.63v25.29a1,1,0,0,1-.94,1.11.54.54,0,0,1-.18,0h-6.43a1.47,1.47,0,0,1-1.38-.8l-.8-1.55c-.51-1-1.28-1.2-2.74,0a14.31,14.31,0,0,1-9.26,3.22c-10.19,0-16.28-5.06-16.28-13.72,0-8,6.34-12.68,17-12.68h8v-.18c-.34-3.68-3.52-5.83-8.4-5.83a22.3,22.3,0,0,0-5.57.86l-3.26.95a1,1,0,0,1-1.33-.63,1.16,1.16,0,0,1,0-.18L345,415.39c-.25-.8,0-1.2.81-1.37Zm9.09,24.68c-2.49,0-4.29,1.37-4.29,3.22,0,2.41,1.8,3.77,4.89,3.77,4.45,0,6.94-2.15,7.45-6.86v-.17Z" style="fill:#a62121"/><path d="M417.15,395.53a45,45,0,0,1,14.23-2.41c12.94,0,20.74,6.6,20.74,17.83,0,6.44-3.34,10.8-10.45,15.28l-12.94,8c-2.92,1.8-4.46,5.4-4.46,8.84H450a1.05,1.05,0,0,1,1.12,1v9.72a1,1,0,0,1-1,1.11.86.86,0,0,1-.16,0H411.66a1,1,0,0,1-1.11-.94v-5.4c0-12.06,3.85-20,11.91-24.92l12.6-7.89c2.32-1.38,3.35-2.92,3.35-4.71,0-3.6-2.58-5.75-7-5.75a31.86,31.86,0,0,0-10.2,1.7l-5.63,1.8a1,1,0,0,1-1.38-.69L411,398.7c-.25-.68,0-1.11.69-1.37Z" style="fill:#a62121"/><path d="M509.81,424.5c0,19.3-9.17,31.29-24.12,31.29s-24.13-12-24.13-31.29,9.17-31.36,24.13-31.36S509.81,405.21,509.81,424.5Zm-34.46,0c0,12.06,3.86,19.3,10.37,19.3s10.37-7.24,10.37-19.3-3.77-19.3-10.37-19.3-10.37,7.22-10.37,19.3Z" style="fill:#a62121"/><path d="M525.84,395.53a45,45,0,0,1,14.22-2.41c13,0,20.74,6.6,20.74,17.83,0,6.44-3.34,10.8-10.45,15.28l-12.94,8C534.49,436,533,439.6,533,443h25.73a1,1,0,0,1,1.11,1,.43.43,0,0,1,0,.16v9.57a1,1,0,0,1-.94,1.11.49.49,0,0,1-.17,0H520.35a1,1,0,0,1-1.12-.93V448.5c0-12.06,3.86-20,11.92-24.92l12.61-7.91c2.31-1.37,3.34-2.92,3.34-4.71,0-3.6-2.57-5.75-7-5.75a31.94,31.94,0,0,0-10.21,1.72l-5.63,1.8c-.68.25-1.1,0-1.36-.69l-3.22-9.34c-.26-.68,0-1.11.69-1.37Z" style="fill:#a62121"/><path d="M616.6,439.76a1,1,0,0,1-.93,1.11h-5.49v12.87a1,1,0,0,1-.95,1.11H597.74a1,1,0,0,1-1.11-.94v-13H569.3a1,1,0,0,1-1.11-.94.48.48,0,0,1,0-.17V429.3a2.14,2.14,0,0,1,.5-1.37c2.15-2.58,4.47-5.57,6.6-8.65l12.18-16.81c1.8-2.48,3.34-5.06,5-7.62a1.34,1.34,0,0,1,1.28-.81h15.35a1,1,0,0,1,1.11.94.49.49,0,0,1,0,.17v33.9h5.32a1,1,0,0,1,1.11.94v9.77Zm-20-18.26a80.32,80.32,0,0,1,.69-10.28c.17-1.21-.69-1.46-1.46-.35L587,423.05a27.16,27.16,0,0,1-3.77,4.45c-.81.81-.35,1.55.59,1.55h12.78Z" style="fill:#a62121"/><rect x="45.22" y="52.48" width="96.49" height="257.31" style="fill:#8ae55c"/><polygon points="632.38 213.3 632.38 52.48 535.72 52.48 535.72 309.79 632.38 309.79 704.58 309.79 704.58 213.3 632.38 213.3" style="fill:#d480ff"/><path d="M470.28,212.12l39.4-14-36.09-27.34,29.16-30.43-37.33-7.61,23.79-35.68-45.64-2.49,5.69-46.26-40.7,15.6-1.09-41.76L370.33,47.92l-20-37-18.7,33.17L305.07,10.45,288.53,53l-42.28-19.7,2.3,43.55L208.45,65l13.09,43.33-41.45,7.5,25.77,28.09-40.21,14.9L201,187.6l-31.79,34.05L211.32,233l-23.63,34.46,45.21.92-5.63,41.72,34.64-15.79,1.68,42.85L302,312.38l22.6,40.74,23.75-36.57,25.42,33.21L388.68,307l38,18.26-4.31-37.88L463.61,299,452,254.86,497.73,246ZM337.44,303.21A122.7,122.7,0,1,1,460.13,180.48,122.7,122.7,0,0,1,337.44,303.21Z" style="fill:#ffb219"/><path d="M419.27,206.72c-3.22-5.34-9.65-9.81-17.78-15.6-6.84-4.82-13.54-8.45-17.9-14.85-3.58-5.25.6-16.5,7.83-26.43,2.64-3.62,7.8-10.07,10.75-14.24-5.75.41-14.48,1.05-20.51,1.67-10.11-.69-17.37,1.42-23.32,6.24-4.54,3.66-11.46,3.93-15.8-.13-4-3.78-14.05-19.4-20-25.79S309.36,107,299,104.6c-10.67-2.46-29.3.15-29.3.15L284,118.37l-12.57,19.19,17.09,8-9,18.19,20.61,3.78-7,17.69h23.89s-14.75,10.18-32.52,20.91c-6.73,4.08-17.07,8-17.07,8l21.66,5.76-9.19,21.17L301,231.47l3,22s6.19-12.29,11-18c11.64-13.83,24.42-27.08,24.42-27.08l1.93,22,19.49-12.06,10.27,19.46,13.13-14.94L397.7,237.8l10.85-16.25,16.5,10.25S425.31,216.66,419.27,206.72Z" style="fill:#ffb219"/><path d="M40.4,314H146.54V47H40.4Zm9.65-40.74,21.31-28.41L50.05,216.41V195l37.39,49.85L50.05,294.68Zm0-16.08V232.49l9.25,12.34Zm0-112.58,21.31-28.4L50.05,87.76V66.32l37.39,49.86L50.05,166Zm0-16.08V103.84l9.25,12.34ZM93.47,86.69l22.51-30h16.09l-38.6,51.46L54.87,56.67H71ZM83,56.67h20.9L93.47,70.61Zm53.87,159.74-21.31,28.42,21.31,28.41v21.44L99.5,244.83h0L136.89,195Zm0,16.08v24.67l-9.25-12.33ZM93.47,274.31,71,304.33H54.87l38.6-51.46,38.6,51.46H116Zm10.45,30H83l10.45-13.94ZM93.47,124.22l42.21,56.28L93.47,236.79,51.26,180.5Zm43.42-36.46-21.31,28.42,21.31,28.4V166L99.5,116.18h0l37.39-49.86Zm0,16.08V128.5l-9.25-12.32Z" style="fill:#a62121"/><path d="M119.6,180.5,93.47,145.65,67.34,180.5l26.13,34.84ZM93.47,161.73l14.07,18.77L93.47,199.26,79.4,180.5Z" style="fill:#a62121"/><path d="M637.2,207.84V47H530.89V314H709.4V207.84Zm62.55,86.84-12.86-17.2V230.36H667.71l9.53,12.72v21.48L642,217.49h57.73ZM623.1,118.27,610.23,125l-56.85-39.4v54.83l23.5-12.38-13.82-10v-14l37.59,26.05-60.11,31.66V61.06Zm-76.33,51.14,14.48-7.64,53.4,23.69v-37.3L597.9,157l7.11,3.62v10l-32.86-14.58,55.4-29.19v78.4Zm-6.23,7.79,61.39,27.23-38.87,38.81V224.07l16.25-15.6L553.41,197V266.5l58-57.89L624,214.19l-83.45,83.33Zm19.73,114.27h109l-38.8-51.88-31.1,31H628l-6.43-8.55,7.8-7.78L650,281.82H569.93L631.85,220l63.08,84.32H547.38Zm67.28-181.83-12.86-8.92V69.54H592.28L605,78.38V94L551.16,56.68h76.39Z" style="fill:#a62121"/><path d="M404.77,186.93l-.49-.35c-1.48-1.05-2.94-2-4.35-3-5.06-3.41-9.43-6.36-12.36-10.65-1.51-2.22.34-10.7,7.75-20.9,1.11-1.53,2.71-3.6,4.4-5.81,2.29-3,4.66-6,6.38-8.48l5.9-8.33-10.18.73c-4.53.32-13.85,1-20.25,1.61-10.91-.67-19.29,1.66-26.27,7.32-2.88,2.34-7.05,2.42-9.48.11-1.68-1.61-5.42-6.75-8.72-11.31a176.39,176.39,0,0,0-11-14.23c-6.74-7.29-15-11.88-26.06-14.42-11.41-2.62-30.25,0-31,.08l-9.88,1.39,18.59,17.73-13.41,20.48,17.69,8.3-9.65,19.52,21.16,3.85-7.4,18.82h15c-5.39,3.49-12,7.71-19.08,12-6.26,3.79-16.17,7.54-16.28,7.58l-14.1,5.31,30.81,8.19-12,27.6,26.61-12.12,4.25,30.95,7-13.84c.06-.12,6-11.86,10.38-17.06,5.93-7.05,12.19-14,16.89-19l1.64,19.12,21.77-13.5,11.13,21.08,14.17-16.12,13.93,15.52L410,227.52l19.78,12.28.13-8.52c0-.68.18-16.67-6.51-27.65C419.69,197.52,413.11,192.85,404.77,186.93Zm-23.44-45.46h.41l.4,0c2.84-.29,6.35-.59,9.76-.86-1.67,2.17-3.22,4.22-4.39,5.8-4,5.47-7.55,12-9.15,18.07L373,166.2l-2-8.79-11.33,1.09V147.79a16.68,16.68,0,0,0,1.61-1.14C366.53,142.48,372.7,140.88,381.33,141.47ZM319,120.25c2.74,3,6.72,8.48,10.25,13.34,4.06,5.63,7.58,10.46,9.94,12.7a16.06,16.06,0,0,0,2.06,1.61l-1.1,7,9.91.74v13.54l13.42-1.29,2.42,10.88,11-3.65,3.16,4.09h0c3.91,5.37,9.22,9,14.37,12.43,1.36.92,2.77,1.87,4.16,2.85l.49.36.49.34L395,199.63l-9.4-7.9-8.2,5.63-6.52-11.92-12.18,6-2.19-14.11-15.63,3.79,1.61-17-15.84-1.06,4.58-14.47-14.07-2.92,6.21-11.17-15.76-7.69,6.43-11.1a36.4,36.4,0,0,1,5,4.53Zm-7.65,111.52a58.82,58.82,0,0,0-4.48,6.29l-2-14.27-15.56,7.05,6.43-14.8-13.73-3.65c1.73-.87,3.44-1.78,5-2.72,8.69-5.25,16.7-10.45,22.63-14.31l-4.75,21L327.09,214C322.53,218.94,316.8,225.31,311.38,231.77Zm95.78-17.41-10,15L384.3,215l-12.06,13.76-9.43-17.84-17.22,10.69-1.67-19.1-26.54,2.83,5.79-25.49h-22.9l6.52-16.57-20.11-3.66L295,142.7l-16.51-7.76L290.24,117l-9.54-9.1c5.63-.32,12.42-.37,17.22.74a51.09,51.09,0,0,1,7.67,2.35L294,130.94,310,138.71l-7.65,13.74,16.46,3.42-5,16,18.22,1.2-2,20.59,18.6-4.51,2.59,16.76,15.69-7.74,7.24,13.16,10.94-7.5,10.41,8.76,12.16-11.65c3.39,2.66,6,5.13,7.57,7.67A38.24,38.24,0,0,1,419.55,222Z" style="fill:#a62121"/><path d="M337.44,52.33c-70.29,0-127.52,57.2-127.52,127.51s57.23,127.52,127.52,127.52S465,250.14,465,179.84,407.75,52.33,337.44,52.33Zm0,245.38A117.87,117.87,0,1,1,455.31,179.84,118,118,0,0,1,337.44,297.71Z" style="fill:#a62121"/><path d="M480.84,169.58l31.41-32.82-38.83-7.91,24.51-36.77L449,89.42l6.05-49.09-41.81,16-1.13-43.89L372,40.27,350.4.31,330.94,34.82,303.6.18,285.87,45.81,241,24.9l2.42,44.77L201.28,57.16l14.1,46.7L170.66,112l26.84,29.25-41.41,15.33L194,187.42,160.25,223.6l43.26,11.65L178.7,271.44l48.74,1-6,45,36-16.44,1.73,44.12,41.17-26.54,24,43.25,24.38-37.57,26.71,34.89,16.09-46.08,41,19.7L428,293.4l42.47,11.94L458,258l48.6-9.37-28.2-34.86,41.42-14.7Zm8,72.6-42.95,8.28,10.83,41-40.08-11.26,4.21,36.32-34.95-16.8-13.73,39.4L348.08,307.6,325,343.17l-21.22-38.23-35.63,23-1.61-41.58-33.26,15.11L238.43,263l-41.68-.8,22.44-32.71-40.92-11,29.85-31.95-32.85-26.76,39-14.48-24.71-26.92,38.16-6.91L215.68,71.5l38.08,11.26-2.24-42.35L291.15,58.9,306.5,19.36l25.78,32.72,18-31.83,18.43,34.08,34.23-23.77,1,39.66L443.5,55.07l-5.33,43.42,42.34,2.31-23.08,34.58,35.78,7.29-26.82,28,33.27,25.19-37.41,13.29Z" style="fill:#a62121"/></svg>