<svg xmlns="http://www.w3.org/2000/svg" viewBox="0 0 1080 760"><rect width="1080" height="760" style="fill:ivory"/><path d="M228.29,590c0,5.75-.53,8.84-2.56,13.11-.85,1.81.21,2.88,1.92,1.6a19.74,19.74,0,0,1,12-3.63c14.17,0,23,10.56,23,27.29s-9.81,27.4-26,27.4a34.35,34.35,0,0,1-13-2.35l-11.3-4.47a1.52,1.52,0,0,1-1.07-1.6v-69a1.29,1.29,0,0,1,1.39-1.39H226.9a1.29,1.29,0,0,1,1.39,1.39Zm1.92,49.46a19.32,19.32,0,0,0,6.5,1.38c6,0,9.49-4.69,9.49-12.47s-3.63-12.26-9.28-12.26c-6.18,0-8.84,4.48-8.84,10.45v11.94Z" style="fill:#a62121"/><path d="M307.63,614.72c0,1-.43,1.38-1.39,1.38-11.72.54-15.35,7.14-15.35,28.46v8.64a1.28,1.28,0,0,1-1.38,1.38H275.33a1.29,1.29,0,0,1-1.39-1.38V603.63a1.3,1.3,0,0,1,1.39-1.39h7.57a1.68,1.68,0,0,1,1.6,1l2.77,4.27c1,1.38,1.38,1.7,2.66.32,4.59-4.8,8.85-6.5,16.31-6.72a1.29,1.29,0,0,1,1.39,1.39Z" style="fill:#a62121"/><path d="M324,602.78a43.84,43.84,0,0,1,11.73-1.71c16.2,0,25.69,7.68,25.69,20.68V653.2a1.28,1.28,0,0,1-1.39,1.38h-8a1.81,1.81,0,0,1-1.71-1l-1-1.92c-.64-1.28-1.6-1.5-3.41,0a17.74,17.74,0,0,1-11.51,4c-12.69,0-20.25-6.29-20.25-17.06,0-9.91,7.88-15.77,21.1-15.77h10v-.22c-.42-4.58-4.37-7.25-10.44-7.25a27.31,27.31,0,0,0-6.93,1.07l-4.05,1.17a1.29,1.29,0,0,1-1.71-1l-3.3-11.08c-.32-1,0-1.5,1-1.71Zm11.3,30.7c-3.09,0-5.33,1.7-5.33,4,0,3,2.24,4.69,6.08,4.69,5.54,0,8.63-2.67,9.27-8.53v-.21Z" style="fill:#a62121"/><path d="M388.23,633.27c-10.34-2.35-15-7-15-15.14,0-10.77,7.68-17.06,20.79-17.06a66.79,66.79,0,0,1,13.86,1.71l5.33,1.28a1.2,1.2,0,0,1,1,1.7l-3.2,11.09a1.17,1.17,0,0,1-1.6,1l-5.44-1.28a55,55,0,0,0-9.91-1.07c-2.77,0-4.37,1-4.37,2.67,0,1.06,1,2.24,2.77,2.77l9.06,2.13c10.24,2.45,14.82,7.25,14.82,15.57,0,10.76-7.68,17.16-20.68,17.16a67.54,67.54,0,0,1-16.31-1.92l-5.65-1.39a1.2,1.2,0,0,1-1-1.7l3.2-11.3a1.17,1.17,0,0,1,1.6-1l5,1.28a68.53,68.53,0,0,0,13.11,1.7c2.66,0,4.16-1.06,4.16-2.87,0-1.39-1-2.67-3.09-3.2Z" style="fill:#a62121"/><path d="M432,654.58a1.28,1.28,0,0,1-1.38-1.38V617.06h-5.55a1.28,1.28,0,0,1-1.38-1.38v-12a1.29,1.29,0,0,1,1.38-1.39h21a1.29,1.29,0,0,1,1.39,1.39V653.2a1.28,1.28,0,0,1-1.39,1.38Zm11.51-60.33a1.64,1.64,0,0,1-1.59,1H431.25c-1,0-1.39-.64-1.18-1.6l4.37-15.46a1.5,1.5,0,0,1,1.5-1.17h14.81c1.18,0,1.6.64,1.07,1.6Z" style="fill:#a62121"/><path d="M477.77,638.81c0,1.17.43,2,1.39,2h.64a1.38,1.38,0,0,1,1.81.75L486,652.67a1.26,1.26,0,0,1-.64,1.81,16.1,16.1,0,0,1-6.18,1.28c-11.41,0-18.33-6.29-18.33-17V578.37a1.28,1.28,0,0,1,1.38-1.39h14.18a1.28,1.28,0,0,1,1.38,1.39Z" style="fill:#a62121"/><path d="M514.72,653.2a1.28,1.28,0,0,1-1.39,1.38H499.26a1.28,1.28,0,0,1-1.38-1.38V617.06h-5.55a1.28,1.28,0,0,1-1.38-1.38v-12a1.29,1.29,0,0,1,1.38-1.39h21a1.29,1.29,0,0,1,1.39,1.39Zm-.32-67.58c0,6.07-3.41,9.8-9.49,9.8s-9.48-3.73-9.48-9.8,3.51-9.7,9.48-9.7S514.4,579.43,514.4,585.62Z" style="fill:#a62121"/><path d="M535,602.78a43.84,43.84,0,0,1,11.73-1.71c16.2,0,25.69,7.68,25.69,20.68V653.2a1.28,1.28,0,0,1-1.39,1.38h-8a1.81,1.81,0,0,1-1.71-1l-1-1.92c-.63-1.28-1.59-1.5-3.41,0a17.74,17.74,0,0,1-11.51,4c-12.68,0-20.25-6.29-20.25-17.06,0-9.91,7.89-15.77,21.1-15.77h10v-.22c-.42-4.58-4.37-7.25-10.44-7.25a27.38,27.38,0,0,0-6.93,1.07l-4.05,1.17a1.29,1.29,0,0,1-1.71-1l-3.3-11.08c-.32-1,0-1.5,1-1.71Zm11.3,30.7c-3.09,0-5.33,1.7-5.33,4,0,3,2.24,4.69,6.08,4.69,5.54,0,8.63-2.67,9.27-8.53v-.21Z" style="fill:#a62121"/><path d="M619.54,580.82a56.05,56.05,0,0,1,17.7-3c16.1,0,25.8,8.21,25.8,22.18,0,8-4.16,13.43-13,19l-16.09,9.91c-3.63,2.24-5.55,6.72-5.55,11h32a1.3,1.3,0,0,1,1.39,1.39V653.2a1.29,1.29,0,0,1-1.39,1.38H612.72a1.28,1.28,0,0,1-1.38-1.38v-6.5c0-15,4.79-24.84,14.81-31l15.67-9.81c2.88-1.71,4.16-3.63,4.16-5.86,0-4.48-3.2-7.15-8.74-7.15A39.54,39.54,0,0,0,624.55,595l-7,2.24c-.85.31-1.39,0-1.71-.86l-3.94-11.62c-.32-.85,0-1.38.85-1.7Z" style="fill:#a62121"/><path d="M734.78,616.85c0,24-11.41,38.91-30,38.91s-30-14.93-30-38.91,11.4-39,30-39S734.78,592.86,734.78,616.85Zm-42.86,0c0,15,4.8,24,12.9,24s12.9-9,12.9-24-4.69-24-12.9-24S691.92,601.82,691.92,616.85Z" style="fill:#a62121"/><path d="M754.71,580.82a56,56,0,0,1,17.69-3c16.1,0,25.8,8.21,25.8,22.18,0,8-4.16,13.43-13,19l-16.1,9.91c-3.63,2.24-5.54,6.72-5.54,11h32a1.29,1.29,0,0,1,1.38,1.39V653.2a1.28,1.28,0,0,1-1.38,1.38H747.89a1.28,1.28,0,0,1-1.39-1.38v-6.5c0-15,4.8-24.84,14.82-31L777,605.87c2.88-1.71,4.15-3.63,4.15-5.86,0-4.48-3.19-7.15-8.74-7.15A39.48,39.48,0,0,0,759.72,595l-7,2.24c-.85.31-1.38,0-1.7-.86l-4-11.62c-.32-.85,0-1.38.86-1.7Z" style="fill:#a62121"/><path d="M867.59,635.82a1.28,1.28,0,0,1-1.38,1.39H859.6v16a1.28,1.28,0,0,1-1.39,1.38H844.14a1.28,1.28,0,0,1-1.38-1.38v-16h-34a1.28,1.28,0,0,1-1.38-1.39v-13a2.66,2.66,0,0,1,.63-1.71c2.67-3.2,5.55-6.93,8.21-10.76l15.14-20.9c2.24-3.09,4.16-6.29,6.18-9.48a1.66,1.66,0,0,1,1.6-1h19.08a1.28,1.28,0,0,1,1.39,1.38V622.5h6.61a1.28,1.28,0,0,1,1.38,1.38Zm-24.83-22.7a98.43,98.43,0,0,1,.85-12.79c.21-1.5-.85-1.82-1.81-.43l-11,15.14a33.4,33.4,0,0,1-4.69,5.54c-1,1-.43,1.92.74,1.92h15.89Z" style="fill:#a62121"/><rect x="157" y="154.19" width="120" height="320" style="fill:#8ae55c"/><polygon points="887.21 354.19 887.21 154.19 767 154.19 767 474.19 887.21 474.19 977 474.19 977 354.19 887.21 354.19" style="fill:#d480ff"/><path d="M685.62,352.72l49-17.41-44.89-34L726,263.47,679.57,254l29.59-44.37-56.76-3.1L659.48,149,608.86,168.4l-1.35-51.94-46.19,32.06-24.9-46-23.26,41.25-33-41.86L459.58,154.8,407,130.29l2.87,54.17L360,169.69l16.27,53.89-51.55,9.33,32.05,34.93-50,18.53,44,35.86-39.54,42.34,52.34,14.09-29.39,42.86,56.22,1.15-7,51.88,43.08-19.64,2.09,53.29,47.77-30.79,28.11,50.67,29.53-45.48,31.62,41.3,18.54-53.14,47.22,22.7L626,446.36l51.33,14.42-14.5-54.91,56.93-11ZM520.41,466A152.59,152.59,0,1,1,673,313.37,152.59,152.59,0,0,1,520.41,466Z" style="fill:#ffb219"/><path d="M622.18,346c-4-6.63-12-12.19-22.11-19.39-8.51-6-16.84-10.52-22.26-18.47-4.46-6.53.74-20.52,9.73-32.87,3.29-4.51,9.7-12.53,13.37-17.71-7.15.51-18,1.3-25.5,2.07-12.57-.85-21.6,1.77-29,7.76-5.65,4.56-14.26,4.89-19.66-.16-5-4.7-17.47-24.13-24.8-32.07S485.49,222,472.59,219c-13.27-3.06-36.43.19-36.43.19l17.77,16.94L438.3,260l21.25,10-11.18,22.62L474,297.32l-8.65,22h29.7s-18.34,12.66-40.44,26c-8.37,5.07-21.23,9.9-21.23,9.9l26.94,7.17-11.43,26.32,26.21-11.93,3.77,27.37s7.7-15.29,13.68-22.39c14.48-17.2,30.37-33.68,30.37-33.68l2.4,27.38,24.24-15,12.78,24.2,16.33-18.58,16.68,18.58,13.5-20.21,20.52,12.75S629.69,358.37,622.18,346Z" style="fill:#ffb219"/><path d="M151,479.4H283v-332H151Zm12-50.67,26.5-35.33L163,358.06V331.4l46.5,62-46.5,62Zm0-20V378.06l11.5,15.34Zm0-140,26.5-35.33L163,198.06V171.4l46.5,62-46.5,62Zm0-20V218.06l11.5,15.34Zm54-52,28-37.33h20l-48,64-48-64h20ZM204,159.4h26l-13,17.33Zm67,198.66L244.5,393.4,271,428.73V455.4l-46.5-62h0l46.5-62Zm0,20v30.67L259.5,393.4Zm-54,52L189,467.4H169l48-64,48,64H245Zm13,37.34H204l13-17.34Zm-13-224,52.5,70-52.5,70-52.5-70Zm54-45.34L244.5,233.4,271,268.73V295.4l-46.5-62h0l46.5-62Zm0,20v30.67L259.5,233.4Z" style="fill:#a62121"/><path d="M249.5,313.4,217,270.06,184.5,313.4,217,356.73ZM217,290.06l17.5,23.34L217,336.73,199.5,313.4Z" style="fill:#a62121"/><path d="M893.21,347.4v-200H761v332H983v-132Zm77.79,108L955,434V375.4H931.15L943,391.23v26.71L899.2,359.4H971ZM875.67,236l-16,8.41-70.71-49v68.19l29.23-15.4L801,235.79V218.34l46.75,32.4L773,290.12V164.86ZM780.75,299.6l18-9.5,66.42,29.47V273.18l-20.84,11,8.84,4.5v12.45L812.31,283l68.9-36.3v97.5ZM773,309.29l76.34,33.87L801,391.42V367.58l20.21-19.4L789,333.89v86.46l72.1-72,15.68,6.95L773,458.93ZM797.53,451.4H933.06L884.8,386.89l-38.67,38.58h35.61l-8-10.63,9.71-9.68L909.1,439.4H809.55l77-76.87L965,467.4H781.5Zm83.68-226.13-16-11.09V175.4H837.35l15.86,11v19.47l-67-46.46h95Z" style="fill:#a62121"/><path d="M604.15,321.39l-.61-.43c-1.84-1.31-3.66-2.53-5.41-3.72-6.29-4.24-11.73-7.91-15.37-13.24-1.88-2.76.42-13.31,9.63-26,1.38-1.9,3.37-4.48,5.48-7.22,2.85-3.7,5.79-7.52,7.93-10.55l7.34-10.36-12.66.91c-5.63.4-17.22,1.23-25.18,2-13.57-.83-24,2.07-32.67,9.11-3.59,2.9-8.77,3-11.79.13-2.1-2-6.75-8.39-10.85-14.06-4.8-6.63-9.75-13.49-13.64-17.7-8.38-9.07-18.68-14.77-32.41-17.93-14.19-3.26-37.62,0-38.61.1l-12.28,1.72,23.12,22.05-16.68,25.47,22,10.32-12,24.28,26.32,4.79-9.21,23.4h18.69c-6.7,4.35-14.93,9.59-23.73,14.91-7.78,4.71-20.11,9.37-20.24,9.42l-17.54,6.6,38.32,10.19L437.2,399.9l33.09-15.07,5.29,38.49,8.68-17.21c.07-.15,7.46-14.75,12.91-21.22,7.37-8.76,15.16-17.38,21-23.67L520.22,385l27.07-16.79,13.84,26.21,17.62-20.05,17.33,19.31,14.56-21.81,24.6,15.28.16-10.6c0-.84.22-20.73-8.1-34.39C622.7,334.57,614.52,328.75,604.15,321.39ZM575,264.86l.51,0,.5-.05c3.53-.36,7.89-.73,12.13-1.07-2.08,2.7-4,5.25-5.46,7.21-5,6.81-9.39,14.89-11.38,22.47l-6.61,2.19-2.45-10.93-14.09,1.36V272.72a22.85,22.85,0,0,0,2-1.42C556.59,266.11,564.26,264.13,575,264.86Zm-77.48-26.39c3.4,3.69,8.36,10.54,12.74,16.59,5.06,7,9.43,13,12.37,15.79a19.42,19.42,0,0,0,2.56,2l-1.37,8.66,12.33.92v16.84l16.69-1.6,3,13.53,13.72-4.54,3.93,5.08h0c4.87,6.68,11.47,11.14,17.87,15.46,1.69,1.15,3.45,2.33,5.18,3.55l.6.44.61.43L592,337.19l-11.69-9.83-10.2,7L562,319.54,546.85,327l-2.72-17.54-19.44,4.71,2-21.13L507,291.72l5.69-18-17.5-3.63,7.73-13.89-19.61-9.56,8-13.81A45.74,45.74,0,0,1,497.53,238.47ZM488,377.16a74.3,74.3,0,0,0-5.57,7.82L480,367.24,460.64,376l8-18.4-17.08-4.54c2.15-1.08,4.28-2.22,6.2-3.38,10.8-6.54,20.77-13,28.14-17.8L480,358,507.54,355C501.87,361.2,494.75,369.12,488,377.16Zm119.12-21.65-12.43,18.61-16-17.86-15,17.12-11.72-22.19-21.42,13.29-2.08-23.75-33,3.52,7.2-31.7H474.19l8.1-20.6-25-4.56,10.37-21-20.54-9.65,14.59-22.27-11.86-11.31c7-.4,15.44-.46,21.42.92A63.44,63.44,0,0,1,480.8,227l-14.37,24.76,19.82,9.66-9.51,17.09,20.47,4.25-6.29,19.91,22.67,1.49-2.45,25.6,23.13-5.61L537.49,345,557,335.37l9,16.37,13.61-9.33,12.95,10.89,15.12-14.48c4.21,3.3,7.49,6.38,9.41,9.54,3,5,4.6,11.3,5.44,16.7Z" style="fill:#a62121"/><path d="M520.41,154C433,154,361.82,225.14,361.82,312.58S433,471.17,520.41,471.17,679,400,679,312.58,607.86,154,520.41,154Zm0,305.17c-80.83,0-146.59-65.76-146.59-146.59S439.58,166,520.41,166,667,231.75,667,312.58,601.24,459.17,520.41,459.17Z" style="fill:#a62121"/><path d="M698.75,299.82,737.82,259l-48.3-9.84L720,203.44l-60.84-3.32,7.52-61.05-52,19.91-1.41-54.58L563.41,139l-26.88-49.7-24.2,42.92-34-43.08-22.05,56.75-55.8-26,3,55.67L351.08,160l17.53,58.08L313,228.16l33.38,36.37L294.88,283.6,342.05,322l-42,45,53.8,14.49L323,426.5l60.61,1.24-7.51,56,44.83-20.44,2.15,54.86,51.21-33,29.85,53.79,30.33-46.73,33.22,43.39,20-57.3,51,24.5-5.69-49,52.82,14.84-15.54-58.86,60.44-11.65-35.07-43.35,51.52-18.29Zm10,90.28-53.41,10.3,13.46,51-49.84-14,5.24,45.17-43.47-20.89-17.08,49-30-39.22-28.71,44.24-26.39-47.54-44.31,28.56-2-51.71L390.87,463.8,397.28,416,345.45,415l27.9-40.68-50.89-13.7,37.12-39.74-40.85-33.28,48.53-18-30.73-33.48,47.46-8.6-15-49.68,47.36,14-2.79-52.67,49.29,23L481.94,113,514,153.69l22.32-39.59,22.92,42.38,42.57-29.55,1.28,49.32,49.23-18.84-6.64,54,52.66,2.87-28.7,43,44.49,9.07-33.35,34.86,41.38,31.33-46.53,16.52Z" style="fill:#a62121"/></svg>