<svg id="Camada_1" data-name="Camada 1" xmlns="http://www.w3.org/2000/svg" viewBox="0 0 452 452"><defs><style>.cls-1{fill:#ffb219;}.cls-2{fill:#a62121;}</style></defs><path class="cls-1" d="M390.61,264.69l49-17.4-44.89-34L431,175.45,384.57,166l29.58-44.38-56.75-3.09L364.48,61,313.85,80.38l-1.34-51.95-46.2,32.06-24.89-46L218.15,55.71l-33-41.87L164.57,66.78,112,42.26l2.87,54.17L65,81.67l16.26,53.88-51.55,9.34L61.8,179.81l-50,18.53,44,35.86L16.26,276.54l52.35,14.1-29.4,42.85,56.22,1.15-7,51.89,43.09-19.64,2.09,53.28,47.76-30.78,28.12,50.67,29.52-45.49,31.62,41.3,18.54-53.14,47.23,22.7L331,358.33l51.34,14.42L367.8,317.84l56.93-11ZM225.41,377.93A152.59,152.59,0,1,1,378,225.35,152.58,152.58,0,0,1,225.41,377.93Z"/><path class="cls-1" d="M327.17,258c-4-6.64-12-12.2-22.11-19.39-8.5-6-16.83-10.53-22.26-18.48-4.46-6.53.74-20.52,9.73-32.87,3.29-4.51,9.7-12.53,13.37-17.7-7.14.51-18,1.3-25.49,2.06-12.58-.85-21.61,1.78-29,7.76-5.65,4.57-14.26,4.9-19.65-.16-5-4.69-17.48-24.12-24.81-32.06S190.48,134,177.59,131c-13.28-3-36.43.19-36.43.19l17.76,16.94L143.29,172l21.25,10-11.18,22.62L179,209.29l-8.66,22h29.71s-18.34,12.65-40.45,26c-8.37,5.07-21.23,9.9-21.23,9.9l26.95,7.16-11.44,26.32,26.22-11.93,3.76,27.37s7.71-15.29,13.68-22.39c14.49-17.2,30.37-33.67,30.37-33.67l2.4,27.37,24.24-15,12.78,24.19,16.33-18.58,16.69,18.58,13.49-20.21,20.53,12.76S334.68,270.34,327.17,258Z"/><path class="cls-2" d="M309.15,233.37l-.61-.43c-1.84-1.31-3.66-2.54-5.42-3.73-6.29-4.24-11.72-7.9-15.36-13.24-1.88-2.75.42-13.31,9.63-26,1.38-1.89,3.37-4.48,5.47-7.22,2.85-3.7,5.79-7.52,7.94-10.54l7.33-10.36-12.66.9c-5.63.41-17.22,1.24-25.17,2-13.57-.83-24,2.08-32.68,9.12-3.59,2.89-8.76,2.95-11.78.12-2.11-2-6.75-8.39-10.86-14.06-4.79-6.63-9.75-13.48-13.64-17.69-8.38-9.08-18.68-14.78-32.41-17.94-14.19-3.26-37.61,0-38.6.1L128,126.19l23.13,22.06-16.68,25.46,22,10.33-12,24.27,26.32,4.79-9.2,23.4h18.68c-6.69,4.35-14.93,9.59-23.73,14.92-7.78,4.71-20.11,9.37-20.23,9.41l-17.55,6.6,38.32,10.19-14.87,34.24,33.09-15.06,5.3,38.48,8.67-17.21c.07-.14,7.46-14.75,12.91-21.22,7.37-8.75,15.16-17.37,21-23.66l2.07,23.73,27.07-16.79,13.85,26.21,17.61-20,17.33,19.3,14.57-21.81,24.6,15.29.16-10.6c0-.84.21-20.74-8.1-34.39C327.7,246.54,319.51,240.73,309.15,233.37ZM280,176.83l.51,0,.51-.05c3.52-.36,7.88-.73,12.13-1.06-2.08,2.7-4,5.24-5.47,7.2-4.95,6.81-9.39,14.9-11.38,22.48l-6.61,2.19-2.45-10.93L253.16,198V184.7a22.82,22.82,0,0,0,2-1.43C261.58,178.09,269.25,176.1,280,176.83Zm-77.48-26.38c3.41,3.68,8.37,10.54,12.74,16.59,5.06,7,9.43,13,12.38,15.79a18.71,18.71,0,0,0,2.56,2l-1.37,8.67,12.33.91v16.85l16.69-1.61,3,13.53,13.72-4.54,3.94,5.08h0c4.88,6.68,11.48,11.14,17.87,15.45,1.7,1.15,3.45,2.34,5.18,3.56l.61.43.61.43L297,249.16l-11.69-9.83-10.2,7L267,231.51,251.84,239l-2.72-17.55-19.43,4.71,2-21.12L212,203.7l5.68-18-17.5-3.63,7.74-13.89-19.62-9.56,8-13.81A44.52,44.52,0,0,1,202.52,150.45ZM193,289.13a74.91,74.91,0,0,0-5.57,7.83L185,279.21,165.64,288l8-18.39-17.08-4.54c2.15-1.08,4.27-2.23,6.19-3.39,10.8-6.54,20.77-12.95,28.15-17.8L185,269.94,212.53,267C206.86,273.17,199.75,281.09,193,289.13Zm119.13-21.65L299.68,286.1l-16-17.86-15,17.11-11.72-22.18-21.41,13.28-2.08-23.75-33,3.52,7.2-31.7H179.18l8.1-20.6-25-4.55,10.36-21-20.53-9.66,14.58-22.27-11.86-11.3c7-.41,15.45-.46,21.42.91a65.45,65.45,0,0,1,9.55,2.93l-14.37,24.76,19.82,9.66-9.51,17.09,20.48,4.25-6.29,19.91,22.67,1.49-2.46,25.6,23.13-5.61,3.22,20.79L262,247.35l9,16.37,13.61-9.33,13,10.89,15.11-14.49c4.22,3.31,7.49,6.38,9.42,9.55,3,5,4.6,11.3,5.43,16.7Z"/><path class="cls-2" d="M225.4,66C138,66,66.82,137.11,66.82,224.56S138,383.15,225.4,383.15,384,312,384,224.56,312.85,66,225.4,66Zm0,305.18c-80.82,0-146.58-65.76-146.58-146.59S144.58,78,225.4,78,372,143.73,372,224.56,306.23,371.15,225.4,371.15Z"/><path class="cls-2" d="M403.74,211.79,442.81,171l-48.3-9.84L425,115.41l-60.84-3.31,7.51-61-52,19.9-1.41-54.58L268.4,51,241.53,1.25,217.32,44.18l-34-43.09-22,56.75-55.79-26,2.95,55.67L56.07,72l17.54,58.09L18,140.13,51.34,176.5-.13,195.57,47,234,5.06,279l53.81,14.49L28,338.47l60.62,1.25-7.52,56,44.83-20.43,2.15,54.85,51.21-33,29.85,53.8,30.33-46.73,33.22,43.38,20-57.3,51,24.51-5.69-49,52.83,14.84-15.55-58.85,60.44-11.66-35.07-43.35,51.52-18.29Zm10,90.28-53.42,10.31,13.47,51-49.85-14,5.24,45.17-43.46-20.89-17.09,49-30-39.22-28.72,44.25-26.38-47.55-44.32,28.57-2-51.72L95.86,375.77,102.27,328l-51.82-1.06,27.9-40.67L27.46,272.55l37.11-39.74L23.73,199.53l48.53-18L41.52,148.06,89,139.47,74,89.79l47.37,14-2.8-52.68,49.29,23L186.93,25l32,40.65,22.33-39.59,22.91,42.39L306.8,38.91l1.27,49.31L357.3,69.39l-6.64,54,52.67,2.87L374.62,169.3l44.49,9.07-33.35,34.86,41.39,31.34-46.53,16.52Z"/></svg>
