<svg xmlns="http://www.w3.org/2000/svg" viewBox="0 0 832 580"><rect x="6" y="65.07" width="120" height="320" style="fill:#8ae55c"/><polygon points="736.21 265.07 736.21 65.07 616 65.07 616 385.07 826 385.07 826 265.07 736.21 265.07" style="fill:#d480ff"/><path d="M534.62,263.6l49-17.4-44.89-34L575,174.36l-46.4-9.46,29.59-44.37-56.75-3.09,7.07-57.53L457.86,79.28l-1.34-51.94L410.32,59.4l-24.9-46L362.16,54.62l-33-41.87L308.58,65.69,256,41.17l2.87,54.17L209,80.58l16.26,53.88-51.55,9.34,32.06,34.92-50,18.53,44,35.86-39.54,42.34,52.34,14.09L183.22,332.4l56.22,1.15-7,51.88,43.09-19.63,2.08,53.28,47.77-30.78L353.53,439l29.53-45.48,31.62,41.3,18.54-53.14,47.22,22.7L475,357.24l51.33,14.42-14.5-54.91,56.93-11ZM369.41,376.84A152.59,152.59,0,1,1,522,224.26,152.59,152.59,0,0,1,369.41,376.84Z" style="fill:#ffb219"/><path d="M471.18,256.92c-4-6.64-12-12.2-22.11-19.4-8.5-6-16.84-10.52-22.26-18.47-4.46-6.53.74-20.52,9.73-32.87,3.29-4.51,9.7-12.53,13.37-17.7-7.14.51-18,1.29-25.49,2.06-12.58-.85-21.61,1.78-29,7.76-5.65,4.56-14.26,4.89-19.66-.16-5-4.69-17.47-24.13-24.8-32.07s-16.45-13.19-29.35-16.15c-13.27-3-36.42.19-36.42.19l17.76,16.94L287.3,170.92l21.25,10-11.18,22.62L323,208.2l-8.66,22h29.7s-18.33,12.66-40.44,26c-8.37,5.06-21.23,9.9-21.23,9.9l26.94,7.16-11.43,26.32,26.21-11.93,3.77,27.37s7.7-15.29,13.68-22.39C356.06,275.49,372,259,372,259l2.4,27.38,24.24-15,12.78,24.2L427.7,277l16.68,18.58,13.5-20.21,20.52,12.75S478.69,269.25,471.18,256.92Z" style="fill:#ffb219"/><path d="M0,390.28H132v-332H0Zm12-50.67,26.5-35.33L12,269V242.28l46.5,62-46.5,62Zm0-20V288.94l11.5,15.34Zm0-140,26.5-35.33L12,109V82.28l46.5,62-46.5,62Zm0-20V128.94l11.5,15.34Zm54-52L94,70.28h20l-48,64-48-64H38ZM53,70.28H79L66,87.61ZM120,269,93.5,304.28,120,339.61v26.67l-46.5-62h0l46.5-62Zm0,20v30.67l-11.5-15.33ZM66,341,38,378.28H18l48-64,48,64H94Zm13,37.33H53L66,361Zm-13-224,52.5,70-52.5,70-52.5-70ZM120,109,93.5,144.28,120,179.61v26.67l-46.5-62h0l46.5-62Zm0,20v30.67l-11.5-15.33Z" style="fill:#a62121"/><path d="M98.5,224.28,66,181,33.5,224.28,66,267.61ZM66,201l17.5,23.33L66,247.61,48.5,224.28Z" style="fill:#a62121"/><path d="M742.21,258.28v-200H610v332H832v-132Zm77.79,108-16-21.38V286.28H780.15L792,302.12v26.7l-43.8-58.54H820ZM724.67,146.91l-16,8.41L638,106.3v68.19l29.23-15.4L650,146.67V129.22l46.75,32.4L622,201V75.74Zm-94.92,63.57,18-9.5,66.42,29.47V184.07l-20.84,11,8.84,4.49V212l-40.9-18.15,68.9-36.29v97.49ZM622,220.17,698.34,254,650,302.3V278.46l20.21-19.4L638,244.77v86.46l72.1-72,15.68,6.95L622,369.81Zm24.53,142.11H782.06l-48.26-64.5-38.67,38.58h35.61l-8-10.63,9.71-9.69,25.62,34.24H658.55l77-76.87L814,378.28H630.5Zm83.68-226.13-16-11.09V86.28H686.35l15.86,11v19.47l-67-46.46h95Z" style="fill:#a62121"/><path d="M453.15,232.28l-.61-.44c-1.84-1.3-3.65-2.53-5.41-3.72-6.29-4.24-11.72-7.91-15.37-13.24-1.88-2.76.42-13.31,9.63-26,1.38-1.89,3.37-4.48,5.48-7.22,2.85-3.7,5.79-7.52,7.93-10.55l7.34-10.35-12.66.9c-5.63.4-17.22,1.23-25.18,2-13.57-.83-23.95,2.08-32.67,9.11-3.59,2.9-8.76,3-11.79.13-2.1-2-6.75-8.39-10.85-14.06-4.79-6.63-9.75-13.48-13.64-17.69-8.38-9.08-18.68-14.78-32.41-17.94-14.19-3.26-37.62,0-38.61.1l-12.28,1.72,23.12,22.06L278.5,172.62l22,10.33-12,24.27L314.78,212l-9.21,23.4h18.69c-6.7,4.35-14.93,9.59-23.73,14.91-7.78,4.72-20.11,9.37-20.24,9.42l-17.54,6.6,38.32,10.19L286.2,310.78l33.09-15.06,5.29,38.48L333.26,317c.07-.14,7.46-14.75,12.91-21.22,7.37-8.75,15.16-17.37,21-23.66l2.08,23.73,27.07-16.79,13.84,26.21,17.62-20.05,17.33,19.31,14.57-21.81L484.25,298l.15-10.61c0-.84.22-20.73-8.09-34.38C471.71,245.45,463.52,239.63,453.15,232.28ZM424,175.74l.51,0,.51-.05c3.52-.36,7.88-.73,12.12-1.07-2.08,2.71-4,5.25-5.46,7.21-5,6.81-9.39,14.9-11.38,22.47l-6.61,2.19-2.45-10.92L397.16,197V183.6a20.92,20.92,0,0,0,2-1.42C405.59,177,413.26,175,424,175.74Zm-77.48-26.39c3.4,3.69,8.36,10.55,12.74,16.6,5.06,7,9.43,13,12.37,15.78a20.1,20.1,0,0,0,2.56,2l-1.36,8.67,12.32.91v16.84l16.69-1.6,3,13.53,13.72-4.54,3.93,5.08h0c4.88,6.69,11.47,11.15,17.87,15.46,1.7,1.15,3.45,2.33,5.18,3.56l.61.43.6.43L441,248.07l-11.69-9.83-10.2,7L411,230.42l-15.13,7.45-2.72-17.55L373.69,225l2-21.13L356,202.61l5.68-18L344.16,181l7.73-13.9-19.61-9.55,8-13.82A45.74,45.74,0,0,1,346.53,149.35ZM337,288a73.46,73.46,0,0,0-5.57,7.83L329,278.12l-19.34,8.8,8-18.39L300.55,264c2.15-1.07,4.28-2.22,6.2-3.38,10.8-6.54,20.77-13,28.14-17.8L329,268.85l27.57-3C350.87,272.08,343.76,280,337,288Zm119.12-21.65L443.69,285l-16-17.86-15,17.12-11.72-22.18-21.42,13.28-2.07-23.75-33,3.52,7.2-31.7H323.19l8.1-20.6-25-4.55,10.37-21-20.54-9.65,14.59-22.27-11.86-11.31c7-.4,15.44-.46,21.42.92a64.61,64.61,0,0,1,9.55,2.93l-14.37,24.76,19.82,9.66-9.51,17.09,20.48,4.25-6.3,19.91,22.68,1.49-2.46,25.6,23.13-5.61,3.22,20.79,19.49-9.6,9,16.37,13.61-9.33,12.95,10.89,15.12-14.48c4.21,3.31,7.49,6.38,9.42,9.55,3,4.95,4.59,11.3,5.43,16.69Z" style="fill:#a62121"/><path d="M369.41,64.88C282,64.88,210.82,136,210.82,223.47S282,382.05,369.41,382.05,528,310.91,528,223.47,456.86,64.88,369.41,64.88Zm0,305.17c-80.83,0-146.59-65.76-146.59-146.58S288.58,76.88,369.41,76.88,516,142.64,516,223.47,450.24,370.05,369.41,370.05Z" style="fill:#a62121"/><path d="M547.75,210.7l39.07-40.84L538.52,160,569,114.32,508.14,111l7.52-61-52,19.9-1.41-54.58L412.41,49.86,385.53.16l-24.2,42.92L327.36,0,305.31,56.75l-55.79-26,2.95,55.68L200.08,70.88,217.61,129,162,139l33.38,36.37-51.46,19.07,47.17,38.44-42,44.94,53.8,14.49-30.88,45,60.61,1.24-7.51,56,44.83-20.44L272.07,429l51.21-33,29.85,53.8,30.33-46.73,33.22,43.38,20-57.3,51,24.51-5.69-49,52.83,14.84-15.55-58.85L579.69,309l-35.07-43.35,51.52-18.29Zm10,90.28-53.42,10.31,13.46,51-49.84-14,5.24,45.18-43.47-20.89-17.08,49-30-39.22-28.71,44.25L327.55,379l-44.31,28.57-2-51.72-41.34,18.84,6.41-47.78-51.83-1.06,27.9-40.68-50.89-13.7,37.12-39.74-40.85-33.28,48.53-18L185.53,147,233,138.38,218,88.7l47.36,14L262.56,50l49.29,23,19.09-49.12L363,64.57,385.31,25l22.92,42.38L450.8,37.82l1.28,49.31,49.23-18.84-6.64,54,52.66,2.87-28.7,43.05,44.49,9.07-33.35,34.86,41.39,31.34L524.62,260Z" style="fill:#a62121"/><path d="M34.07,502.13c0,6.82-.64,10.48-3,15.53-1,2.14.25,3.4,2.27,1.89a23.39,23.39,0,0,1,14.26-4.29c16.78,0,27.26,12.49,27.26,32.31S63.22,580,44,580a40.58,40.58,0,0,1-15.4-2.78l-13.38-5.3A1.79,1.79,0,0,1,14,570V488.38a1.52,1.52,0,0,1,1.64-1.64H32.43a1.53,1.53,0,0,1,1.64,1.64Zm2.27,58.56a22.75,22.75,0,0,0,7.7,1.64c7.06,0,11.23-5.55,11.23-14.76s-4.29-14.52-11-14.52c-7.32,0-10.48,5.3-10.48,12.37v14.13Z" style="fill:#a62121"/><path d="M128,531.41c0,1.14-.51,1.64-1.64,1.64-13.89.63-18.18,8.46-18.18,33.7V577a1.52,1.52,0,0,1-1.64,1.64H89.76A1.52,1.52,0,0,1,88.12,577V518.29a1.52,1.52,0,0,1,1.64-1.64h9a2,2,0,0,1,1.89,1.13l3.28,5.05c1.14,1.64,1.64,2,3.16.38,5.42-5.68,10.47-7.7,19.31-8A1.53,1.53,0,0,1,128,516.9Z" style="fill:#a62121"/><path d="M147.43,517.28a52.11,52.11,0,0,1,13.88-2c19.18,0,30.42,9.09,30.42,24.48V577a1.53,1.53,0,0,1-1.65,1.64h-9.46a2.15,2.15,0,0,1-2-1.13l-1.13-2.28c-.76-1.51-1.9-1.76-4,0A21,21,0,0,1,159.8,580c-15,0-24-7.45-24-20.19,0-11.74,9.34-18.68,25-18.68h11.86v-.25c-.51-5.43-5.18-8.58-12.37-8.58a32.33,32.33,0,0,0-8.2,1.26L147.3,535a1.54,1.54,0,0,1-2-1.14l-3.91-13.12c-.38-1.14,0-1.77,1.14-2Zm13.38,36.34c-3.66,0-6.31,2-6.31,4.8,0,3.53,2.65,5.55,7.19,5.55,6.56,0,10.22-3.15,11-10.09v-.26Z" style="fill:#a62121"/><path d="M223.42,553.37c-12.24-2.78-17.79-8.33-17.79-17.92,0-12.75,9.09-20.19,24.61-20.19a78.81,78.81,0,0,1,16.41,2l6.31,1.51a1.42,1.42,0,0,1,1.13,2l-3.78,13.13a1.39,1.39,0,0,1-1.9,1.13L242,533.56a65.06,65.06,0,0,0-11.74-1.26c-3.28,0-5.17,1.13-5.17,3.15,0,1.26,1.13,2.65,3.28,3.28l10.72,2.53c12.12,2.9,17.55,8.58,17.55,18.42,0,12.75-9.09,20.32-24.49,20.32a80.18,80.18,0,0,1-19.31-2.27l-6.68-1.64a1.43,1.43,0,0,1-1.14-2l3.79-13.38a1.38,1.38,0,0,1,1.89-1.14l5.93,1.52a81,81,0,0,0,15.52,2c3.16,0,4.92-1.26,4.92-3.41,0-1.64-1.13-3.15-3.65-3.78Z" style="fill:#a62121"/><path d="M275.23,578.61a1.52,1.52,0,0,1-1.64-1.64V534.19H267a1.52,1.52,0,0,1-1.64-1.64V518.29a1.52,1.52,0,0,1,1.64-1.64h24.86a1.52,1.52,0,0,1,1.64,1.64V577a1.52,1.52,0,0,1-1.64,1.64Zm13.63-71.43a2,2,0,0,1-1.89,1.14H274.35c-1.14,0-1.64-.76-1.39-1.89l5.17-18.3a1.75,1.75,0,0,1,1.77-1.39h17.54c1.39,0,1.89.75,1.26,1.89Z" style="fill:#a62121"/><path d="M329.43,559.93c0,1.39.51,2.4,1.64,2.4h.76a1.62,1.62,0,0,1,2.14.89l5.18,13.12a1.5,1.5,0,0,1-.76,2.15,19.19,19.19,0,0,1-7.32,1.51c-13.5,0-21.71-7.45-21.71-20.07V488.38a1.53,1.53,0,0,1,1.64-1.64h16.79a1.52,1.52,0,0,1,1.64,1.64Z" style="fill:#a62121"/><path d="M373.17,577a1.52,1.52,0,0,1-1.64,1.64H354.87a1.52,1.52,0,0,1-1.64-1.64V534.19h-6.56a1.52,1.52,0,0,1-1.64-1.64V518.29a1.52,1.52,0,0,1,1.64-1.64h24.86a1.52,1.52,0,0,1,1.64,1.64Zm-.38-80c0,7.19-4,11.61-11.23,11.61s-11.23-4.42-11.23-11.61,4.16-11.48,11.23-11.48S372.79,489.64,372.79,497Z" style="fill:#a62121"/><path d="M397.2,517.28a52.05,52.05,0,0,1,13.88-2c19.18,0,30.41,9.09,30.41,24.48V577a1.52,1.52,0,0,1-1.64,1.64h-9.46a2.14,2.14,0,0,1-2-1.13l-1.14-2.28c-.75-1.51-1.89-1.76-4,0a21,21,0,0,1-13.63,4.8c-15,0-24-7.45-24-20.19,0-11.74,9.34-18.68,25-18.68h11.87v-.25c-.51-5.43-5.18-8.58-12.37-8.58a32.27,32.27,0,0,0-8.2,1.26l-4.8,1.39a1.54,1.54,0,0,1-2-1.14l-3.91-13.12c-.38-1.14,0-1.77,1.14-2Zm13.37,36.34c-3.66,0-6.31,2-6.31,4.8,0,3.53,2.65,5.55,7.2,5.55,6.56,0,10.22-3.15,11-10.09v-.26Z" style="fill:#a62121"/><path d="M497.27,491.28a66.36,66.36,0,0,1,21-3.53c19.06,0,30.54,9.71,30.54,26.25,0,9.46-4.92,15.9-15.4,22.46L514.31,548.2c-4.29,2.65-6.56,7.95-6.56,13h37.86a1.52,1.52,0,0,1,1.64,1.64V577a1.52,1.52,0,0,1-1.64,1.64H489.19a1.52,1.52,0,0,1-1.64-1.64v-7.7c0-17.79,5.68-29.4,17.55-36.72l18.55-11.61c3.4-2,4.92-4.29,4.92-6.94,0-5.3-3.79-8.46-10.35-8.46a46.93,46.93,0,0,0-15,2.53l-8.33,2.65c-1,.37-1.64,0-2-1L488.18,496c-.37-1,0-1.64,1-2Z" style="fill:#a62121"/><path d="M633.69,533.94c0,28.39-13.5,46.06-35.46,46.06s-35.46-17.67-35.46-46.06,13.5-46.19,35.46-46.19S633.69,505.54,633.69,533.94Zm-50.73,0c0,17.79,5.68,28.39,15.27,28.39s15.27-10.6,15.27-28.39-5.55-28.4-15.27-28.4S583,516.14,583,533.94Z" style="fill:#a62121"/><path d="M657.29,491.28a66.36,66.36,0,0,1,21-3.53c19.06,0,30.54,9.71,30.54,26.25,0,9.46-4.92,15.9-15.4,22.46l-19,11.74c-4.29,2.65-6.56,7.95-6.56,13h37.86a1.52,1.52,0,0,1,1.64,1.64V577a1.52,1.52,0,0,1-1.64,1.64H649.21a1.52,1.52,0,0,1-1.64-1.64v-7.7c0-17.79,5.68-29.4,17.55-36.72l18.55-11.61c3.4-2,4.92-4.29,4.92-6.94,0-5.3-3.79-8.46-10.35-8.46a46.93,46.93,0,0,0-15,2.53l-8.33,2.65c-1,.37-1.64,0-2-1L648.2,496c-.37-1,0-1.64,1-2Z" style="fill:#a62121"/><path d="M790.94,556.4a1.53,1.53,0,0,1-1.65,1.64h-7.82V577a1.52,1.52,0,0,1-1.64,1.64H763.17a1.52,1.52,0,0,1-1.64-1.64V558H721.27a1.52,1.52,0,0,1-1.64-1.64V541a3.1,3.1,0,0,1,.76-2c3.15-3.78,6.56-8.2,9.72-12.74L748,501.5c2.65-3.66,4.92-7.44,7.32-11.23a2,2,0,0,1,1.89-1.14h22.59a1.53,1.53,0,0,1,1.64,1.65v49.85h7.82a1.53,1.53,0,0,1,1.65,1.64Zm-29.41-26.88a116.35,116.35,0,0,1,1-15.15c.25-1.76-1-2.14-2.15-.5l-13,17.92a39.42,39.42,0,0,1-5.56,6.56c-1.13,1.14-.5,2.28.89,2.28h18.8Z" style="fill:#a62121"/></svg>