<svg xmlns="http://www.w3.org/2000/svg" viewBox="0 0 808 66"><path d="M80.8,49.24,102.67,33,80.8,16.76,58.93,33ZM92.6,33,80.8,41.76,69,33l11.8-8.76Z" style="fill:#8ae55c"/><path d="M242.4,16.76,220.53,33,242.4,49.24,264.27,33ZM230.6,33l11.8-8.76L254.2,33l-11.8,8.76Z" style="fill:#8ae55c"/><path d="M161.6,16.76,139.73,33,161.6,49.24,183.47,33ZM149.8,33l11.8-8.76L173.4,33l-11.8,8.76Z" style="fill:#8ae55c"/><path d="M404,16.76,382.13,33,404,49.24,425.87,33ZM392.2,33,404,24.24,415.8,33,404,41.76Z" style="fill:#8ae55c"/><path d="M323.2,16.76,301.33,33,323.2,49.24,345.07,33ZM311.4,33l11.8-8.76L335,33l-11.8,8.76Z" style="fill:#8ae55c"/><path d="M565.6,16.76,543.73,33,565.6,49.24,587.46,33ZM553.8,33l11.8-8.76L577.4,33l-11.8,8.76Z" style="fill:#8ae55c"/><path d="M484.8,16.76,462.93,33,484.8,49.24,506.67,33ZM473,33l11.8-8.76L496.6,33l-11.8,8.76Z" style="fill:#8ae55c"/><path d="M646.4,0H0V6H0v.74L35.37,33,0,59.26V60H0v6H808V60h0v-.74L772.63,33,808,6.74V6h0V0Zm129,6-7.76,5.76L759.84,6ZM686.8,46.76,669,60H655.47L686.8,36.74,718.13,60H704.62ZM694.56,60H679l7.76-5.76ZM606,46.76,588.17,60h-13.5L606,36.74,637.33,60H623.82ZM613.76,60H598.24L606,54.24ZM525.2,46.76,507.38,60H493.87L525.2,36.74,556.53,60H543ZM533,60H517.44l7.76-5.76ZM444.4,46.76,426.58,60H413.07L444.4,36.74,475.73,60H462.22ZM452.16,60H436.64l7.76-5.76ZM363.6,46.76,345.78,60H332.27L363.6,36.74,394.93,60H381.42ZM371.36,60H355.84l7.76-5.76ZM282.8,46.76,265,60h-13.5L282.8,36.74,314.13,60H300.62ZM290.56,60H275l7.76-5.76ZM202,46.76,184.18,60H170.67L202,36.74,233.33,60H219.82ZM209.76,60H194.24L202,54.24ZM121.2,46.76,103.37,60H89.87L121.2,36.74,152.53,60H139ZM129,60H113.44l7.76-5.76ZM121.2,19.24,139,6h13.51L121.2,29.26,89.87,6h13.5ZM113.44,6H129l-7.76,5.76ZM202,19.24,219.82,6h13.51L202,29.26,170.67,6h13.51ZM194.24,6h15.52L202,11.76ZM282.8,19.24,300.62,6h13.51L282.8,29.26,251.47,6H265ZM275,6h15.52l-7.76,5.76ZM363.6,19.24,381.42,6h13.51L363.6,29.26,332.27,6h13.51ZM355.84,6h15.52l-7.76,5.76ZM444.4,19.24,462.22,6h13.51L444.4,29.26,413.07,6h13.51ZM436.64,6h15.52l-7.76,5.76ZM525.2,19.24,543,6h13.51L525.2,29.26,493.87,6h13.51ZM517.44,6H533l-7.76,5.76ZM606,19.24,623.82,6h13.51L606,29.26,574.67,6h13.5ZM598.24,6h15.52L606,11.76ZM686.8,19.24,704.62,6h13.51L686.8,29.26,655.47,6H669ZM679,6h15.52l-7.76,5.76ZM126.23,33,161.6,6.74,197,33,161.6,59.26ZM207,33,242.4,6.74,277.77,33,242.4,59.26Zm80.8,0L323.2,6.74,358.57,33,323.2,59.26Zm80.8,0L404,6.74,439.37,33,404,59.26Zm80.8,0L484.8,6.74,520.17,33,484.8,59.26Zm80.8,0L565.6,6.74,601,33,565.6,59.26ZM611,33,646.4,6.74,681.77,33,646.4,59.26ZM116.17,33,80.8,59.26,45.43,33,80.8,6.74Zm575.66,0L727.2,6.74,762.57,33,727.2,59.26ZM48.16,6,40.4,11.76,32.64,6ZM9.07,6H22.58L40.4,19.24,58.23,6h13.5L40.4,29.26ZM40.4,36.74,71.73,60H58.23L40.4,46.76,22.58,60H9.07ZM48.16,60H32.64l7.76-5.76Zm711.68,0,7.76-5.76L775.36,60Zm39.09,0H785.42L767.6,46.76,749.78,60H736.27L767.6,36.74ZM767.6,29.26,736.27,6h13.51L767.6,19.24,785.42,6h13.51Z" style="fill:#8ae55c"/><path d="M727.2,16.76,705.33,33,727.2,49.24,749.06,33ZM715.4,33l11.8-8.76L739,33l-11.8,8.76Z" style="fill:#8ae55c"/><path d="M646.4,16.76,624.53,33,646.4,49.24,668.26,33ZM634.6,33l11.8-8.76L658.2,33l-11.8,8.76Z" style="fill:#8ae55c"/><polygon points="0 49.24 21.86 33 0 16.76 0 24.24 11.8 33 0 41.76 0 49.24" style="fill:#8ae55c"/><polygon points="808 16.76 786.13 33 808 49.24 808 41.76 796.2 33 808 24.24 808 16.76" style="fill:#8ae55c"/></svg>