<?xml version="1.0" encoding="utf-8"?>
<!-- Generator: Adobe Illustrator 24.2.3, SVG Export Plug-In . SVG Version: 6.00 Build 0)  -->
<svg version="1.1"
	 id="svg150" xmlns:cc="http://creativecommons.org/ns#" xmlns:dc="http://purl.org/dc/elements/1.1/" xmlns:inkscape="http://www.inkscape.org/namespaces/inkscape" xmlns:rdf="http://www.w3.org/1999/02/22-rdf-syntax-ns#" xmlns:sodipodi="http://sodipodi.sourceforge.net/DTD/sodipodi-0.dtd" xmlns:svg="http://www.w3.org/2000/svg"
	 xmlns="http://www.w3.org/2000/svg" xmlns:xlink="http://www.w3.org/1999/xlink" x="0px" y="0px" viewBox="0 0 1308.6 262"
	 style="enable-background:new 0 0 1308.6 262;" xml:space="preserve">
<style type="text/css">
	.st0{fill:#FFFFFF;}
</style>
<sodipodi:namedview  bordercolor="#666666" borderopacity="1" gridtolerance="10" guidetolerance="10" id="namedview152" inkscape:current-layer="svg150" inkscape:cx="226.46719" inkscape:cy="449.92703" inkscape:pageopacity="0" inkscape:pageshadow="2" inkscape:window-height="1017" inkscape:window-maximized="1" inkscape:window-width="1920" inkscape:window-x="-8" inkscape:window-y="-8" inkscape:zoom="0.89359596" objecttolerance="10" pagecolor="#ffffff" showgrid="false" units="px">
	</sodipodi:namedview>
<g>
	<path class="st0" d="M759.1,238.8c0,0.7-0.1,1.4-0.2,2.1c-0.1,0.7-0.3,1.3-0.5,1.9c-0.3,0.6-0.6,1.1-1,1.6
		c-0.4,0.4-0.9,0.8-1.5,1.1s-1.3,0.4-2.2,0.4c-0.8,0-1.5-0.1-2.1-0.4s-1.1-0.6-1.5-1s-0.7-1-1-1.6s-0.5-1.3-0.6-1.9
		c-0.1-0.7-0.2-1.4-0.2-2.1v-10h-3.1v10c0,1.1,0.1,2.1,0.3,3s0.5,1.8,0.9,2.7s1,1.6,1.6,2.2s1.4,1.1,2.4,1.5s2.1,0.5,3.3,0.5
		c1.5,0,2.8-0.3,3.9-0.8c1.1-0.5,2-1.2,2.7-2.2c0.7-0.9,1.2-2,1.5-3.1c0.3-1.2,0.5-2.4,0.5-3.8v-10h-3.1v9.9 M785.7,243.1
		l-11.2-14.3h-2.6v19.7h3.1v-14l11,14h2.7v-19.7h-3.1L785.7,243.1L785.7,243.1z M798.8,248.6h3.1v-19.7h-3.1V248.6z M817.6,228.8
		l-7.7,19.7h3.3l2.1-5.4h7.6l2.1,5.4h3.3l-7.7-19.7H817.6z M815.8,240.9l3.3-8.6l3.2,8.6H815.8z M815.9,226.2c0-0.1,0.1-0.3,0.2-0.4
		c0.1-0.2,0.2-0.3,0.4-0.4s0.4-0.2,0.7-0.2s0.7,0.1,1,0.3c0.4,0.2,0.8,0.4,1.2,0.6s0.9,0.3,1.4,0.3s0.9-0.1,1.3-0.3
		c0.4-0.2,0.7-0.4,0.9-0.7s0.4-0.6,0.6-0.9c0.2-0.3,0.3-0.6,0.3-0.8c0.1-0.2,0.1-0.4,0.1-0.5h-1.8c0,0,0,0.1,0,0.2s-0.1,0.2-0.1,0.3
		c-0.1,0.1-0.1,0.3-0.3,0.4c-0.1,0.1-0.3,0.2-0.4,0.3c-0.2,0.1-0.4,0.1-0.7,0.1c-0.4,0-0.7-0.1-1.1-0.3c-0.4-0.2-0.8-0.4-1.2-0.6
		c-0.4-0.2-0.9-0.3-1.3-0.3c-0.4,0-0.8,0.1-1.2,0.3s-0.6,0.4-0.9,0.7s-0.4,0.6-0.5,0.9c-0.2,0.3-0.3,0.6-0.3,0.8
		c-0.1,0.2-0.1,0.4-0.1,0.6h1.7C815.9,226.4,815.9,226.3,815.9,226.2z M850.6,231.8c-0.8-0.9-1.8-1.7-3-2.3s-2.5-0.9-3.8-0.9
		s-2.6,0.3-3.8,0.8c-1.2,0.6-2.2,1.3-3,2.2s-1.5,2-2,3.2s-0.7,2.5-0.7,3.8c0,1,0.1,2,0.4,3c0.3,1,0.7,1.9,1.3,2.7s1.2,1.6,2,2.2
		s1.6,1.1,2.6,1.5s2,0.6,3.2,0.6c1.3,0,2.6-0.3,3.8-0.8s2.2-1.3,3-2.2s1.5-2,2-3.2s0.7-2.5,0.7-3.8c0-1.2-0.2-2.5-0.7-3.7
		C852,233.9,851.4,232.8,850.6,231.8z M849.5,241.3c-0.3,0.9-0.7,1.6-1.2,2.3s-1.2,1.2-2,1.6s-1.7,0.6-2.6,0.6c-1.2,0-2.4-0.3-3.3-1
		c-1-0.7-1.7-1.6-2.2-2.7s-0.8-2.3-0.8-3.5c0-0.9,0.1-1.8,0.4-2.6c0.3-0.9,0.7-1.6,1.2-2.3s1.2-1.2,2-1.6s1.7-0.6,2.7-0.6
		c0.9,0,1.8,0.2,2.6,0.6s1.5,0.9,2,1.6s0.9,1.4,1.2,2.3s0.5,1.8,0.5,2.7C850,239.6,849.8,240.5,849.5,241.3z M877.5,239.8h8.8v-2.6
		h-8.8v-5.6h10.1v-2.8h-13.3v19.7h13.5v-2.8h-10.4v-5.9L877.5,239.8L877.5,239.8z M922.7,238.9c0.7-1.1,1.1-2.3,1.1-3.6
		c0-0.8-0.2-1.6-0.5-2.3c-0.3-0.8-0.7-1.5-1.2-2.1s-1.2-1.1-1.9-1.5c-0.8-0.4-1.6-0.6-2.5-0.6h-8.6v19.7h3.1v-6.9h4.6l4.3,6.9h3.5
		L920,241C921.1,240.7,922,240,922.7,238.9z M917.6,238.9h-5.5v-7.4h5.3c0.8,0,1.6,0.4,2.2,1.1c0.6,0.7,1,1.6,1,2.6
		s-0.3,1.9-0.8,2.6C919.2,238.6,918.5,238.9,917.6,238.9z M936.1,239.8h8.8v-2.6h-8.8v-5.6h10.2v-2.8H933v19.7h13.5v-2.8h-10.4
		V239.8z M967,244.5c-0.6,0.5-1.2,0.9-1.9,1.1c-0.6,0.2-1.3,0.3-2,0.3c-1.2,0-2.3-0.3-3.3-1s-1.7-1.6-2.3-2.7
		c-0.5-1.1-0.8-2.3-0.8-3.6c0-0.7,0.1-1.4,0.3-2.1s0.4-1.3,0.8-1.9c0.4-0.6,0.8-1.2,1.3-1.6c0.5-0.5,1.1-0.8,1.8-1.1
		s1.4-0.4,2.2-0.4c0.5,0,1,0.1,1.5,0.2s0.9,0.3,1.4,0.5s0.9,0.6,1.3,1c0.4,0.4,0.7,0.9,1,1.5l2.4-1.6c-0.7-1.3-1.6-2.3-3-3.1
		c-1.3-0.8-2.8-1.2-4.6-1.2c-1.2,0-2.3,0.2-3.3,0.6s-1.9,0.9-2.7,1.5s-1.4,1.4-1.9,2.2s-1,1.7-1.2,2.7c-0.3,0.9-0.4,1.9-0.4,2.9
		c0,1.2,0.2,2.5,0.7,3.7s1.1,2.3,1.9,3.3c0.8,1,1.8,1.7,3,2.3s2.5,0.9,3.8,0.9c1.1,0,2.1-0.2,3.2-0.5c1-0.3,2-0.9,2.9-1.6
		s1.5-1.5,1.9-2.5l-2.6-1.5C968.1,243.4,967.6,244,967,244.5z M994.3,231.8c-0.8-0.9-1.8-1.7-3-2.3s-2.5-0.9-3.8-0.9
		s-2.6,0.3-3.8,0.8c-1.2,0.6-2.2,1.3-3,2.2s-1.5,2-2,3.2s-0.7,2.5-0.7,3.8c0,1,0.1,2,0.4,3c0.3,1,0.7,1.9,1.3,2.7s1.2,1.6,2,2.2
		s1.6,1.1,2.6,1.5s2,0.6,3.2,0.6c1.3,0,2.6-0.3,3.8-0.8s2.2-1.3,3-2.2s1.5-2,2-3.2s0.7-2.5,0.7-3.8c0-1.2-0.2-2.5-0.7-3.7
		C995.7,233.9,995.1,232.8,994.3,231.8z M993.3,241.3c-0.3,0.9-0.7,1.6-1.2,2.3s-1.2,1.2-2,1.6s-1.7,0.6-2.6,0.6
		c-1.2,0-2.4-0.3-3.3-1c-1-0.7-1.7-1.6-2.2-2.7s-0.8-2.3-0.8-3.5c0-0.9,0.1-1.8,0.4-2.6c0.3-0.9,0.7-1.6,1.2-2.3s1.2-1.2,2-1.6
		s1.7-0.6,2.7-0.6c0.9,0,1.8,0.2,2.6,0.6s1.5,0.9,2,1.6s0.9,1.4,1.2,2.3s0.5,1.8,0.5,2.7C993.7,239.6,993.6,240.5,993.3,241.3z
		 M1019.4,243.1l-11.2-14.3h-2.6v19.7h3.1v-14l11,14h2.7v-19.7h-3.1L1019.4,243.1L1019.4,243.1z M1045.3,239.8
		c-0.3-0.4-0.8-0.7-1.4-1s-1.2-0.6-1.8-0.8c-0.6-0.2-1.4-0.4-2.2-0.6c-0.5-0.1-1-0.2-1.3-0.3s-0.7-0.2-1.1-0.3s-0.7-0.2-0.9-0.3
		c-0.2-0.1-0.4-0.2-0.7-0.4c-0.2-0.2-0.4-0.3-0.5-0.5s-0.2-0.4-0.3-0.6s-0.1-0.5-0.1-0.7c0-0.9,0.3-1.5,1-2c0.6-0.5,1.6-0.7,2.9-0.7
		c1.1,0,2.1,0.2,3.2,0.7c1,0.4,1.7,0.9,2.2,1.4l1.4-2.6c-2-1.5-4.2-2.2-6.7-2.2c-1,0-2,0.1-2.8,0.4c-0.9,0.3-1.6,0.6-2.3,1.1
		c-0.6,0.5-1.1,1.1-1.5,1.9s-0.6,1.6-0.6,2.6c0,0.8,0.1,1.4,0.4,2s0.6,1,1.1,1.4s1.1,0.8,1.8,1c0.7,0.3,1.5,0.6,2.6,0.8
		c0.7,0.2,1.2,0.3,1.6,0.4s0.8,0.2,1.3,0.4s0.8,0.3,1.1,0.5c0.3,0.2,0.5,0.3,0.8,0.6c0.2,0.2,0.4,0.5,0.5,0.7
		c0.1,0.3,0.1,0.6,0.1,0.9c0,0.8-0.3,1.4-1,1.9c-0.7,0.4-1.6,0.7-2.8,0.7c-1.4,0-2.7-0.3-4-0.8s-2.2-1.1-2.8-1.7l-1.4,2.7
		c1.1,0.9,2.4,1.5,3.8,2s2.9,0.7,4.4,0.7c0.8,0,1.6-0.1,2.3-0.2c0.7-0.1,1.4-0.3,2-0.6s1.1-0.7,1.6-1.1c0.4-0.4,0.8-1,1-1.6
		s0.4-1.3,0.4-2.1c0-0.7-0.1-1.3-0.3-1.9C1045.9,240.7,1045.7,240.2,1045.3,239.8z M1053.3,231.6h6.6v17h3.2v-17h6.6v-2.8h-16.3
		L1053.3,231.6L1053.3,231.6z M1091.4,238.9c0.7-1.1,1.1-2.3,1.1-3.6c0-0.8-0.2-1.6-0.5-2.3c-0.3-0.8-0.7-1.5-1.2-2.1
		s-1.2-1.1-1.9-1.5c-0.8-0.4-1.6-0.6-2.5-0.6h-8.6v19.7h3.1v-6.9h4.6l4.3,6.9h3.5l-4.6-7.5C1089.8,240.7,1090.7,240,1091.4,238.9z
		 M1086.4,238.9h-5.5v-7.4h5.3c0.8,0,1.6,0.4,2.2,1.1s0.9,1.6,0.9,2.6s-0.3,1.9-0.8,2.6C1087.9,238.6,1087.2,238.9,1086.4,238.9z
		 M1115.3,238.8c0,0.7-0.1,1.4-0.2,2.1s-0.3,1.3-0.6,1.9c-0.3,0.6-0.6,1.1-1,1.6c-0.4,0.4-0.9,0.8-1.5,1.1s-1.3,0.4-2.2,0.4
		c-0.8,0-1.5-0.1-2.1-0.4s-1.1-0.6-1.5-1s-0.7-1-1-1.6s-0.5-1.3-0.6-1.9c-0.1-0.7-0.2-1.4-0.2-2.1v-10h-3.1v10c0,1.1,0.1,2.1,0.3,3
		c0.2,0.9,0.5,1.8,0.9,2.7s1,1.6,1.6,2.2s1.4,1.1,2.4,1.5s2.1,0.5,3.3,0.5c1.5,0,2.8-0.3,3.9-0.8s2-1.2,2.7-2.2s1.2-2,1.5-3.1
		c0.3-1.2,0.5-2.4,0.5-3.8v-10h-3.1L1115.3,238.8L1115.3,238.8z M1140.3,244.5c-0.6,0.5-1.2,0.9-1.9,1.1c-0.6,0.2-1.3,0.3-2,0.3
		c-1.2,0-2.3-0.3-3.3-1s-1.7-1.6-2.3-2.7c-0.5-1.1-0.8-2.3-0.8-3.6c0-0.7,0.1-1.4,0.3-2.1c0.2-0.7,0.4-1.3,0.8-1.9s0.8-1.2,1.3-1.6
		c0.5-0.5,1.1-0.8,1.8-1.1c0.7-0.3,1.4-0.4,2.2-0.4c0.5,0,1,0.1,1.5,0.2s0.9,0.3,1.4,0.5s0.9,0.6,1.3,1s0.7,0.9,1,1.5l2.4-1.6
		c-0.7-1.3-1.6-2.3-3-3.1c-1.3-0.8-2.8-1.2-4.6-1.2c-1.2,0-2.3,0.2-3.3,0.6s-1.9,0.9-2.7,1.5c-0.8,0.6-1.4,1.4-1.9,2.2
		s-1,1.7-1.2,2.7c-0.3,0.9-0.4,1.9-0.4,2.9c0,1.2,0.2,2.4,0.6,3.5c0.4,1.2,1,2.2,1.8,3.2c0.8,0.9,1.7,1.7,2.8,2.3
		c1.1,0.6,2.3,1,3.5,1.1c1,0.7,1.5,1.3,1.5,2.1c0,0.4-0.1,0.7-0.4,1c-0.3,0.2-0.7,0.3-1.2,0.3c-0.6,0-1.3-0.2-2-0.6l-0.8,1.6
		c1,0.5,2.1,0.8,3.3,0.8c1,0,1.7-0.2,2.2-0.7s0.8-1.1,0.8-1.9c0-1-0.5-1.9-1.4-2.7c1.5-0.2,2.8-0.7,4.1-1.5c1.2-0.8,2.1-1.8,2.6-3
		l-2.6-1.5C1141.4,243.4,1140.9,244,1140.3,244.5z M1158.1,228.8l-7.7,19.7h3.3l2.1-5.4h7.6l2.1,5.4h3.3l-7.7-19.7H1158.1z
		 M1156.3,240.9l3.3-8.6l3.2,8.6H1156.3z M1156.5,226.2c0-0.1,0.1-0.3,0.2-0.4c0.1-0.2,0.2-0.3,0.4-0.4c0.2-0.1,0.4-0.2,0.7-0.2
		c0.3,0,0.7,0.1,1,0.3c0.4,0.2,0.8,0.4,1.2,0.6c0.4,0.2,0.9,0.3,1.4,0.3s0.9-0.1,1.3-0.3s0.7-0.4,0.9-0.7c0.2-0.3,0.4-0.6,0.6-0.9
		s0.3-0.6,0.3-0.8c0.1-0.2,0.1-0.4,0.1-0.5h-1.8c0,0,0,0.1,0,0.2s-0.1,0.2-0.1,0.3c-0.1,0.1-0.1,0.3-0.3,0.4
		c-0.1,0.1-0.3,0.2-0.4,0.3c-0.2,0.1-0.4,0.1-0.7,0.1c-0.4,0-0.7-0.1-1.1-0.3s-0.8-0.4-1.2-0.6c-0.4-0.2-0.9-0.3-1.3-0.3
		s-0.8,0.1-1.2,0.3c-0.4,0.2-0.6,0.4-0.9,0.7c-0.2,0.3-0.4,0.6-0.5,0.9c-0.2,0.3-0.3,0.6-0.3,0.8c-0.1,0.2-0.1,0.4-0.1,0.6h1.7
		C1156.4,226.4,1156.4,226.3,1156.5,226.2z M1193,235.1c-0.5-1.2-1.1-2.3-1.9-3.2s-1.8-1.7-3-2.3s-2.5-0.9-3.8-0.9s-2.6,0.3-3.8,0.8
		c-1.2,0.6-2.2,1.3-3,2.2s-1.5,2-2,3.2s-0.7,2.5-0.7,3.8c0,1,0.1,2,0.4,3s0.7,1.9,1.3,2.7c0.6,0.8,1.2,1.6,2,2.2s1.6,1.1,2.6,1.5
		s2,0.6,3.2,0.6c1.3,0,2.6-0.3,3.8-0.8c1.2-0.5,2.2-1.3,3-2.2s1.5-2,2-3.2s0.7-2.5,0.7-3.8C1193.7,237.5,1193.5,236.3,1193,235.1z
		 M1190.1,241.3c-0.3,0.9-0.7,1.6-1.2,2.3s-1.2,1.2-2,1.6s-1.7,0.6-2.6,0.6c-1.2,0-2.4-0.3-3.3-1c-1-0.7-1.7-1.6-2.2-2.7
		s-0.8-2.3-0.8-3.5c0-0.9,0.1-1.8,0.4-2.6c0.3-0.9,0.7-1.6,1.2-2.3s1.2-1.2,2-1.6s1.7-0.6,2.7-0.6c0.9,0,1.8,0.2,2.6,0.6
		c0.8,0.4,1.5,0.9,2,1.6s0.9,1.4,1.2,2.3c0.3,0.9,0.5,1.8,0.5,2.7C1190.5,239.6,1190.4,240.5,1190.1,241.3z"/>
</g>
<g>
	<path class="st0" d="M756.2,29.7h6.8c-0.6,1.6-2.3,3-5,3c-3.8,0-6.4-2.7-6.4-6.5s2.6-6.7,6.3-6.7c2.4,0,4.4,1.1,5.5,3.1l5.8-3.4
		c-2.3-3.9-6.6-6.2-11.2-6.2c-7.3,0-13.2,5.8-13.2,13.2s5.8,13.1,13.2,13.1c6.9,0,12.2-5.1,12.2-12.9v-2h-14L756.2,29.7 M792.7,12.9
		c-7.4,0-13.2,5.8-13.2,13.2c0,7.3,5.8,13.2,13.2,13.2c7.3,0,13.1-5.8,13.1-13.2S800,12.9,792.7,12.9z M792.7,32.3
		c-3.4,0-6-2.7-6-6.2s2.6-6.2,6-6.2c3.3,0,5.8,2.7,5.8,6.2S796,32.3,792.7,32.3z M825.3,29l-5.8-15.5h-7.3l9.7,25.1h6.8l9.8-25.1
		h-7.3L825.3,29z M847.3,38.6h18v-6.1h-11.2v-3.7h7.4v-5.4h-7.4v-3.7h11.2v-6.1h-18V38.6z M896.7,21.7c0-4.7-3.8-8.2-8.7-8.2h-12.2
		v25.1h6.7v-8.7h2.8l5,8.7h7.5l-5.6-9.7C894.9,27.5,896.7,24.9,896.7,21.7z M887.2,24.2h-4.7v-4.7h4.7c1.6,0,2.6,1.1,2.6,2.4
		C889.8,23.1,888.8,24.2,887.2,24.2z M923,26.8l-10.2-13.3h-5.7v25.1h6.7V25.4l10.1,13.2h5.7V13.5h-6.7v13.3
		C922.9,26.8,923,26.8,923,26.8z M952.7,12.9c-7.4,0-13.2,5.8-13.2,13.2c0,7.3,5.8,13.2,13.2,13.2c7.3,0,13.1-5.8,13.1-13.2
		S959.9,12.9,952.7,12.9z M952.7,32.3c-3.4,0-6-2.7-6-6.2s2.6-6.2,6-6.2c3.3,0,5.8,2.7,5.8,6.2S955.9,32.3,952.7,32.3z M992.2,38.6
		h6.8v-9.2h7.4v-5.7H999v-4.3h11.2v-6h-18V38.6z M1020.3,38.6h18v-6.1h-11.2v-3.7h7.4v-5.4h-7.4v-3.7h11.2v-6.1h-18L1020.3,38.6
		L1020.3,38.6z M1059,13.5h-10.2v25.1h10.2c7.7,0,13.4-5.4,13.4-12.6C1072.5,18.8,1066.7,13.5,1059,13.5z M1058.7,32.1h-3.1V20h3.1
		c4,0,6.7,2.4,6.7,6C1065.4,29.7,1062.7,32.1,1058.7,32.1z M1082.2,38.6h18v-6.1H1089v-3.7h7.4v-5.4h-7.4v-3.7h11.2v-6.1h-18V38.6z
		 M1131.5,21.7c0-4.7-3.8-8.2-8.7-8.2h-12.2v25.1h6.7v-8.7h2.8l5,8.7h7.5l-5.6-9.7C1129.8,27.5,1131.5,24.9,1131.5,21.7z
		 M1122.1,24.2h-4.7v-4.7h4.7c1.6,0,2.6,1.1,2.6,2.4C1124.7,23.1,1123.7,24.2,1122.1,24.2z M1150.6,13.5l-10.5,25.1h7.1l1.7-4.3h9.9
		l1.8,4.3h7L1157,13.5H1150.6z M1151.4,28.3l2.5-6.2l2.5,6.2H1151.4z M1183.6,32.2V13.5h-7.1v25.1h17.7v-6.5h-10.6V32.2z"/>
</g>
<g>
	<polygon class="st0" points="743.2,118 743.2,66.9 699.4,66.9 699.4,118 743.1,118 	"/>
	<rect x="699.4" y="120" class="st0" width="43.7" height="77.3"/>
	<path class="st0" d="M1038.7,123.7v2v71.5h14.1c22.7,0,41.1-18.4,41.1-41.1c0-22.7-18.4-41.1-41.1-41.1h-14.1V123.7z"/>
	<polygon class="st0" points="1038.7,113 1052.8,113 1086.2,113 1086.2,66.9 1038.7,66.9 	"/>
	<path class="st0" d="M745.2,197.3h14c21.3,0,38.6-17.3,38.6-38.6c0-10.3-3.9-20-11.2-27.3c-7.3-7.3-17-11.4-27.4-11.4h-4.4h-9.6
		V197.3z"/>
	<path class="st0" d="M754.8,66.8h-9.6V118h9.6c14.1,0,25.6-11.5,25.6-25.6S768.9,66.8,754.8,66.8z"/>
	<rect x="1149.4" y="66.9" class="st0" width="43.8" height="85.9"/>
	<rect x="1195.2" y="154.8" class="st0" width="43.8" height="42.5"/>
	<rect x="1149.4" y="154.8" class="st0" width="43.8" height="42.5"/>
	<polygon class="st0" points="1036.7,197.3 1036.7,125.7 1023.8,125.7 995.4,125.7 995.4,159.4 1017.9,197.3 	"/>
	<path class="st0" d="M850.8,66.9h-50.1l50.6,77.9h0l0.1,0.1c21.2-0.3,38.4-17.7,38.4-39C889.8,84.4,872.3,66.9,850.8,66.9z"/>
	<polygon class="st0" points="799.9,197.3 859.2,197.3 870.6,178.1 850.3,146.9 850.3,146.9 850.2,146.8 799.9,146.8 	"/>
	<polygon class="st0" points="799.9,144.8 848.9,144.8 799.9,69.4 	"/>
	<rect x="1095.9" y="66.9" class="st0" width="43.8" height="130.4"/>
	<polygon class="st0" points="861.6,197.3 883.1,197.3 871.8,180 	"/>
	<path class="st0" d="M1036.7,115v-2V66.9h-12.9c-15.7,0-28.4,12.7-28.4,28.4c0,15.7,12.7,28.4,28.4,28.4h12.9V115z"/>
	<polygon class="st0" points="995.4,197.3 1015.5,197.3 995.4,163.4 	"/>
	<path class="st0" d="M938.6,151c-25.7,0-46.8,20.7-47.3,46.3h94.6C985.4,171.7,964.3,151,938.6,151z"/>
	<path class="st0" d="M993.4,197.3v-37.2l-54.8-92.2L873,178.1l12.5,19.2h3.9c0.5-26.7,22.4-48.3,49.3-48.3
		c26.8,0,48.7,21.6,49.3,48.3H993.4z"/>
</g>
<g>
	<path class="st0" d="M272.1,92.6V73.5L264.2,88h-2.5l-7.9-14.5v19.1h-4.2V65.8h4.5l8.9,16.4l8.9-16.4h4.5v26.8
		C276.4,92.6,272.1,92.6,272.1,92.6z"/>
	<path class="st0" d="M290,92.6V65.8h4.2v26.8C294.2,92.6,290,92.6,290,92.6z"/>
	<path class="st0" d="M312,73.7v19h-4.2V65.8h3.5l15.2,19.4V65.9h4.3v26.8H327L312,73.7z"/>
	<path class="st0" d="M344.3,92.6V65.8h4.2v26.8C348.5,92.6,344.3,92.6,344.3,92.6z"/>
	<path class="st0" d="M378,72.1c-0.6-0.6-1.6-1.3-3-1.8c-1.4-0.6-2.8-0.9-4.3-0.9c-1.7,0-3.1,0.3-3.9,1c-0.9,0.6-1.3,1.6-1.3,2.7
		c0,0.4,0,0.7,0.1,1s0.2,0.6,0.4,0.8c0.2,0.2,0.4,0.4,0.7,0.7c0.3,0.2,0.6,0.4,0.9,0.5s0.7,0.3,1.2,0.5s1,0.3,1.5,0.4
		s1.1,0.3,1.8,0.5c1.2,0.3,2.2,0.6,3,0.8c0.8,0.3,1.6,0.6,2.4,1.1c0.8,0.4,1.4,0.9,1.9,1.4s0.8,1.2,1.1,1.9c0.3,0.8,0.4,1.6,0.4,2.6
		c0,1.1-0.2,2-0.5,2.9s-0.8,1.6-1.4,2.2s-1.3,1.1-2.1,1.5c-0.8,0.4-1.7,0.7-2.7,0.9s-2,0.3-3.1,0.3c-2,0-4-0.3-5.9-0.9
		s-3.6-1.5-5.1-2.7l1.9-3.6c0.8,0.8,2,1.6,3.8,2.3s3.6,1.1,5.4,1.1c1.7,0,3-0.3,3.9-0.9s1.4-1.4,1.4-2.5c0-0.4-0.1-0.8-0.2-1.2
		s-0.4-0.7-0.7-1c-0.3-0.3-0.7-0.5-1-0.7c-0.4-0.2-0.8-0.4-1.5-0.6s-1.2-0.4-1.8-0.6c-0.5-0.1-1.3-0.3-2.2-0.6
		c-1.4-0.4-2.6-0.7-3.5-1.1s-1.7-0.8-2.4-1.4c-0.7-0.6-1.2-1.2-1.5-2s-0.5-1.7-0.5-2.7c0-1.3,0.2-2.5,0.7-3.5s1.2-1.9,2.1-2.6
		s1.9-1.2,3.1-1.5c1.2-0.4,2.5-0.5,3.9-0.5c3.3,0,6.3,1,9.1,3L378,72.1z"/>
	<path class="st0" d="M412.5,69.6h-8.9v23.1h-4.3V69.6h-8.9v-3.7h22.1L412.5,69.6L412.5,69.6z"/>
	<path class="st0" d="M442,88.9v3.7h-18.4V65.8h18.1v3.7h-13.8v7.6h12v3.5h-12v8.2H442V88.9z M434.5,63.1l-2.7-0.8l2.2-4.1h4
		L434.5,63.1z"/>
	<path class="st0" d="M453.9,92.6V65.8h11.7c1.2,0,2.3,0.3,3.3,0.8c1.1,0.5,1.9,1.2,2.6,2s1.3,1.8,1.7,2.8c0.4,1,0.6,2.1,0.6,3.2
		c0,1.8-0.5,3.5-1.4,4.9c-1,1.5-2.2,2.5-3.8,3l6.3,10.2h-4.8l-5.8-9.3h-6.2v9.3h-4.2L453.9,92.6L453.9,92.6z M458.1,79.6h7.4
		c1.2,0,2.1-0.5,2.9-1.5s1.1-2.2,1.1-3.6s-0.4-2.5-1.3-3.5s-1.9-1.5-3-1.5H458v10.1H458.1z"/>
	<path class="st0" d="M486.4,92.6V65.8h4.2v26.8C490.6,92.6,486.4,92.6,486.4,92.6z"/>
	<path class="st0" d="M502.6,79.2c0-1.8,0.3-3.5,1-5.1c0.7-1.7,1.6-3.1,2.7-4.3c1.1-1.2,2.5-2.2,4.1-3c1.6-0.8,3.3-1.1,5.1-1.1
		c1.9,0,3.6,0.4,5.2,1.2c1.6,0.8,3,1.8,4.1,3.1s1.9,2.7,2.6,4.4c0.6,1.6,0.9,3.3,0.9,5c0,1.8-0.3,3.5-1,5.1s-1.5,3.1-2.7,4.3
		c-1.1,1.2-2.5,2.2-4.1,3c-1.6,0.7-3.3,1.1-5.1,1.1c-1.5,0-2.9-0.2-4.3-0.7c-1.4-0.5-2.5-1.2-3.6-2.1s-1.9-1.9-2.7-3
		c-0.8-1.1-1.3-2.4-1.7-3.7C502.8,82,502.6,80.6,502.6,79.2z M515.4,89c1.3,0,2.5-0.3,3.6-0.8c1.1-0.6,2-1.3,2.7-2.2
		c0.7-0.9,1.2-2,1.6-3.1c0.4-1.2,0.6-2.3,0.6-3.6c0-1.3-0.2-2.5-0.6-3.7c-0.4-1.2-1-2.2-1.7-3.1s-1.6-1.6-2.7-2.2
		c-1.1-0.5-2.2-0.8-3.5-0.8s-2.5,0.3-3.6,0.8s-2,1.3-2.7,2.2c-0.7,0.9-1.3,2-1.7,3.1c-0.4,1.2-0.6,2.3-0.6,3.6c0,1.7,0.3,3.3,1,4.8
		s1.7,2.7,3,3.6C512.2,88.5,513.7,89,515.4,89z"/>
	<path class="st0" d="M557.1,92.6V65.8h9.5c2.1,0,4,0.3,5.7,1s3.1,1.7,4.1,2.9c1,1.2,1.9,2.6,2.4,4.2c0.6,1.6,0.8,3.3,0.8,5.2
		c0,4.1-1.2,7.3-3.6,9.8c-2.4,2.5-5.5,3.7-9.5,3.7H557.1z M566.6,69.6h-5.3v19.3h5.3c1.8,0,3.4-0.4,4.8-1.3c1.3-0.9,2.3-2,3-3.5
		s1-3.1,1-5c0-2.9-0.8-5.2-2.3-7C571.5,70.5,569.3,69.6,566.6,69.6z"/>
	<path class="st0" d="M598.5,65.8h4l10.4,26.8h-4.5l-2.8-7.3h-10.3l-2.8,7.3H588L598.5,65.8z M604.8,82.2l-4.3-11.8l-4.4,11.8H604.8
		z"/>
	<path class="st0" d="M82.2,118.4c2.4,0,4.5,0.5,6.4,1.6s3.2,2.5,4.1,4.3l-4,2.8c-0.4-1-1-1.7-1.8-2.4c-0.8-0.6-1.5-1-2.3-1.3
		c-0.8-0.2-1.6-0.4-2.5-0.4c-1.3,0-2.4,0.3-3.4,0.8s-1.8,1.2-2.5,2.1s-1.1,1.8-1.4,2.8c-0.3,1-0.5,2.1-0.5,3.2c0,1.6,0.3,3.1,1,4.4
		c0.7,1.4,1.6,2.5,2.8,3.3c1.2,0.8,2.6,1.3,4.1,1.3c0.9,0,1.7-0.1,2.5-0.4c0.8-0.3,1.6-0.7,2.4-1.3s1.3-1.4,1.7-2.3l4.3,2.5
		c-0.5,1.3-1.4,2.4-2.6,3.4s-2.5,1.7-4,2.2s-2.9,0.7-4.4,0.7s-2.9-0.3-4.3-0.8s-2.6-1.2-3.6-2.1c-1-0.9-1.9-1.9-2.7-3.1
		c-0.8-1.2-1.4-2.4-1.8-3.8c-0.4-1.3-0.6-2.7-0.6-4c0-1.6,0.3-3.3,0.9-4.9s1.5-3,2.6-4.3s2.5-2.3,4.2-3.1
		C78.3,118.8,80.2,118.4,82.2,118.4z"/>
	<path class="st0" d="M104.1,145.3v-26.8h5.2v26.8H104.1z"/>
	<path class="st0" d="M141,140.8v4.6h-18.6v-26.8h18.3v4.6h-13.1v6.5h11.3v4.2h-11.3v7H141V140.8z M126.1,114.6l4-3.8h3.7l4,3.8
		l-2.6,1.2l-3.2-2.4l-3.2,2.4L126.1,114.6z"/>
	<path class="st0" d="M157.9,128.1v17.2h-5.2v-26.8h4.2l13.9,17.7v-17.6h5.2v26.8h-4.3L157.9,128.1z"/>
	<path class="st0" d="M200.6,118.4c2.4,0,4.5,0.5,6.4,1.6s3.2,2.5,4.1,4.3l-4,2.8c-0.4-1-1-1.7-1.8-2.4c-0.8-0.6-1.5-1-2.3-1.3
		c-0.8-0.2-1.6-0.4-2.5-0.4c-1.3,0-2.4,0.3-3.4,0.8s-1.8,1.2-2.5,2.1s-1.1,1.8-1.4,2.8c-0.3,1-0.5,2.1-0.5,3.2c0,1.6,0.3,3.1,1,4.4
		c0.7,1.4,1.6,2.5,2.8,3.3s2.6,1.3,4.1,1.3c0.9,0,1.7-0.1,2.5-0.4c0.8-0.3,1.6-0.7,2.4-1.3c0.8-0.6,1.3-1.4,1.7-2.3l4.3,2.5
		c-0.5,1.3-1.4,2.4-2.6,3.4c-1.2,1-2.5,1.7-4,2.2s-2.9,0.7-4.4,0.7s-2.9-0.3-4.3-0.8s-2.6-1.2-3.6-2.1c-1-0.9-1.9-1.9-2.7-3.1
		c-0.8-1.2-1.4-2.4-1.8-3.8c-0.4-1.3-0.6-2.7-0.6-4c0-1.6,0.3-3.3,0.9-4.9c0.6-1.6,1.5-3,2.6-4.3s2.5-2.3,4.2-3.1
		C196.7,118.8,198.6,118.4,200.6,118.4z"/>
	<path class="st0" d="M222.5,145.3v-26.8h5.2v26.8H222.5z"/>
	<path class="st0" d="M248.1,118.5h5.3l9.9,26.8h-5.4l-2.5-6.7H246l-2.5,6.7h-5.4L248.1,118.5z M254.5,135l-3.7-11.1l-3.9,11.1
		H254.5z"/>
	<path class="st0" d="M273.7,149.7l1-4.5h-1.6v-5.3h4.4v5.3l-1.5,4.5H273.7z"/>
	<path class="st0" d="M325.7,123.1h-8.6v22.2h-5.2v-22.2h-8.6v-4.6h22.3v4.6C325.6,123.1,325.7,123.1,325.7,123.1z"/>
	<path class="st0" d="M355.2,140.8v4.6h-18.6v-26.8h18.3v4.6h-13.1v6.5H353v4.2h-11.3v7h13.5V140.8z"/>
	<path class="st0" d="M377.9,118.4c2.4,0,4.5,0.5,6.4,1.6s3.2,2.5,4.1,4.3l-4,2.8c-0.4-1-1-1.7-1.8-2.4c-0.8-0.6-1.5-1-2.3-1.3
		c-0.8-0.2-1.6-0.4-2.5-0.4c-1.3,0-2.4,0.3-3.4,0.8s-1.8,1.2-2.5,2.1s-1.1,1.8-1.4,2.8c-0.3,1-0.5,2.1-0.5,3.2c0,1.6,0.3,3.1,1,4.4
		c0.7,1.4,1.6,2.5,2.8,3.3c1.2,0.8,2.6,1.3,4.1,1.3c0.9,0,1.7-0.1,2.5-0.4c0.8-0.3,1.6-0.7,2.4-1.3s1.3-1.4,1.7-2.3l4.3,2.5
		c-0.5,1.3-1.4,2.4-2.6,3.4s-2.5,1.7-4,2.2s-2.9,0.7-4.4,0.7s-2.9-0.3-4.3-0.8s-2.6-1.2-3.6-2.1c-1-0.9-1.9-1.9-2.7-3.1
		c-0.8-1.2-1.4-2.4-1.8-3.8c-0.4-1.3-0.6-2.7-0.6-4c0-1.6,0.3-3.3,0.9-4.9s1.5-3,2.6-4.3s2.5-2.3,4.2-3.1
		C374,118.8,375.9,118.4,377.9,118.4z"/>
	<path class="st0" d="M404.9,128.1v17.2h-5.2v-26.8h4.2l13.9,17.7v-17.6h5.2v26.8h-4.3L404.9,128.1z"/>
	<path class="st0" d="M434.5,131.9c0-1.8,0.3-3.5,1-5.1c0.7-1.7,1.6-3.1,2.7-4.3s2.5-2.2,4.2-3c1.6-0.8,3.4-1.1,5.3-1.1
		c1.5,0,3,0.3,4.3,0.8c1.4,0.5,2.6,1.2,3.6,2.1s1.9,1.9,2.7,3.1c0.8,1.1,1.4,2.4,1.8,3.7c0.4,1.3,0.6,2.7,0.6,4c0,1.8-0.3,3.5-1,5.1
		s-1.6,3.1-2.7,4.3s-2.5,2.2-4.2,3c-1.6,0.7-3.4,1.1-5.2,1.1c-1.5,0-3-0.2-4.4-0.7s-2.6-1.2-3.6-2.1c-1-0.9-2-1.9-2.7-3
		c-0.8-1.1-1.4-2.4-1.8-3.7C434.7,134.6,434.5,133.3,434.5,131.9z M447.6,140.9c1.2,0,2.3-0.3,3.3-0.8s1.8-1.2,2.5-2.1
		c0.6-0.9,1.1-1.8,1.5-2.9s0.5-2.2,0.5-3.3c0-1.6-0.3-3-0.9-4.4c-0.6-1.3-1.5-2.4-2.7-3.3c-1.2-0.8-2.6-1.3-4.1-1.3
		c-1.2,0-2.3,0.3-3.3,0.8s-1.8,1.2-2.5,2c-0.6,0.8-1.1,1.8-1.5,2.9c-0.4,1.1-0.5,2.1-0.5,3.3c0,1.6,0.3,3,0.9,4.4
		c0.6,1.3,1.5,2.5,2.7,3.3C444.6,140.5,446,140.9,447.6,140.9z"/>
	<path class="st0" d="M472.2,145.3v-26.8h5.2v22.2h13.7v4.6H472.2z"/>
	<path class="st0" d="M499.6,131.9c0-1.8,0.3-3.5,1-5.1c0.7-1.7,1.6-3.1,2.7-4.3s2.5-2.2,4.2-3c1.6-0.8,3.4-1.1,5.3-1.1
		c1.5,0,3,0.3,4.3,0.8c1.4,0.5,2.6,1.2,3.6,2.1s1.9,1.9,2.7,3.1c0.8,1.1,1.4,2.4,1.8,3.7c0.4,1.3,0.6,2.7,0.6,4c0,1.8-0.3,3.5-1,5.1
		s-1.6,3.1-2.7,4.3c-1.1,1.2-2.5,2.2-4.2,3c-1.6,0.7-3.4,1.1-5.2,1.1c-1.5,0-3-0.2-4.4-0.7s-2.6-1.2-3.6-2.1c-1-0.9-2-1.9-2.7-3
		c-0.8-1.1-1.4-2.4-1.8-3.7C499.8,134.6,499.6,133.3,499.6,131.9z M512.7,140.9c1.2,0,2.3-0.3,3.3-0.8s1.8-1.2,2.5-2.1
		c0.6-0.9,1.1-1.8,1.5-2.9s0.5-2.2,0.5-3.3c0-1.6-0.3-3-0.9-4.4c-0.6-1.3-1.5-2.4-2.7-3.3c-1.2-0.8-2.6-1.3-4.1-1.3
		c-1.2,0-2.3,0.3-3.3,0.8s-1.8,1.2-2.5,2c-0.6,0.8-1.1,1.8-1.5,2.9c-0.4,1.1-0.5,2.1-0.5,3.3c0,1.6,0.3,3,0.9,4.4
		c0.6,1.3,1.5,2.5,2.7,3.3C509.7,140.5,511.1,140.9,512.7,140.9z"/>
	<path class="st0" d="M550.5,131.5h9.7v13.8h-4.3v-3.1c-2.2,2.2-4.7,3.2-7.5,3.2c-2.3,0-4.5-0.6-6.4-1.8s-3.5-2.9-4.6-5
		s-1.7-4.4-1.7-7c0-1.8,0.3-3.5,1-5.2c0.7-1.6,1.6-3.1,2.7-4.3c1.1-1.2,2.5-2.2,4.2-2.9c1.6-0.7,3.3-1.1,5.2-1.1
		c2.5,0,4.6,0.5,6.4,1.6s3.2,2.5,4.1,4.3l-3.9,2.9c-0.7-1.3-1.6-2.3-2.8-3s-2.6-1.1-4-1.1c-1.5,0-2.8,0.4-4,1.2s-2.1,1.9-2.7,3.3
		c-0.6,1.4-0.9,2.9-0.9,4.5c0,2.5,0.8,4.7,2.3,6.4s3.4,2.6,5.7,2.6c2.6,0,4.9-1.2,7-3.7v-1.7h-5.4L550.5,131.5L550.5,131.5z"/>
	<path class="st0" d="M572.3,145.3v-26.8h5.2v26.8H572.3z"/>
	<path class="st0" d="M597.9,118.5h5.3l9.9,26.8h-5.4l-2.5-6.7h-9.4l-2.5,6.7H588L597.9,118.5z M604.2,135l-3.7-11.1l-3.9,11.1
		H604.2z"/>
	<path class="st0" d="M340.4,193.4v4.6h-18.6v-26.8h18.3v4.6H327v6.5h11.3v4.2H327v7h13.4V193.4z"/>
	<path class="st0" d="M368.6,198v-26.8h5.2V198H368.6z"/>
	<path class="st0" d="M392.2,180.8V198H387v-26.8h4.2l13.9,17.7v-17.6h5.2v26.8H406L392.2,180.8z"/>
	<path class="st0" d="M421.7,184.6c0-1.8,0.3-3.5,1-5.1c0.7-1.7,1.6-3.1,2.7-4.3s2.5-2.2,4.2-3c1.6-0.8,3.4-1.1,5.3-1.1
		c1.5,0,3,0.3,4.3,0.8c1.4,0.5,2.6,1.2,3.6,2.1c1,0.9,1.9,1.9,2.7,3.1c0.8,1.2,1.4,2.4,1.8,3.7s0.6,2.7,0.6,4c0,1.8-0.3,3.5-1,5.1
		s-1.6,3.1-2.7,4.3s-2.5,2.2-4.2,3c-1.6,0.7-3.4,1.1-5.2,1.1c-1.5,0-3-0.2-4.4-0.7s-2.6-1.2-3.6-2.1c-1-0.9-2-1.9-2.7-3
		c-0.8-1.1-1.4-2.4-1.8-3.7C421.9,187.3,421.7,186,421.7,184.6z M434.8,193.6c1.2,0,2.3-0.3,3.3-0.8s1.8-1.2,2.5-2.1
		c0.6-0.9,1.1-1.8,1.5-2.9s0.5-2.2,0.5-3.3c0-1.6-0.3-3-0.9-4.4c-0.6-1.3-1.5-2.4-2.7-3.3c-1.2-0.8-2.6-1.3-4.1-1.3
		c-1.2,0-2.3,0.3-3.3,0.8s-1.8,1.2-2.5,2c-0.6,0.8-1.1,1.8-1.5,2.9c-0.4,1.1-0.5,2.1-0.5,3.3c0,1.6,0.3,3,0.9,4.4
		c0.6,1.3,1.5,2.5,2.7,3.3C431.8,193.2,433.2,193.6,434.8,193.6z"/>
	<path class="st0" d="M461.2,171.2l7.2,20.6l7.2-20.6h5.5L470.9,198h-5l-10.2-26.8H461.2z"/>
	<path class="st0" d="M496.6,171.2h5.3l9.9,26.8h-5.4l-2.5-6.7h-9.4L492,198h-5.4L496.6,171.2z M503,187.7l-3.7-11.1l-3.9,11.1H503z
		"/>
	<path class="st0" d="M543.7,192c-0.7,1.6-1.9,3-3.6,4.1c-1.7,1.1-3.6,1.7-5.6,2c1.3,1.1,1.9,2.4,1.9,3.8c0,1.1-0.4,2-1.1,2.7
		c-0.8,0.7-1.8,1-3.2,1c-1.5,0-3-0.4-4.5-1.1l1.3-2.7c0.8,0.5,1.6,0.8,2.4,0.8c0.7,0,1.2-0.1,1.5-0.4c0.4-0.3,0.6-0.7,0.6-1.3
		c0-1-0.6-1.9-1.8-2.7c-1.7-0.2-3.3-0.7-4.8-1.5c-1.5-0.9-2.8-1.9-3.8-3.2s-1.8-2.7-2.4-4.3s-0.9-3.2-0.9-4.8s0.3-3.3,0.9-4.9
		c0.6-1.6,1.5-3,2.6-4.3s2.5-2.3,4.2-3.1s3.6-1.2,5.6-1.2c2.4,0,4.5,0.5,6.4,1.6s3.2,2.5,4.1,4.3l-4,2.8c-0.4-1-1-1.7-1.8-2.4
		c-0.8-0.6-1.5-1-2.3-1.3s-1.6-0.4-2.5-0.4c-1.3,0-2.4,0.3-3.4,0.8s-1.8,1.2-2.5,2.1c-0.6,0.9-1.1,1.8-1.4,2.9s-0.5,2.1-0.5,3.2
		c0,1.6,0.3,3.1,1,4.4c0.7,1.4,1.6,2.5,2.8,3.3s2.6,1.3,4.1,1.3c0.9,0,1.7-0.1,2.5-0.4c0.8-0.3,1.6-0.7,2.4-1.3
		c0.8-0.6,1.3-1.4,1.7-2.3L543.7,192z"/>
	<path class="st0" d="M561.6,171.2h5.3l9.9,26.8h-5.4l-2.5-6.7h-9.4L557,198h-5.4L561.6,171.2z M561.8,166.6c-0.3,0-0.6,0.1-0.8,0.2
		s-0.4,0.3-0.5,0.4c-0.1,0.2-0.2,0.3-0.3,0.5s-0.1,0.3-0.1,0.5s0,0.2,0,0.2h-2.8c0-0.2,0-0.5,0.1-0.9s0.2-0.8,0.5-1.2
		c0.2-0.5,0.5-0.9,0.8-1.3s0.7-0.7,1.3-1s1.1-0.4,1.7-0.4c0.5,0,1,0.1,1.5,0.3s0.9,0.4,1.2,0.6c0.3,0.2,0.7,0.4,1.1,0.6
		s0.8,0.3,1.2,0.3c0.3,0,0.6-0.1,0.9-0.2c0.3-0.1,0.5-0.3,0.6-0.4s0.2-0.3,0.3-0.5s0.1-0.3,0.2-0.5c0-0.1,0-0.2,0-0.3h2.8
		c0,0.2,0,0.4-0.1,0.8c-0.1,0.3-0.3,0.8-0.5,1.2c-0.2,0.5-0.5,0.9-0.9,1.3s-0.8,0.8-1.3,1.1c-0.6,0.3-1.2,0.4-1.8,0.4
		s-1.3-0.1-1.8-0.4c-0.6-0.3-1.1-0.6-1.7-0.8C562.7,166.7,562.2,166.6,561.8,166.6z M568,187.7l-3.7-11.1l-3.9,11.1H568z"/>
	<path class="st0" d="M584.6,184.6c0-1.8,0.3-3.5,1-5.1c0.7-1.7,1.6-3.1,2.7-4.3c1.1-1.2,2.5-2.2,4.2-3c1.6-0.8,3.4-1.1,5.3-1.1
		c1.5,0,3,0.3,4.3,0.8c1.4,0.5,2.6,1.2,3.6,2.1c1,0.9,1.9,1.9,2.7,3.1c0.8,1.2,1.4,2.4,1.8,3.7s0.6,2.7,0.6,4c0,1.8-0.3,3.5-1,5.1
		s-1.6,3.1-2.7,4.3c-1.1,1.2-2.5,2.2-4.2,3c-1.6,0.7-3.4,1.1-5.2,1.1c-1.5,0-3-0.2-4.4-0.7s-2.6-1.2-3.6-2.1c-1-0.9-2-1.9-2.7-3
		c-0.8-1.1-1.4-2.4-1.8-3.7C584.8,187.3,584.6,186,584.6,184.6z M597.7,193.6c1.2,0,2.3-0.3,3.3-0.8s1.8-1.2,2.5-2.1
		c0.6-0.9,1.1-1.8,1.5-2.9s0.5-2.2,0.5-3.3c0-1.6-0.3-3-0.9-4.4c-0.6-1.3-1.5-2.4-2.7-3.3c-1.2-0.8-2.6-1.3-4.1-1.3
		c-1.2,0-2.3,0.3-3.3,0.8s-1.8,1.2-2.5,2c-0.6,0.8-1.1,1.8-1.5,2.9c-0.4,1.1-0.5,2.1-0.5,3.3c0,1.6,0.3,3,0.9,4.4
		c0.6,1.3,1.5,2.5,2.7,3.3C594.8,193.2,596.2,193.6,597.7,193.6z"/>
</g>
</svg>
