<svg xmlns="http://www.w3.org/2000/svg" viewBox="0 0 1080 720"><path d="M1013,240.28V455.9c-4.5,1-937.75,1.24-945.35.36-1.17-1.95-.62-4.21-.62-6.34q0-63,0-126.07c0-25.8,0-51.6,0-77.41,0-6.32-1.28-5.93,6.19-6.48,1.47-.11,3-.05,4.42-.05q462.81,0,925.62,0C1006.52,239.93,1009.76,240.16,1013,240.28Z" style="fill:#fff"/><path d="M1013.15,518.43H67.75a5.7,5.7,0,0,1-.66-1.67c0-8.85-.1-17.69,0-26.54,0-3.58.13-3.58,3.84-3.7,1.1,0,2.21,0,3.31,0h934.45c4.39.07,4.47.07,4.49,4.19C1013.18,499.73,1013.15,508.75,1013.15,518.43Z" style="fill:#fff"/><path d="M1012.84,178.05c.12,1.91.28,3.34.29,4.78q0,10.78,0,21.56c0,5.58,0,5.58-5.85,5.6H68.05c-1.24-4-1.51-25-.51-31.43a2.46,2.46,0,0,1,.41-.38,1,1,0,0,1,.49-.19q470.52-.11,941.05-.17C1010.39,177.82,1011.3,177.94,1012.84,178.05Z" style="fill:#fff"/><path d="M270.93,99c14.24-14.08,30.95-9.84,38.07,2.22,1.7-1.7,3.37-3.35,5-5,7.64-7.74,25.3-8.58,32.8,1.14,4.05,5.24,5.47,11.22,5.57,17.52.21,14,.09,28,0,42,0,3.73-.5,4.2-4.06,4.28-4.05.08-8.11,0-12.16,0-1.84,0-2.71-.84-2.68-2.67,0-1.29,0-2.58,0-3.87,0-11.24,0-22.48,0-33.73a53.69,53.69,0,0,0-.79-6.52c-.51-3.88-2.52-6.55-6.49-7.15-4.54-.68-9-.35-11.71,4.09a17.09,17.09,0,0,0-2.82,9.36c.15,11.43.06,22.85.06,34.28v6c-6.34.5-12.3.24-18.6.17-.15-1.83-.37-3.24-.38-4.65q0-17.13,0-34.28c0-1.47,0-3,0-4.42-.16-5.64-3.36-9.93-7.74-10.6-6.75-1-11.84,3.33-12.9,7.85a38.15,38.15,0,0,0-1.1,8.15c-.13,10.69-.05,21.38-.05,32.07v6c-6.48.25-12.43.27-18.69,0-.14-1.67-.34-2.9-.34-4.14q0-29.87,0-59.72c0-.92,0-1.84,0-2.76a2.61,2.61,0,0,1,2.7-2.87q6.63-.12,13.27,0a2.66,2.66,0,0,1,2.86,2.73C270.82,95.9,270.86,97.35,270.93,99Z" style="fill:#fff"/><path d="M107.84,161.22v-6.33c0-11.6,0-23.21,0-34.81a29.44,29.44,0,0,0-.52-5.46,8.53,8.53,0,0,0-6.76-7.2c-3.9-.85-7.73-.4-10.64,2.89A15,15,0,0,0,86,120.88c.09,11.42,0,22.84,0,34.26,0,6.52.65,6.34-6.26,6.28-3.68,0-7.36-.06-11-.12-.32,0-.64-.29-1-.44-.89-4-1.2-59.94-.36-68.47,2.69-1.39,5.67-.54,8.53-.68s5.47,0,8.71,0c.29,2.59.55,4.87.89,7.81,5.58-5.94,11.73-9.57,19.86-9.26,8.29.31,14.26,4.08,18.44,11,2-1.92,3.91-3.62,5.69-5.44,7.68-7.82,27.59-8.54,34.41,4.9a25.19,25.19,0,0,1,2.8,10.49c.3,16,.14,32.05.13,48.08a3.81,3.81,0,0,1-.31,1.05c-2.36.67-14.58,1.46-16.28.67a4.77,4.77,0,0,1-2.19-2.68,12.89,12.89,0,0,1-.11-3.84V121.3c0-1.47,0-3,0-4.42-.23-5.33-2.08-8.2-6.06-9.47-4.51-1.43-9.75,0-12.51,3.54-2.12,2.74-2.49,6-2.49,9.39V154.6c0,1.29,0,2.58,0,3.87a2.61,2.61,0,0,1-2.82,2.74C118.85,161.24,113.74,161.22,107.84,161.22Z" style="fill:#fff"/><path d="M660.73,632.4c6.17,0,11.29,0,16.41,0,1.73,0,2.59.87,3.37,2.29,4,7.4,18,6.45,22.86,2.31,2.84-2.43,3.66-5.87,4-9.39.21-2.18,0-4.4,0-7.16-1.5,1.16-2.53,2.07-3.66,2.83-6.57,4.34-13.86,5-21.2,3.17A30,30,0,0,1,659.81,598c-.26-7.58.23-14.92,3.86-22,6-11.57,20.26-18.22,33.14-14.16a26.55,26.55,0,0,1,5.44,2.58c1.71,1,3.25,2.28,5.12,3.62.13-1,.26-1.66.32-2.36.19-2,1.19-3,3.23-2.95,4.05,0,8.1,0,12.16,0,2.34,0,3.33,1.17,3.31,3.4,0,.74,0,1.48,0,2.21,0,19.16.1,38.33,0,57.48-.07,8.14-2.14,15.69-8.54,21.37a29.62,29.62,0,0,1-15.92,7.1c-10.32,1.35-20.61.85-29.94-4.73C665.79,645.86,662.23,640.42,660.73,632.4Zm48.37-37.73a29.82,29.82,0,0,0-3.55-11.7c-3.93-7.58-16.59-9.27-22.33-3.17-5.2,5.52-6.77,15.38-3.36,23.62,2.4,5.78,6.89,8.72,12.76,8.76s11.29-2,13.68-8.17C707.47,601,708.18,597.79,709.1,594.67Z" style="fill:#fff"/><path d="M847.85,99.48V66.79c3.18-1.7,6.35-.73,9.38-.9s5.85,0,9.19,0c.18,1.73.46,3.13.46,4.53q0,42.81,0,85.63c0,5-.22,5.17-5.35,5.23-4.21,0-8.42,0-13.07,0-.23-2.44-.44-4.56-.64-6.73-.28,0-.73-.18-.82-.06-4.4,6-10.79,8.4-17.7,8.68A25.87,25.87,0,0,1,811,156.94c-5.7-4.9-8.75-11.34-10.41-18.39a47.7,47.7,0,0,1,3-31.72c4.84-10.52,17.61-20.06,33.51-15,2.7.85,5,3,7.43,4.62A34.83,34.83,0,0,1,847.85,99.48Zm.66,27.38c-.61-4-.81-7.92-1.85-11.58-1.38-4.88-4.6-8.41-9.91-9.17-6-.84-11.6-.21-14.78,5.82-5,9.55-5.11,19.31-.44,29.06a9.58,9.58,0,0,0,6.55,5.53c7.88,1.63,15-.38,18.39-9C847.78,134.17,847.87,130.37,848.51,126.86Z" style="fill:#fff"/><path d="M601.52,631.49c-.18-2.89-.32-5-.48-7.67-.87.79-1.55,1.3-2.1,1.92-10,11.55-27.4,9.39-36.9-.09-5.46-5.46-8.19-12.31-9.19-19.61-1.22-8.93-1-17.93,2.52-26.55,4.4-10.81,12.38-17.3,23.85-18.75a21.27,21.27,0,0,1,17.38,5.36l3.71,3.4c0-9.3,0-17.93,0-26.56,0-7.36-.8-6.93,6.74-6.92h11.74a27.62,27.62,0,0,1,.5,3.57q0,43.63,0,87.26c0,.55,0,1.11,0,1.66.09,2-.77,3-2.91,3C611.64,631.45,606.88,631.49,601.52,631.49Zm-29.83-34.68a56,56,0,0,0,0,6.61c.5,4.27,1.86,8.34,5.24,11.17,7.15,6,18.93,2.46,22.23-6.47a32.4,32.4,0,0,0,0-22.59c-2.1-6-6-9.1-12.14-9.4-6.26-.3-10.46,2.27-13.23,7.81C571.75,588,571.4,592.37,571.69,596.81Z" style="fill:#fff"/><path d="M86,625.1c0,7,0,13.75,0,20.52,0,9.2.89,7.78-8,7.87-3.45,0-6.9,0-10.21,0-1-4.82-1.34-79.16-.55-89.92,3.61-1.23,11.22-1.4,17.57-.33.14,2,.29,4.2.47,6.79,1.09-1,2.06-1.66,2.85-2.52,7.11-7.75,20.53-9.43,31-3.42,9.11,5.22,13.62,13.59,15.17,23.18,1.4,8.62,1.6,17.61-1.85,26.13-3.55,8.75-8.9,15.85-18.47,18.25s-19,1.8-26.62-5.88A6.28,6.28,0,0,0,86,625.1Zm30.26-28.6c-.61-3.46-.88-7.35-2-11A13.78,13.78,0,0,0,100.32,576a14.35,14.35,0,0,0-12.82,9.58,35.12,35.12,0,0,0-.7,20.62c2,7.8,6.77,11,15,10.88,6.61-.09,11.2-3.45,12.82-9.86C115.44,603.88,115.68,600.38,116.26,596.5Z" style="fill:#fff"/><path d="M802.79,602.62H754.27c.18,6,2.52,10.44,7.11,13.21,5.36,3.24,11.26,3.09,17,.78a6.63,6.63,0,0,0,3.12-3c1.62-3.13,4.1-3.77,7.32-3.59,4.17.23,8.35.14,13,.2-1,6.27-3.61,11-7.85,14.66-5.9,5.05-12.82,7.94-20.72,7.73a85,85,0,0,1-12.57-1c-11.83-2.11-19.33-9.6-23.16-20.54-4.13-11.81-3.42-23.47,3-34.56,5.26-9.15,13.5-14.08,23.46-15.78a32.7,32.7,0,0,1,24.19,5.41,28.4,28.4,0,0,1,8.4,9.34C801.37,583.57,803,592.45,802.79,602.62Zm-20.31-13.69c0-7.82-5-13.33-12.17-13.8-8.61-.57-14.51,4.57-15.6,13.8Z" style="fill:#fff"/><path d="M243,131.57h-48.2c-.94,3.93,1.36,6.56,2.7,9.41a10.94,10.94,0,0,0,6.5,5.65c6.32,2.25,14.71,2.45,19.16-4.83a3.78,3.78,0,0,1,2.59-1.71c5.28-.16,10.57-.08,16.27-.08a19.27,19.27,0,0,1-3.8,10c-5,6.6-11.6,10.92-19.73,12.06-10.41,1.46-20.48.38-29.47-6.06a28.9,28.9,0,0,1-9.9-12.31c-5.67-13.5-5.18-26.83,2.92-39.43a29.68,29.68,0,0,1,20.63-13.42C212,89.26,221,90.15,229,96a30.34,30.34,0,0,1,9.13,10.9A45.45,45.45,0,0,1,243,131.57ZM223.57,118c-1.89-10.55-7.94-13.17-13.79-13.12-8.65.07-12.73,3.72-14.92,13.57C200.89,119.36,219.28,119.14,223.57,118Z" style="fill:#fff"/><path d="M926.66,625.07c-9.14,10.06-26.06,8.87-34.2,4.23-6.89-3.92-10.53-12.28-9.66-20.11,1-9.09,6.26-14.36,14.42-16.84,6.28-1.91,12.85-2.85,19.28-4.31a33.76,33.76,0,0,0,6.29-1.87c4.38-1.95,4.85-6.68,1.11-9.66-4.59-3.64-14.45-3.37-18.6.64a6.36,6.36,0,0,0-1.79,3.26c-.44,2.87-2.13,3.51-4.68,3.44-3.68-.12-7.37,0-11.06-.08a5.75,5.75,0,0,1-1.48-.44c-.7-8.35,5.13-16.26,13.07-19.75,7.49-3.3,15.3-3.76,23.24-2.73a36.69,36.69,0,0,1,7.95,2.09c9.68,3.59,13.71,11.13,13.89,21,.17,9.39,0,18.8,0,28.2,0,6.2-.51,12.46,2.35,19.06-5.71,0-10.82.13-15.92,0a3.67,3.67,0,0,1-2.5-1.69A26.13,26.13,0,0,1,926.66,625.07Zm-.24-27c-4.53,1.17-8.55,2.14-12.53,3.25a77.81,77.81,0,0,0-8.34,2.67c-3.48,1.42-4.63,4.29-4.55,8,.07,3.33,1.39,5.91,4.42,6.88a17.31,17.31,0,0,0,17.8-3.77,10.13,10.13,0,0,0,3.07-5.6C926.78,605.92,926.42,602.25,926.42,598.07Z" style="fill:#fff"/><path d="M520.45,113.15c.19-8.39,3.93-14.19,10.49-18.48,4.3-2.81,9.15-3.79,14.1-4.22a47.79,47.79,0,0,1,17,1.08c7.47,2.08,13.41,6.17,15.5,14.12a46.68,46.68,0,0,1,1.71,10.79c.23,10.49,0,21,.11,31.49,0,3.82.41,7.63.67,12-1,1.21-3,.4-4.7.48-2.76.13-5.52,0-8.29,0-3.87,0-4.11.21-5.4-3.93-.15-.48-.38-.93-.61-1.49-8.9,8-19,9-29.9,5.6-8.45-2.66-13.58-9.6-13.93-18.47-.39-9.54,4.51-16.78,13-19.62,6-2,12.43-3,18.66-4.53a65.53,65.53,0,0,0,8.49-2.15,4.94,4.94,0,0,0,2.21-8,9.6,9.6,0,0,0-4.31-3.24,19.31,19.31,0,0,0-11.91.1c-2.92,1-5.29,2.78-5.79,6.06-.33,2.2-1.57,2.51-3.46,2.47C529.67,113.09,525.31,113.15,520.45,113.15Zm40.89,14.47c-5.67,1.42-10.85,2.55-15.92,4a29.82,29.82,0,0,0-7.4,3.38c-3.06,1.92-3.21,5.17-2.67,8.36a6.19,6.19,0,0,0,6,5.44,42.08,42.08,0,0,0,9.76-.64c6.58-1.16,9.85-6.83,10.18-12.63C561.46,133,561.34,130.48,561.34,127.62Z" style="fill:#fff"/><path d="M280.5,598c-.26-10.75,2.85-19.36,9.49-26.2,8.72-9,19.54-12.46,32.1-10.59a35,35,0,0,1,19.09,9.09,33.83,33.83,0,0,1,10.54,20.59,39.16,39.16,0,0,1-2,20c-4.42,11.78-13,18.85-25.15,21.61a36.39,36.39,0,0,1-24.63-2.94c-12.43-6.07-18.3-16.42-19.4-29.86A9.69,9.69,0,0,1,280.5,598Zm52.69-.63c-.4-4.92-.71-9.62-3.05-14-5.46-10.32-20-11.19-26.46-1.45-4.52,6.85-5.08,14.44-3.34,22.2a25.18,25.18,0,0,0,3.49,8.59,14,14,0,0,0,13.88,6.22A15.52,15.52,0,0,0,331,608.62C332.33,605.1,332.5,601.13,333.19,597.36Z" style="fill:#fff"/><path d="M911.32,162.61c-21.26.76-35.77-15.92-35.66-35.8.11-22.26,15.72-36.37,35.91-36.38,21,0,35.76,15.09,36,36.34C947.74,147.34,931.57,163.93,911.32,162.61Zm-16.54-38.45c-.28,7.69,1.15,12.56,3.6,17.2a10.76,10.76,0,0,0,6,5.47c9.76,3.26,17.87,1.14,21.93-8.64a30.23,30.23,0,0,0-.11-23.68c-5.16-12.44-20.54-11.75-26-4.9C896.08,114.66,895.18,120.48,894.78,124.16Z" style="fill:#fff"/><path d="M361.15,126.2c-.74-9.18,2.73-17.12,8.39-24.22,4.15-5.22,10-8.36,16.13-10.1,9.81-2.78,19.71-2.14,28.81,3,11.06,6.22,16.93,15.87,17.89,28.53.71,9.29-1.17,17.88-6.7,25.52-6.11,8.42-14.6,12.72-24.76,13.57a47.84,47.84,0,0,1-14.76-1c-14.26-3.22-25-18.21-25-31.31Zm18.92.3a47,47,0,0,0,.31,6.06c1.67,9.36,6.45,16.66,18.18,15.56,4.38-.41,7.88-2,10.21-5.54,6.29-9.62,6.25-19.72,1.31-29.79-2.76-5.63-7.69-8.17-14-7.92s-10.71,3.24-13.57,8.78C380.44,117.71,380,122,380.07,126.5Z" style="fill:#fff"/><path d="M212.42,592.53c-.28,17.71-5.09,28.46-16.34,35.42-8.93,5.51-18.77,6.53-29.12,4.23-14-3.11-24.13-16.24-26-29.57-1.7-12,1.45-22.32,9.52-30.88,9.78-10.38,22.07-13.21,35.83-9.73C203.93,566.46,212.79,582.23,212.42,592.53Zm-52.88,4.13c.6,3.68.94,7.34,1.84,10.85,1.56,6,7.56,11.14,13.39,11.43,6.75.34,12.37-2,15.44-8.36,4-8.32,4.17-16.88.85-25.54-2.12-5.5-8.37-10.53-15.61-10a15.78,15.78,0,0,0-14,11.31C160.37,589.66,160.14,593.18,159.54,596.66Z" style="fill:#fff"/><path d="M524.88,631.38v-6.19q0-16.29,0-32.59c0-1.11,0-2.21,0-3.32-.12-7.52-4.6-11.37-9.8-11.95-6.74-.76-12.62,3.16-14.16,9.55a37.19,37.19,0,0,0-1,8.14c-.11,10.12,0,20.25-.05,30.38,0,1.79-.15,3.58-.26,5.93-5.65,0-10.94,0-16.22,0-1.52,0-2.27-1.09-2.4-2.53-.09-.91-.07-1.84-.07-2.76q0-29.55,0-59.11c0-1.24.21-2.48.34-4h18.3c.12,2.58.24,5.08.38,8,3.76-4.51,7.76-8.08,13.37-9.66A23.51,23.51,0,0,1,541,573.73a29.49,29.49,0,0,1,2.94,12.78c0,13.07,0,26.14,0,39.22,0,.73,0,1.47,0,2.21,0,2.22-.94,3.46-3.28,3.45C535.66,631.37,530.71,631.38,524.88,631.38Z" style="fill:#fff"/><path d="M830.34,631.22h-18.2a14,14,0,0,1-.71-3.07q0-31.78,0-63.55a11.63,11.63,0,0,1,.37-1.65c1.39-.1,3-.31,4.53-.33,3.32-.06,6.64-.08,9.95,0s3.65.42,4,3.85c.1,1.06,0,2.15,0,4l3.89-3.75c10.53-10.18,29.76-8.72,37.33,7.57a24.18,24.18,0,0,1,2.12,9.57c.22,14.55.13,29.1.09,43.65,0,3.67-.13,3.74-3.71,3.82s-7.37.08-11.05,0-4.12-.59-4.14-4.24c-.07-11,0-22.1,0-33.15,0-2,0-4,0-6.08,0-4.44-1.82-7.86-6-9.67a11.78,11.78,0,0,0-12,1.08,14.08,14.08,0,0,0-6.32,12.2c0,11.24,0,22.48,0,33.71Z" style="fill:#fff"/><path d="M952.83,138.89c.43-.25.9-.76,1.37-.76,4.94-.06,9.89,0,14.57,0,.48.6.82.84.92,1.16,2.17,7.29,6.14,9.87,14.51,9.88,3.15,0,6.26-.07,9-1.87,4.07-2.64,4-8-.32-10.2a33.71,33.71,0,0,0-6.77-2.2c-6.55-1.71-13.22-3-19.67-5.06-9-2.79-13.58-11.89-12.14-20.45s6.21-14.41,14.59-17c10.37-3.19,20.61-3.32,30.52,1.74,6.7,3.42,10.41,9.1,12.1,16.24.58,2.47-.09,3.29-2.82,3.36-3.68.1-7.37,0-11,0-2,0-3.17-.74-3.55-2.68-1.07-5.4-5.24-6.75-9.81-7.13-3.25-.27-6.6-.53-9.73,1.16a6.31,6.31,0,0,0-3.75,5.62c-.14,2.75,1.57,4.11,3.75,4.81,3.12,1,6.35,1.65,9.54,2.45,5.15,1.3,10.38,2.34,15.43,4,8.87,2.86,13.09,9.1,13.55,18a21,21,0,0,1-13.25,20.33,43.78,43.78,0,0,1-31.74,0C958.6,156.73,953.19,149.05,952.83,138.89Z" style="fill:#fff"/><path d="M357.31,609.05H374a18,18,0,0,1,1.45,3.06c1.24,4.26,4.56,5.9,8.41,7a17.13,17.13,0,0,0,12.84-1c2.51-1.24,4.33-2.78,4.29-5.79a7,7,0,0,0-5-6c-3.89-1.06-7.91-1.6-11.81-2.62-4.94-1.29-9.91-2.59-14.7-4.35-9.61-3.51-11.95-14.31-9.76-22.54,2.12-8,7.84-12.33,15.14-14.63a38.53,38.53,0,0,1,27.45,1.13c8.62,3.71,12.75,10.63,14.11,19.79-2.62,1.4-5.4.62-8.06.75s-5.5,0-8.48,0c-.41-1.16-.76-2.14-1.1-3.13a8.85,8.85,0,0,0-5.07-5.54,17.44,17.44,0,0,0-15.45.73,5.4,5.4,0,0,0,.09,9.44,38,38,0,0,0,8.36,2.56c5.17,1.22,10.44,2,15.56,3.44,7.8,2.13,13.31,6.84,15.22,15,2.16,9.26-3.49,19.78-11.49,23.33a41,41,0,0,1-34.65,0C362.83,626.06,357.83,619.44,357.31,609.05Z" style="fill:#fff"/><path d="M952.54,608.68c5.23,0,10.13-.08,15,.08a3.24,3.24,0,0,1,2.32,1.69c1.47,3.48,3.12,6.63,7.05,7.94,4.25,1.43,8.49,2.45,12.88.68a16.56,16.56,0,0,0,3.41-1.66c4.3-3.06,4-8.42-1-10.37-3.87-1.54-8.12-2.14-12.2-3.19-4.78-1.23-9.7-2.1-14.29-3.84a18.38,18.38,0,0,1-11.55-19.86,19.69,19.69,0,0,1,11.36-15.94c11.68-5.67,23.57-5.44,34.94.78,6.85,3.74,10.51,10,11.1,17.94-2.35.8-13.4,1.66-15.2.85a4.64,4.64,0,0,1-2.3-2.68c-1-4-3.75-5.9-7.42-6.47a36.17,36.17,0,0,0-9.29-.31,9.27,9.27,0,0,0-4.72,2.62c-3.2,3-2.47,7.43,1.64,8.81,4.49,1.5,9.22,2.3,13.83,3.46,5.66,1.43,11.36,2.43,16.61,5.5,10.08,5.92,10.11,20.81,5.1,27.87a22.37,22.37,0,0,1-11.22,8.6c-11.49,3.79-22.82,3.54-33.67-2.11C957,624.93,953,618.14,952.54,608.68Z" style="fill:#fff"/><path d="M246.73,606.72c4.33-13.66,8.55-27,12.74-40.25,1.17-3.73,1.11-3.81,4.81-3.86,4.76-.06,9.53,0,15,0-.94,3.07-1.64,5.63-2.51,8.14q-9.56,27.57-19.18,55.12c-.24.69-.51,1.37-.71,2.08-.68,2.44-2.09,3.66-4.81,3.51-3.31-.2-6.63,0-10-.06-4-.07-4.16-.15-5.54-4-3.54-9.85-7-19.74-10.48-29.6-3.88-10.89-7.83-21.76-11.72-32.64a9,9,0,0,1-.12-2,27.4,27.4,0,0,1,3.63-.53c3.68-.07,7.37-.06,11.06,0,4,0,4,.13,5.22,4.12C238.33,580,242.5,593.22,246.73,606.72Z" style="fill:#fff"/><path d="M610.28,113.43q0,21.3,0,42.58c0,4.75-.31,5.06-4.91,5.14-3.31.06-6.64.09-10,0-3.6-.11-3.93-.53-4.07-4.3,0-.74,0-1.48,0-2.22q0-41.48,0-82.95c0-6.5,0-6.51,6.3-6.53,3,0,5.91-.09,8.85,0,3.23.13,3.65.64,3.79,4,.05,1.29,0,2.58,0,3.87Q610.29,93.25,610.28,113.43Z" style="fill:#fff"/><path d="M441.33,92.72h18.25c.14,2.77.28,5.42.43,8.31,1.42-1.62,2.68-3,3.83-4.38,3.74-4.66,8.73-5.79,14.36-5.24,1.41.13,2.64.45,2.66,2.13.05,4.74,0,9.48,0,14.48a62.08,62.08,0,0,0-7,.54c-8.64,1.7-13.65,8.17-13.79,18-.14,9.58,0,19.17-.06,28.75,0,1.79-.16,3.58-.28,5.9-5.49,0-10.6,0-15.72,0a2.64,2.64,0,0,1-2.85-2.72c-.07-.91,0-1.84,0-2.76q0-29.58,0-59.17C441.11,95.48,441.23,94.41,441.33,92.72Z" style="fill:#fff"/><path d="M490,161.15c-.93-6.3-.76-64.81.21-69.47,4.41,0,8.94-.05,13.47,0,4.26,0,4.58.39,4.63,4.82s0,8.83,0,13.24q-.06,24-.13,47.92c0,2.62-.55,3.38-3.08,3.45C500.22,161.24,495.28,161.15,490,161.15Z" style="fill:#fff"/><path d="M649.83,631.16H632.12c-.25-3-.68-5.9-.69-8.75-.06-17.88,0-35.76,0-53.64,0-.55,0-1.1,0-1.66.17-4,.51-4.44,4.44-4.5,4.57-.06,9.15,0,13.6,0C650.49,566.63,650.8,625.56,649.83,631.16Z" style="fill:#fff"/><path d="M468.7,562.93c.09,1.92.22,3.36.22,4.81q0,29,0,58c0,1.11,0,2.21,0,3.32a2.14,2.14,0,0,1-2.45,2.3h-15.6V562.93Z" style="fill:#fff"/><path d="M663.05,535.37c-2.31,3.06-3.91,5.2-5.53,7.33-2.43,3.19-4.78,6.46-7.38,9.52a7.11,7.11,0,0,1-3.92,2.6,69.13,69.13,0,0,1-9.87.09,1.84,1.84,0,0,1-1.82-2.66q2.79-7.71,5.89-15.32a2.92,2.92,0,0,1,2-1.63C648.92,535.05,655.42,535,663.05,535.37Z" style="fill:#fff"/><path d="M489.66,81.92V65.28c5.63-.31,11.09-.2,16.53,0a3,3,0,0,1,2,2.16c.19,4.71.09,9.44.09,14.45Z" style="fill:#fff"/><path d="M450.73,552.84c0-5.4-.12-10.12.1-14.84a3.52,3.52,0,0,1,2.25-2.53c4.39-.27,8.8-.23,13.21-.12a2.59,2.59,0,0,1,2.63,2.92q0,6.06,0,12.12c0,2-1.21,2.46-2.88,2.45Z" style="fill:#fff"/></svg>