<svg xmlns="http://www.w3.org/2000/svg" viewBox="0 0 1080 1080"><path d="M1076.13,478a457.84,457.84,0,0,0-16-76.78c-5.65-18.54-12.32-36.83-19.58-54.82a435.55,435.55,0,0,0-48.3-88.52c-9.9-14-20.38-27.63-31.08-41A377.18,377.18,0,0,0,919,172.17c-7.58-6.83-15-13.78-22.77-20.45a477.75,477.75,0,0,0-55.46-41c-18.45-11.8-37.22-23.12-57.33-31.91-19.52-8.53-39-17.29-59-24.68C697.15,44,668.83,37.17,640.16,32,609,26.47,577.66,23.22,546,23.59c-20.24.23-40.5-.26-60.64,2.12C470.82,27.42,456.25,29,442,31.88c-21.23,4.27-42.41,9-63.28,14.72-21.76,6-42.79,14.25-63.47,23.36A528.93,528.93,0,0,0,260,98a544.47,544.47,0,0,0-56.45,37.87c-16.64,12.85-32.91,26.15-47.65,41.12-13.23,13.43-26,27.36-38.44,41.51-15.09,17.13-28.05,35.9-40.25,55.16a515.14,515.14,0,0,0-38.32,73.76,483.09,483.09,0,0,0-27.7,87.9C6,458.88,2.36,482.76,1.17,507A8.71,8.71,0,0,1,0,509.65v54c.41,3.15,1,6.29,1.2,9.45a467.07,467.07,0,0,0,9.19,67c5.44,26.43,12.42,52.47,22.64,77.43,8,19.51,17.11,38.58,26.45,57.49,9.86,20,22.15,38.56,35.13,56.62a529.42,529.42,0,0,0,71.65,80.67,544.72,544.72,0,0,0,93.88,69.19,551.53,551.53,0,0,0,172.66,64.57,538.23,538.23,0,0,0,72.15,9.15l16.82,1.13h36.45l16.84-1.12c19.73-2.32,39.55-4.11,59.19-7.07a499.74,499.74,0,0,0,85.24-21.12,550,550,0,0,0,70.79-29.58c29.87-15,58.34-32.28,84.63-53,13.14-10.33,26-21,38.52-32.14,27.08-24,50.71-51.19,71.82-80.52a508.1,508.1,0,0,0,48.94-84A495.26,495.26,0,0,0,1076.13,478Zm-35.06,113.58A480.24,480.24,0,0,1,1024.78,671c-8.86,30.41-21.24,59.31-36.06,87.28a468.59,468.59,0,0,1-49.46,74.56,483.39,483.39,0,0,1-73.52,73.43,505,505,0,0,1-100.66,63.41,521.51,521.51,0,0,1-61.55,24.67,529.37,529.37,0,0,1-87.79,20.55c-25.17,3.7-50.51,5.45-69.43,5.36-46.58,0-86.11-4.56-125.17-13.54a516.58,516.58,0,0,1-123.49-45.68A502.89,502.89,0,0,1,217,908.57a491.65,491.65,0,0,1-63.32-60.37,481.42,481.42,0,0,1-59.37-84A456,456,0,0,1,66.29,704.1a478.26,478.26,0,0,1-23.23-84.65A457.35,457.35,0,0,1,36.58,516c1-20.67,3-41.29,7.6-61.49,4.49-19.7,9-39.44,15-58.73,8.17-26.56,19.69-51.81,32.92-76.28a493.16,493.16,0,0,1,37.38-58.33,477.75,477.75,0,0,1,57.39-64.25,497.23,497.23,0,0,1,94.37-69.71,508.12,508.12,0,0,1,80.92-37.35,532,532,0,0,1,88.54-23.19,477.79,477.79,0,0,1,84.52-7.51c20.77.11,41.57,1.39,62.27,3.15C623,64.51,648.13,69.66,673,76.05A510,510,0,0,1,862,170a492.18,492.18,0,0,1,78.68,78.24,475.93,475.93,0,0,1,58.12,92.44,447.19,447.19,0,0,1,24,60.7c11.3,36.65,18.54,74.1,20.58,112.44A461.75,461.75,0,0,1,1041.07,591.61Zm-673.3,185c-14.76-2.12-28.2,1.1-39,12.1-11.06,11.26-15.05,25.48-16.83,40.6l-.15,24c1.67,8.45,2.52,17.17,5.19,25.29,3.81,11.62,11,21.13,22.35,26.7,18.92,9.28,50,6.63,62.34-24.42,9.08-22.94,9.25-46.61,2.33-70.09C398.65,792.71,387.71,779.49,367.77,776.64ZM374,874.16a26.48,26.48,0,0,1-3.84,7.41c-6,7.63-16.24,6.87-21.52-1.32-3.83-5.92-5.44-12.59-6.19-19.39-1.63-14.8-2-29.65,1.84-44.19a34.89,34.89,0,0,1,6-12.59c6.06-7.63,15.9-6.43,21,1.87,3.64,5.9,5,12.48,5.82,19.18.7,5.9.83,11.86,1.22,17.8C378.08,853.53,377.73,864.08,374,874.16Zm290.76-24.3c.15,18.32.07,36.65.06,55,0,.78-.08,1.56-.14,2.65h-30.2v-3.64c0-17.08.06-34.17-.1-51.26a35.41,35.41,0,0,0-1.62-9.89c-1.67-5.42-5.2-9.07-11.22-9.74-6.8-.75-12.12,1.55-15.78,7.4-.82,1.32-1.47,2.76-2.19,4.14-.28,5.14-.75,10.29-.78,15.43-.11,14.94,0,29.88-.06,44.82a13.7,13.7,0,0,1-.59,2.77H572.35V810.36h25.51c.52,4.25,1,8.51,1.51,12.3,4.46-3.48,8.57-7.55,13.43-10.28,10.34-5.81,21.42-5.93,32.16-1.26,10.9,4.74,16.23,14.15,18.49,25.36A71.52,71.52,0,0,1,664.8,849.86ZM756.15,812c-15.49-6.15-31.08-5.35-46.16,1.59a42,42,0,0,0-20.65,20.07,58,58,0,0,0-5.54,31.16c1.25,14,6.35,26.11,17.85,34.9a50.26,50.26,0,0,0,26.11,9.9c12.67,1.24,24.69-.91,35.48-7.87,15.74-10.13,21.68-25.36,21.87-37.4C785.24,836.52,774.73,819.32,756.15,812Zm-11.26,72.23c-8.75,6.86-20.43,4.19-25.69-5.75-1.6-3-2.47-6.46-3.68-9.7h0q0-9.45-.1-18.89c1.79-4.32,2.9-9.11,5.51-12.86,7.73-11.17,22.69-9.52,29,2.86.76,1.5,1.38,3.07,2.07,4.61l1.29,3.76-.15.12.07.18,1-.65-1,.65a61.75,61.75,0,0,1-1.34,25.56l.06,0c-.41.93-.82,1.87-1.22,2.81C748.77,879.33,747.27,882.31,744.89,884.18ZM548.05,844c-1-17.66-10.16-30.83-28.81-34.55-15.63-3.12-30.87-1.16-45.64,4.6-5.88,2.29-5.81,2.47-3.94,8.91.22.75.43,1.51.65,2.26,1.06,3.58,2.11,7.16,3,10.23,6.27-1.95,11.94-4.1,17.8-5.43,6.27-1.43,12.71-1.82,19,.46,5.65,2.05,8.09,5.91,7.69,11.66-9,1.26-17.9,1.92-26.51,3.82-15.74,3.47-28,13.08-30,30-1.43,11.93,4.55,24.42,14.8,29.84,14.3,7.56,31.43,4.94,43.18-6.57a11.43,11.43,0,0,1,1.56-1c.7,3.37,1.32,6.39,2,9.42h26.91c-.3-5.85-.75-11.45-.85-17C548.53,875,548.9,859.42,548.05,844Zm-29.73,33.3c-1.66,8.73-14.21,14-22,9.71-7.51-4.17-7.21-15.93.67-20.81,6.58-4.07,14-4.42,22.31-4.26C519,867.26,519.25,872.37,518.32,877.25ZM218.82,702.73c2.36,8.53,4.64,17.09,7.09,25.59.29,1,1.41,2.43,2.19,2.46,5.34.22,10.7.12,16.41.12-.82-2.54-1.6-4.62-2.16-6.75-3.14-11.82-6.09-23.69-9.37-35.48-2.22-8-6.13-15-13.4-19.55-1.39-.87-2.87-1.6-4.93-2.74,1.75-.77,2.94-1.28,4.11-1.82,7.58-3.49,13.78-8.64,17.46-16.17,10.9-22.33-.92-46-25.28-50.93-16.77-3.36-33.52-2-50.28.26-2.77.37-3.35,1.45-3.35,4.07q.12,62.57.06,125.14v3.77h17.46V673.26c7.69,0,15-.63,22.21.15,9.11,1,14.87,6.91,17.8,15.42C216.4,693.39,217.54,698.08,218.82,702.73Zm-10-47.08a64.15,64.15,0,0,1-15.92,3.59c-5.77.61-11.65.14-18,.14-.08-1.33-.2-2.3-.2-3.28,0-14,.06-28.07-.06-42.11,0-2.59.53-3.74,3.35-4,9.86-1,19.65-1.83,29.25,1.65,9.78,3.54,15,10.94,15.37,21.8C223,643.15,217.69,652.29,208.85,655.65ZM733.27,768.31c.16.63.79,1.63,1.22,1.64,5.33.11,10.67.07,16.23.07V718.69c5.58,6.6,11.94,11.32,20.28,13,16.23,3.2,30.51-.3,41.43-13.22,14.35-17,16.13-47,4.71-66.68-13.71-23.57-43.87-24.62-59.87-10.08-2.83,2.57-5.22,5.65-8.11,8.82-.22-4.72-.33-9.08-.7-13.42-.07-.92-1-2.51-1.65-2.54-4.66-.21-9.34-.12-13.71-.12,0,6,0,11.63,0,17.21q0,57,.11,114A11.47,11.47,0,0,0,733.27,768.31Zm18.13-97.4c1.85-13.55,12.32-23.45,25.16-24.63,10.82-1,22,5.75,26.53,16.87a46.26,46.26,0,0,1,3.66,19.37c0,8.21-1.57,16-5.66,23.27-8,14.19-27.65,17.86-40.15,7.43-6.09-5.08-9.76-11.57-10.06-19.46C750.58,686.15,750.37,678.42,751.4,670.91ZM447.52,714.85a5.37,5.37,0,0,0,.09-.67q0-61.12-.05-122.26a7.72,7.72,0,0,0-.89-2.43l-1.77,0-1.4,0H429.78v56.4c-2.75-2.56-5.17-5.42-8.15-7.47-16.89-11.64-42-6.81-54,11-13.41,20-14,41.34-3.35,62.64,5.21,10.44,13.87,17.65,25.79,19.83,13.31,2.44,25.53.3,35.49-9.63,2.16-2.16,3.82-4.82,6.2-7.89.26,5.89.5,11.08.73,16.31h15.91c-.31-5.47-.61-10.62-.9-15.76Zm-18.91-15.54c-2.21,10.34-10.93,17.6-22.19,19.27-9.74,1.45-20.11-3.16-24.95-11.93-9.23-16.76-8.58-33.61,1.31-49.86,5.24-8.62,16.41-12.42,27-10.14a25.11,25.11,0,0,1,19.47,20.82c.76,4.85.67,9.84,1.07,16.38C429.91,688,429.79,693.76,428.61,699.31Zm440.3,165.76c7.17,13.73,2.45,30.8-11.4,38.2-19.42,10.4-39.15,7.69-59.16.05l5.08-21.74c4.05,1.48,7.67,2.94,11.38,4.11,6.8,2.13,13.71,3.53,20.88,2.09,3.31-.67,5.91-2.32,6.71-5.8s-.32-6.32-4.16-8.32c-4.16-2.15-8.74-3.5-12.93-5.61-5.19-2.62-10.65-5-15.13-8.62-15-12-11-32.15,1.3-42.18,6.7-5.47,14.49-8,22.92-8.83a65.07,65.07,0,0,1,33.47,5.25c-1.82,7-3.58,13.78-5.39,20.75-2.88-1.09-5.46-2.15-8.1-3a35.86,35.86,0,0,0-16.88-1.84c-3.8.56-6.72,2.7-7.31,5.5-.82,3.86.25,6.39,4.48,8.41,5.05,2.4,10.35,4.27,15.52,6.44C857.9,853.13,864.88,857.36,868.91,865.07Zm-4-149.05h57.51v14.7h-75v-134H919.3v14.45H864.81v42.29h51.56v14.1H864.86ZM270.21,778.28V907.6h-29V805.05l-25,11.72c-.49-1.9-1-3.66-1.41-5.45-1.07-4.71-2-9.45-3.18-14.13-.58-2.28,0-3.36,2.22-4.35,9.94-4.47,19.77-9.17,29.66-13.77a6.4,6.4,0,0,1,2.54-.75C253.94,778.26,261.92,778.28,270.21,778.28Zm423.54-46.72c-15,1.9-29.85,2.13-44.12-3.73-22.09-9.07-34-26.1-37.33-49.32-2.32-16.29-1.28-32.41,6.16-47.43,10.3-20.82,27.56-32.28,50.28-35.72a88.83,88.83,0,0,1,36.7,2.08c.87.23,1.74.48,2.59.76,5.23,1.76,5.22,1.76,3.64,6.94-.9,3-1.77,6-2.59,8.76-5.88-1.42-11.45-3.26-17.15-4-17.51-2.39-33.92.09-47.31,12.88-7.55,7.22-11.7,16.35-13.6,26.54-2.24,12-2.19,23.93,1.52,35.64,4.8,15.13,14.55,25.56,29.86,30.46l3.2,1c8.46,2,17,1.92,25.62,1.15l18.2-4.39c1.09,4.1,2.27,8.51,3.48,13.05C706.73,729.36,700.34,730.72,693.75,731.56Zm-359-3.81c.86-.23,2.13-1.72,2-2.42-.65-3.7-1.69-7.33-2.62-11.08-1.69.59-2.95,1.06-4.23,1.47-11,3.51-22.17,4.67-33.5,1.82-14.58-3.68-22.23-17.27-21.3-31.75H342c1.45-7.18.8-13.88-.59-20.49-2-9.53-5.77-18.28-13.49-24.65-16-13.21-42.49-11-56.53,4.91-13.08,14.79-15.75,32.38-12.3,51.13,3,16.13,12.11,27.65,27.68,33.32,9.69,3.53,19.92,3.41,30,2C322.82,731.14,328.77,729.33,334.72,727.75Zm-23.47-81.12c7.89,3,11.55,9.63,13.42,17.37a78.7,78.7,0,0,1,1.12,8.94H275.21C276.59,653.73,292.15,639.45,311.25,646.63Zm241.89,18.31c-3.78-18.48-15.81-32.34-37-32.73-12.78-.24-24,3.6-32.67,13.22-13.42,14.92-16,32.76-12.43,51.74,2.88,15.14,11.45,26.24,25.92,32.17,10.3,4.22,21.15,4,31.91,2.61,6.06-.82,12-2.7,17.92-4.34a3.38,3.38,0,0,0,1.77-2.76c-.58-3.41-1.58-6.75-2.54-10.53-1.74.59-3.11,1.1-4.5,1.53-10.92,3.39-22,4.54-33.21,1.69-15-3.81-22.65-18.54-21.28-31.83h67.07a68.8,68.8,0,0,0,.52-8.42A89.74,89.74,0,0,0,553.14,664.94Zm-66.45,8c1.55-9.45,4.63-17.87,12.64-23.45,15.6-10.84,34.71-2.61,37.8,16.16.38,2.3.51,4.63.8,7.29ZM475.28,411.53c-2.87-6.11-2.77-12.58-1-18.75,2.72-9.34,6-18.52,9.45-27.64a25.61,25.61,0,0,1,10.76-12.57c4.35-2.75,8.76-5.41,13.15-8.11,6.19-5.06,10.61-5.15,16.76-.34,5.55,4.34,7.19,9.6,3.48,16-9.39,16.12-15.7,33.65-23.68,50.41a27.26,27.26,0,0,1-13,13c-5.61,2.75-9.34,1.68-12.51-3.65C477.17,417.3,476.39,414.32,475.28,411.53Zm-14.06,57.13c-.36-4.68-3.14-9.18-4.82-13.76a.47.47,0,0,0-.23-.58l-2.52-3.4-7.06-6.18-6.73-4.13-10.61-7.9c-1.78-3.16-3.53-6.33-7.31-7.55l-.93-1.91L410.36,416l-6.81-7.6-1.19-2.76h0c-.26-3.57-.67-7.14-.73-10.71-.1-5.73.37-11.49,0-17.19-.29-3.8-1.72-7.52-2.64-11.27h0a13.15,13.15,0,0,0-.39-1.26q-3.88-9.14-7.79-18.26c-2.25-5.26-.93-10.33.93-15.33.73-2,1.73-3.89,2.52-5.87,3.47-8.62,7.49-17.07,6.85-26.79-.3-4.46-.08-9-.1-13.43s0-9-.05-13.48c0-2.72-.07-5.43-.1-8.15h0l-2.54-29.65c-.43-6.5-.94-13-1.28-19.5-.26-5-1.82-9.37-5.43-12.93-2.28-2.08-4.28-4.64-6.88-6.16-12-7-23.68-1.89-25.83,11.33a25.69,25.69,0,0,0,.09,7.68c2.3,15.7,5.86,31.26,5.21,47.28l-.07,1.37q-.37,15.15-.73,30.31c.39-1.13.78-2.25,1.18-3.37.27-.62.69-1.23,1-1.85-.27.62-.69,1.23-1,1.85-.4,1.12-.79,2.24-1.18,3.37-.68,2.25-1.3,4.52-2,6.74a60.38,60.38,0,0,0-2.89,28.16c.75,5.32.6,10.73-1.76,15.79h0l-3.06,4.35-16.78,5.8-1.39.18-1,.3a94.38,94.38,0,0,0-9.66,2.14c-4.83,1.59-9.52,3.57-14.28,5.38a13.7,13.7,0,0,0-1.54.61c-7,3.83-10.65,10.1-12.76,17.42-2.79,9.64-9.15,15.68-18.73,17.84-8.81,2-14,7.56-18.3,15-3.05,5.3-7.1,10-10.47,15.14a28.88,28.88,0,0,0-4,8c-2.08,7.68-.86,15.37,1,22.93,2.37,9.73,6.44,18.61,13.58,25.85l8.79,15.6,10,17h0l1.41,2.69h0l14.48,20.76q2.73,4.73,5.45,9.45c2.24,5.63,5.73,10.19,11.2,13,4,3.18,8.33,5.85,13.55,6.62,2,.58,4,1.55,6.05,1.64,5.18.24,10.37.09,15.55.09h0a7.14,7.14,0,0,0,1.93-.27c6.28-2.66,10.62-7.5,14.38-13,3-4.4,6.17-9.16,5.08-14.52-1.49-7.27-4.25-14.27-6.47-21.38l-.87-2.57q-3.6-7.91-7.21-15.79l-8.14-11.9q-3.6-3.75-7.21-7.51-6.78-7.39-13.55-14.81l-4.83-12.78c-.46-7.91.82-15.41,5.35-22.12,1-.88,2-1.79,3-2.64,7.07-5.91,14.53-11.16,25.4-4.74a5.81,5.81,0,0,0,1.26.41l10.8,5.43,2,.63,1.33.8a19.74,19.74,0,0,1,9.3,10.06c1.18,2.62,2.1,5.37,3.13,8h0q1.44,5.23,2.87,10.48l-.45,9.08c-.16.7-.31,1.4-.47,2.1-2.47,7.06-4.42,14.36-7.54,21.11-3.58,7.75-5.79,15.54-4.7,24.05.24,1.9,1.25,3.71,1.9,5.57-.19-1.37-.39-2.73-.58-4.1l2.46,1.63-2.46-1.63c.19,1.37.39,2.73.58,4.1l.81,4.64c2.08,5.21,5.3,9.36,10.69,11.48-.12-.15-.24-.31-.35-.47-.23-.33-.45-.69-.68-1,.23.34.45.7.68,1,.11.16.23.32.35.47l2.73.48h0l1.07,1,6.95,1.46c2,0,4,0,6-.13,4.34-.29,8.68-.67,13-1l-1.08-.65,1.08.65c2.31-.48,4.65-.83,6.91-1.45,10.16-2.8,17.69-9.55,24.73-16.87,8-8.31,14.73-17.68,16.2-29.3A138.36,138.36,0,0,0,461.22,468.66Zm-78.89,16.2a3.51,3.51,0,0,0,.43.22,3.51,3.51,0,0,1-.43-.22Zm-2.69-38.73a3.69,3.69,0,0,0-.17,1.23A3.69,3.69,0,0,1,379.64,446.13Zm-96,71.34,0-.05ZM584.7,410.66c1.23,2.65,3.48,4.84,5.26,7.24l3.32,2.57.06.16.16,0c6.07,6.31,13.26,5.82,17.16-1.51,3.52-6.59,5.55-13.64,4.62-21.33-1.34-11.15-5.47-21.42-9.72-31.67A30.06,30.06,0,0,0,593,351.66c-3.15-1.92-6.41-3.65-9.62-5.46l0-.05-5.48-3.75a8.11,8.11,0,0,0-8.87-1.25c-7.52,4.13-13,9.38-8.08,19.21.7,1.4,1.41,2.8,2.13,4.18,3.2,6.16,6.63,12.2,9.54,18.49C576.78,392.16,580.48,401.53,584.7,410.66Zm26.88,1.78c.09-.3.19-.6.29-.91-.1.31-.2.61-.29.91Zm30.95,111.49c10.32,11.7,22.49,19.84,38.57,20.75h15.51l5.4-1.24,0,0c4.9-1,8.16-4.12,10.81-8.09.43-1.35.85-2.71,1.28-4.06-.43,1.35-.85,2.71-1.28,4.06a14,14,0,0,0,2.37-2.7,36.82,36.82,0,0,0,3.91-20.19c-.75-9-5.72-16.4-8.94-24.46h0q-2.06-7.43-4.09-14.86c-.05-.42-.09-.84-.14-1.26q1-8.14,1.91-16.28c2.64-6.53,4.64-13.4,9.71-18.68l6-2.82,1.46-.59-.06.06.87-.6.08,0,8.48-4.14a45.46,45.46,0,0,0,4.6-1.92,13.21,13.21,0,0,1,13.12-.19c2.85,1.47,5.61,3.14,8.4,4.72q3.85,6,7.69,12.09h0a30.65,30.65,0,0,1-.71,20.84c-1.44,3.6-3.42,7-5.15,10.46h0l-1.92,2.37h0c-1.18,1-2.42,1.93-3.53,3-3.52,3.45-7,6.95-10.49,10.43q-5.33,7.56-10.67,15.11L729,520.44q-1.69,5.09-3.4,10.16c-1.79,5.61-4.55,11.07-3.55,17.19,1.3,8,6.2,14,11.79,19.48,6.09,6,13.35,6.54,21.16,5l9.72-1.9a30.39,30.39,0,0,0,14.73-7.45l.36-.58.26,0,.22-.16a17.89,17.89,0,0,0,8.63-10.77L791.2,547l17.27-24.54,3-5.85,1.5-2.73-.06,0h0l9.83-16.41c.55-.83,1.14-1.64,1.65-2.5,2.42-4.12,4.83-8.27,7.24-12.4a33.51,33.51,0,0,0,3.67-4.28A68.44,68.44,0,0,0,845,445.76c.28-5.74-.63-11.38-4.17-16.31-4.05-5.63-8.26-11.2-11.74-17.18-4.26-7.31-9.84-12.25-18.3-14-5-1.07-9.8-3.37-12.75-7.63A61.07,61.07,0,0,1,791.86,378c-2.59-6.61-6.29-12.1-12.88-15.25-6.17-2.17-12.32-4.44-18.54-6.46-2.86-.93-5.87-1.39-8.82-2.06l-12.81-3.63-.25.1.23-.14-4.27-2.6a.41.41,0,0,0-.42-.41c-3.07-3.14-3.86-7.17-4.15-11.3a28.42,28.42,0,0,1,.25-6.71c2.18-12.84-1.38-24.86-5-36.9-.3-3.27-.61-6.53-.91-9.8.09-.63.18-1.25.28-1.88q.2-6.14.41-12.28a8.34,8.34,0,0,0,.4-1.87c-.08-6.59-.21-13.17-.33-19.76l.17-2,.19-1.38h0c.28-2.23.55-4.47.82-6.7.92-5.87,1.93-11.73,2.7-17.62a63.07,63.07,0,0,0,.88-11.69c-.4-7-4.64-12.36-10.52-14.13-6-2.74-11.14-.56-16,2.87a.79.79,0,0,0-.59.28l-.59.46-.07.06a12.71,12.71,0,0,0-1.68,1c-7.54,6-9.65,14.09-9,23.25h0c-.33,3.34-.75,6.68-1,10-.7,9.94-1.32,19.89-2,29.83-.06.71-.11,1.41-.17,2.12-.15,1.55-.42,3.1-.43,4.65q-.08,17.11,0,34.22a13.26,13.26,0,0,0,.45,4c2.14,6.69,4.25,13.4,6.65,20,2.62,7.19,6.88,14.1,2.6,22.06l-6.1,14.2,5.3-1.35-5.3,1.35q-1.72,5.4-3.46,10.8l-.6,5.4h0c0,.45,0,.9,0,1.36l.13.22-.13-.22a.66.66,0,0,0,0,.65h0c0,1.59,0,3.18,0,4.77h0c0,1.23-.11,2.46-.09,3.69.09,6.72.48,13.47-2.1,19.91a.52.52,0,0,0-.26.52l-1.78,2.79,1.39-.22-1.39.22-5.39,4.06L675,418l-2,1.19-.79.55,1,.51-1-.51-9.49,8.86c-1.18,1.33-2.37,2.66-3.55,4l4.62-2-4.62,2-3.87,4.74,0,0,0,0c-.95.47-1.93.91-2.86,1.42-2.71,1.49-5.4,3-8.09,4.51l0,.05h0l-7.19,5.47h0l-.07.08c-2,2.81-4.86,5.34-5.93,8.48a78.65,78.65,0,0,0-4.19,18c-.92,9.73-.6,19.54,3.05,28.85A66.89,66.89,0,0,0,642.53,523.93Zm66.69-37.06c-.17-.2-.34-.4-.49-.61C708.88,486.47,709.05,486.67,709.22,486.87Zm61.56-40.23a5.19,5.19,0,0,1,0,.78A5.19,5.19,0,0,0,770.78,446.64Zm-8.06,28.52.06.08h0c0,.67,0,1.34,0,2,0-.67,0-1.34,0-2Zm-7,22.83h0c-.19-.08-.42-.26-.55-.21C755.34,497.73,755.57,497.91,755.76,498Zm-1.16,73.8h0l1.87-.95Zm36.52-27h0c0,.22,0,.45,0,.67C791.11,545.2,791.11,545,791.12,544.75Zm-96.3-326.88c-.65-.59-1.69-1.26-2.33-1.86h0C693.13,216.61,694.17,217.28,694.82,217.87ZM655.43,439.49a1.16,1.16,0,0,0,.54-1.19A1.16,1.16,0,0,1,655.43,439.49Zm.49-1.33a2.36,2.36,0,0,0-.21-.36A2.36,2.36,0,0,1,655.92,438.16ZM185.36,282.89c7.36,9.12,15,18,22.57,27l1,.47-1-.47,8.81,16.21,1.3,0c.31-.7.58-1.42.88-2.14-.3.72-.57,1.44-.88,2.14l-1.3,0q7,12.92,14,25.82l9.46,14.18c4.48,6.56,10,11.89,17.55,14.83,2.39.65,4.76,1.69,7.18,1.86,8.15.57,14.59-4.41,18.29-13.6,1.3-3.23,1.57-6.37-.46-9.3C279,354.39,275,349,271.15,343.62l-11.3-11.49c-1-.68-2-1.31-2.89-2.05-4.2-3.39-8.37-6.8-12.55-10.21l-14.68-17.58,0,0a.57.57,0,0,0-.26-.57c-2.34-5.12-4.93-10.15-6.95-15.4s-3.35-10.5-5-15.76l.08,0c-.5-1.39-1-2.78-1.48-4.17-4.27-10.69-11.6-18.53-22.67-21.81-10.57-3.13-20.58,6.91-18.66,17.91C176.13,270.45,180.49,276.85,185.36,282.89Zm48.23,29.67c1.07.58,2.22,1.07,3.24,1.7-1-.63-2.17-1.12-3.24-1.7-.66-1.77-1.3-3.55-2-5.31C232.29,309,232.93,310.79,233.59,312.56Zm-66.22,70.22,5.45,3.89.94.23,10.12,5.49,5.06,4,0,0h0l13.66,9.18,2.49,3.05,0,0c7.24,8.41,16.79,13.69,26.14,19.2a2.91,2.91,0,0,0,4.24-2.74,9.5,9.5,0,0,0-.87-3.88,75.12,75.12,0,0,0-18.22-24.75c-1.64-1.47-4.64-1.44-7-2.1.64.71,1.59,1.36,2.14,2.08a2.13,2.13,0,0,1,.35.64,2.13,2.13,0,0,0-.35-.64c-.55-.72-1.5-1.37-2.14-2.08a15.14,15.14,0,0,1-1.66-3.35,21,21,0,0,0-9.11-13.14c-1.26-2.3-2.82-4.5-3.7-6.94-2.2-6.09-6.36-10.58-11.16-14.62a33.63,33.63,0,0,0-16.52-9.75c-9.62-2.33-16.71,4.45-15.71,14.3C152.53,371.44,159.41,377.4,167.37,382.78Zm24.36,9.43h0l1.13-.31Zm590.14-50.36c2.62-1.92,4.46-4.91,6.65-7.4,8.9-12.1,8.87-25.28,4.56-38.89-1-3.09-.49-10.15,1.39-12.11,5.58-3.38,11.65-6.21,14.61-12.62a31.32,31.32,0,0,0,1.69-5c.68-4.19,1.1-8.42,1.63-12.64-.83,1.29-1.67,2.58-2.54,3.94.87-1.36,1.7-2.65,2.54-3.94Q816.21,241,820,228.85c2.25-7.24,4.87-14.4,6.59-21.77.8-3.41-.15-7.22-.31-10.85-1.06-4-3.73-6.47-7.5-7.9-4.34-2-8.89-3.61-13.13-.31-2.93,2.28-5.25,5.35-7.85,8.07-1.09,2.79-2.2,5.58-3.25,8.4,1-2.82,2.16-5.61,3.25-8.4l-7,13.54h-.06l-3.69,12.42c-1.58,6-3.1,12.08-4.74,18.1-1.42,5.25-3,10.47-4.48,15.71a4.41,4.41,0,0,0,.43.25,4.41,4.41,0,0,1-.43-.25c0,1.58,0,3.16-.05,4.74a.65.65,0,0,0,0,.62c.07,1.17.13,2.33.2,3.49l.24.78c.37,2.5.79,5,1.09,7.51.69,5.93,1.52,11.8-5.39,15.25-2.17,1.08-3.7,3.44-5.52,5.21-4.26,3.19-4.81,8.12-6,12.76-2.49,9.78-2.7,19.47,1.06,29C766.7,343.54,775.15,346.78,781.87,341.85Zm-3.41-85.62c.22.12.45.24.64.37C778.91,256.47,778.68,256.35,778.46,256.23ZM937.33,361.66c-1.1,8.29-6.12,13.48-11.85,18.41-2.52,2.18-5.44,3.91-8.18,5.84l-10,5L893.1,401.71c-6.16,2.44-9.59,8.17-14.55,12.05-1,.81-2.18,1.47-3.28,2.19-5.6,3.82-11.14,7.72-16.85,11.36a4.16,4.16,0,0,1-3.87-.11,4.07,4.07,0,0,1-.85-3.8c2.6-5.26,5.53-10.37,8.41-15.49a15.53,15.53,0,0,1,1.85-2.23c2.57-2.92,4.93-6.07,7.8-8.66a11.93,11.93,0,0,1,6.11-2.71c1.94-.26,2.64-.87,3.06-2.63a45.69,45.69,0,0,1,1.9-5.2,80.59,80.59,0,0,1,5.13-6.83c3-3.21,5.82-6.32,6.9-10.79.38-1.6,1.8-3,2.74-4.43l1.25-1.46a9.42,9.42,0,0,1,.15.95c0,.21,0,.43.08.64,0-.21-.06-.43-.08-.64a9.42,9.42,0,0,0-.15-.95l.07,0,.65-.73,0-.12c.84-1,1.68-2,2.53-3,5.49-5.69,11.41-10.71,19.42-12.54C931.71,344.26,938.7,351.33,937.33,361.66ZM268.23,227.47a20,20,0,0,0,1.84,3.43,4.49,4.49,0,0,0-.21,1.74c2.13,6.87,4.33,13.72,6.51,20.57.54,4.06,1,8.12,1.65,12.16a37.54,37.54,0,0,0,1.39,4.69c.52,1.09.75,2.53,1.59,3.21,4.1,3.32,8.36,6.43,12.57,9.62,2.44,2.13,2.95,4.85,2.44,7.89-.71,4.19-1.44,8.37-2.12,12.56-1,6.07-1.85,12.15.37,18.16l.36,1.22.36.68c2,6.8,5.33,12.87,10.71,17.57,3.17,2.78,7.08,4.52,11.17,2.63,5.21-2.4,8.44-6.76,9.92-12.39,2.94-11.22,1.57-22.17-2.81-32.6A23,23,0,0,0,310.64,286a5.67,5.67,0,0,0-2,3.17,5.67,5.67,0,0,1,2-3.17c-2.77-6.55-1-13.08-.29-19.73.57-5.2-.29-10.55-.52-15.83l-1.62-5.38q-1.95-6.41-3.89-12.82l-.36-1.54a.33.33,0,0,0-.19-.5l-4-15.27q-4.06-9-8.12-17.92c.36,1.12.73,2.24,1.09,3.36-.36-1.12-.73-2.24-1.09-3.36q-2-2.4-3.94-4.78h0l-1.46-1.47c-7.3-7.67-20.72-4.5-23.9,5.65q-.21,4-.44,8.07a26.49,26.49,0,0,0,.55,4.21Q265.26,218.11,268.23,227.47Zm9.81,9.95v0Zm-5.33-4.5c-.45-.45-.9-.9-1.36-1.34.46.44.91.89,1.36,1.34l0,1.32Zm-8.1-36.45h0v10.78h0Zm556.87,143c-.11.25-.21.51-.31.78.1-.27.2-.53.31-.78-4.66,5.72-9.51,11.3-13.89,17.22a16.48,16.48,0,0,0-3.2,8c-.57,7.1,8.55,17.16,15.84,17.88,7.61.75,14-2,19.52-7.17h0l9.12-9.9c-2-.18-2.45-.22-4.14,1.3,1.69-1.52,2.18-1.48,4.14-1.3l0,0,.56-.67h.09l1.17-2.24q3.31-4.74,6.64-9.49l10.49-18.82,4.28-8.2.43-.73,2.21-4.68a.32.32,0,0,0,.12-.42l1.28-2.27,3.76-6.74a121.43,121.43,0,0,1,12.71-15.48,120.52,120.52,0,0,0,17.76-23.54c6.2-10.85,5-17.52-2.33-25.06a10.71,10.71,0,0,0-10.14-3.09c-12.68,2.21-24.93,15-27.23,28.42h0q-3.35,10.9-6.71,21.8h0l-4.23,7.26,0,0L857.18,305l-1.43,2,0,0L842.41,321.3l-6.79,5.35h0Zm42.7-43.74a5.27,5.27,0,0,1-.11.91A5.27,5.27,0,0,0,864.18,295.75Zm6.33-2.18a1.5,1.5,0,0,0-.15-.23,1.5,1.5,0,0,1,.15.23l.22-.16Zm-6.7,3.95a6,6,0,0,1-.39.81A6,6,0,0,0,863.81,297.52Zm-1.12,2q-.26.39-.54.75Q862.44,299.88,862.69,299.49Z" style="fill:#fff"/></svg>