<svg xmlns="http://www.w3.org/2000/svg" viewBox="0 0 351.77 47.27"><path d="M29.39,14.38a1.4,1.4,0,0,0,.41.49,1.8,1.8,0,0,0,.61.27,2.84,2.84,0,0,0,.72.09,3.62,3.62,0,0,0,.54,0,2,2,0,0,0,.54-.16,1.34,1.34,0,0,0,.42-.33.84.84,0,0,0,.16-.53.75.75,0,0,0-.22-.57,1.92,1.92,0,0,0-.58-.36,6.18,6.18,0,0,0-.82-.25l-.92-.24c-.32-.08-.63-.18-.94-.29A3.52,3.52,0,0,1,28.5,12a2.14,2.14,0,0,1-.58-.69,2.09,2.09,0,0,1-.23-1A2.19,2.19,0,0,1,28,9.17a2.37,2.37,0,0,1,.73-.81,3.1,3.1,0,0,1,1-.48,4.09,4.09,0,0,1,1.15-.16,5.43,5.43,0,0,1,1.29.15,3.14,3.14,0,0,1,1.1.49,2.43,2.43,0,0,1,.76.86,2.58,2.58,0,0,1,.28,1.26H32.51a1.42,1.42,0,0,0-.17-.63,1.07,1.07,0,0,0-.36-.4,1.48,1.48,0,0,0-.52-.2,3.27,3.27,0,0,0-.65-.06,2.28,2.28,0,0,0-.45,0,1.54,1.54,0,0,0-.42.17,1.07,1.07,0,0,0-.3.3.81.81,0,0,0-.12.46.83.83,0,0,0,.09.41.85.85,0,0,0,.38.28,4.9,4.9,0,0,0,.78.27l1.3.33c.16,0,.39.09.67.18a3.26,3.26,0,0,1,.85.4,2.43,2.43,0,0,1,.72.74A2.05,2.05,0,0,1,34.62,14,2.63,2.63,0,0,1,34.39,15a2.29,2.29,0,0,1-.68.87,3.07,3.07,0,0,1-1.11.57,5.57,5.57,0,0,1-2.92,0A3.54,3.54,0,0,1,28.5,16a2.76,2.76,0,0,1-.81-1,2.82,2.82,0,0,1-.28-1.37h1.82A1.49,1.49,0,0,0,29.39,14.38Z" style="fill:#fff"/><path d="M37.32,15a1.74,1.74,0,0,0,2,.11,1.06,1.06,0,0,0,.46-.55h1.5a2.83,2.83,0,0,1-1.11,1.6,3.22,3.22,0,0,1-1.8.48A3.65,3.65,0,0,1,37,16.42a2.84,2.84,0,0,1-1.62-1.7,3.73,3.73,0,0,1-.23-1.32,3.66,3.66,0,0,1,.23-1.3,3,3,0,0,1,1.65-1.73,3.37,3.37,0,0,1,1.29-.25,2.87,2.87,0,0,1,1.38.31,2.76,2.76,0,0,1,1,.82,3.35,3.35,0,0,1,.54,1.18,4,4,0,0,1,.12,1.38H36.9A1.69,1.69,0,0,0,37.32,15Zm1.92-3.27a1.2,1.2,0,0,0-.93-.33,1.48,1.48,0,0,0-.67.13,1.42,1.42,0,0,0-.44.35,1.26,1.26,0,0,0-.22.43,1.73,1.73,0,0,0-.08.41h2.77A1.93,1.93,0,0,0,39.24,11.74Z" style="fill:#fff"/><path d="M45.29,11.41a1.24,1.24,0,0,0-.69.18,1.72,1.72,0,0,0-.45.48,2,2,0,0,0-.24.65,3.42,3.42,0,0,0-.08.7,3.32,3.32,0,0,0,.08.69,1.9,1.9,0,0,0,.23.63,1.38,1.38,0,0,0,.44.46,1.2,1.2,0,0,0,.67.18,1.27,1.27,0,0,0,.94-.34,1.68,1.68,0,0,0,.42-.92h1.64a2.79,2.79,0,0,1-1,1.88,3.11,3.11,0,0,1-2,.65A3.55,3.55,0,0,1,44,16.42a3.07,3.07,0,0,1-1-.66,2.94,2.94,0,0,1-.63-1,3.51,3.51,0,0,1-.23-1.28,4.18,4.18,0,0,1,.21-1.34A3,3,0,0,1,43,11.08a2.85,2.85,0,0,1,1-.71,3.57,3.57,0,0,1,1.35-.25,3.72,3.72,0,0,1,1.06.15,2.83,2.83,0,0,1,.91.43,2.24,2.24,0,0,1,.94,1.77H46.55A1.15,1.15,0,0,0,45.29,11.41Z" style="fill:#fff"/><path d="M50.77,10.29v1.15h0a2,2,0,0,1,.33-.53,1.71,1.71,0,0,1,.47-.42,1.93,1.93,0,0,1,.56-.27,1.87,1.87,0,0,1,.62-.1,1.36,1.36,0,0,1,.38.06v1.59l-.29,0h-.33a1.89,1.89,0,0,0-.79.15,1.47,1.47,0,0,0-.52.43,1.64,1.64,0,0,0-.28.63,3.21,3.21,0,0,0-.09.78v2.79h-1.7v-6.2Z" style="fill:#fff"/><path d="M55.58,15a1.58,1.58,0,0,0,1.11.37,1.5,1.5,0,0,0,.88-.26,1.06,1.06,0,0,0,.46-.55h1.5a2.86,2.86,0,0,1-1.1,1.6,3.27,3.27,0,0,1-1.8.48,3.65,3.65,0,0,1-1.32-.23,2.71,2.71,0,0,1-1-.67,3.07,3.07,0,0,1-.63-1,3.73,3.73,0,0,1-.22-1.32,3.45,3.45,0,0,1,.23-1.3,3.08,3.08,0,0,1,.64-1,3.12,3.12,0,0,1,1-.69,3.3,3.3,0,0,1,1.29-.25,2.92,2.92,0,0,1,1.38.31,2.73,2.73,0,0,1,1,.82,3.37,3.37,0,0,1,.55,1.18,4.5,4.5,0,0,1,.12,1.38H55.16A1.79,1.79,0,0,0,55.58,15Zm1.93-3.27a1.23,1.23,0,0,0-.93-.33,1.53,1.53,0,0,0-.68.13,1.37,1.37,0,0,0-.43.35,1.13,1.13,0,0,0-.23.43,2.45,2.45,0,0,0-.08.41h2.77A2,2,0,0,0,57.51,11.74Z" style="fill:#fff"/><path d="M64,10.29v1.14H62.75V14.5a.83.83,0,0,0,.14.58.89.89,0,0,0,.58.14h.27l.25,0v1.32a3.22,3.22,0,0,1-.48.05H63a4.43,4.43,0,0,1-.75-.05,2,2,0,0,1-.63-.21,1.05,1.05,0,0,1-.42-.44,1.56,1.56,0,0,1-.16-.76V11.43H60V10.29h1V8.43h1.71v1.86Z" style="fill:#fff"/><path d="M65,11.2a2,2,0,0,1,.67-.63,3,3,0,0,1,.92-.35,5.87,5.87,0,0,1,1-.1,6.08,6.08,0,0,1,1,.07,2.81,2.81,0,0,1,.88.26,1.68,1.68,0,0,1,.65.53,1.56,1.56,0,0,1,.25.91v3.22a5.34,5.34,0,0,0,.05.81,1.39,1.39,0,0,0,.16.57H68.8a2.46,2.46,0,0,1-.07-.29,1.55,1.55,0,0,1,0-.31,2.27,2.27,0,0,1-1,.59,3.85,3.85,0,0,1-1.12.17,3.14,3.14,0,0,1-.83-.11,1.83,1.83,0,0,1-.67-.33,1.71,1.71,0,0,1-.45-.58,1.92,1.92,0,0,1-.16-.83,1.87,1.87,0,0,1,.18-.87,1.58,1.58,0,0,1,.48-.54,2.16,2.16,0,0,1,.67-.31,7,7,0,0,1,.77-.16l.75-.1a3.78,3.78,0,0,0,.66-.11,1,1,0,0,0,.46-.21.45.45,0,0,0,.15-.4.93.93,0,0,0-.09-.44.72.72,0,0,0-.24-.25.92.92,0,0,0-.34-.12,3,3,0,0,0-.43,0,1.24,1.24,0,0,0-.79.22,1,1,0,0,0-.34.72h-1.7A1.94,1.94,0,0,1,65,11.2Zm3.36,2.41L68,13.7l-.39.06a2.7,2.7,0,0,0-.41.06,2.34,2.34,0,0,0-.38.09,1.09,1.09,0,0,0-.32.17.69.69,0,0,0-.23.25,1,1,0,0,0-.08.4.86.86,0,0,0,.08.38.7.7,0,0,0,.23.25,1.15,1.15,0,0,0,.34.13l.39,0a1.41,1.41,0,0,0,.78-.17,1.05,1.05,0,0,0,.41-.4,1.2,1.2,0,0,0,.16-.47,3.28,3.28,0,0,0,0-.39v-.63A.87.87,0,0,1,68.34,13.61Z" style="fill:#fff"/><path d="M73.2,10.29v1.15h0a2,2,0,0,1,.33-.53,1.83,1.83,0,0,1,.46-.42,2.12,2.12,0,0,1,.57-.27,1.83,1.83,0,0,1,.62-.1,1.29,1.29,0,0,1,.37.06v1.59l-.28,0H75a1.89,1.89,0,0,0-.79.15,1.38,1.38,0,0,0-.52.43,1.66,1.66,0,0,0-.29.63,3.81,3.81,0,0,0-.08.78v2.79h-1.7v-6.2Z" style="fill:#fff"/><path d="M76.23,9.33V7.93h1.71v1.4Zm1.71,1v6.2H76.23v-6.2Z" style="fill:#fff"/><path d="M79.45,11.2a2,2,0,0,1,.67-.63,3,3,0,0,1,.92-.35,5.87,5.87,0,0,1,1-.1,6.08,6.08,0,0,1,1,.07,2.81,2.81,0,0,1,.88.26,1.68,1.68,0,0,1,.65.53,1.56,1.56,0,0,1,.25.91v3.22a5.34,5.34,0,0,0,0,.81,1.39,1.39,0,0,0,.16.57H83.28a1.38,1.38,0,0,1-.08-.29,1.55,1.55,0,0,1,0-.31,2.3,2.3,0,0,1-1,.59,4,4,0,0,1-1.13.17,3.14,3.14,0,0,1-.83-.11,1.83,1.83,0,0,1-.67-.33,1.71,1.71,0,0,1-.45-.58A1.92,1.92,0,0,1,79,14.8a1.87,1.87,0,0,1,.18-.87,1.58,1.58,0,0,1,.48-.54,2.16,2.16,0,0,1,.67-.31,7,7,0,0,1,.77-.16l.75-.1a3.78,3.78,0,0,0,.66-.11,1,1,0,0,0,.46-.21.45.45,0,0,0,.15-.4.93.93,0,0,0-.09-.44.72.72,0,0,0-.24-.25.92.92,0,0,0-.34-.12,3,3,0,0,0-.43,0,1.24,1.24,0,0,0-.79.22,1,1,0,0,0-.34.72h-1.7A1.94,1.94,0,0,1,79.45,11.2Zm3.36,2.41-.34.09-.39.06a2.7,2.7,0,0,0-.41.06,2.34,2.34,0,0,0-.38.09,1.09,1.09,0,0,0-.32.17.69.69,0,0,0-.23.25,1,1,0,0,0-.08.4.86.86,0,0,0,.08.38.7.7,0,0,0,.23.25,1.15,1.15,0,0,0,.34.13l.39,0a1.41,1.41,0,0,0,.78-.17,1.05,1.05,0,0,0,.41-.4,1.2,1.2,0,0,0,.16-.47,3.28,3.28,0,0,0,0-.39v-.63A.87.87,0,0,1,82.81,13.61Z" style="fill:#fff"/><path d="M93.73,15.7a1.74,1.74,0,0,1-.79.73,2.57,2.57,0,0,1-1.1.22,2.64,2.64,0,0,1-1.22-.27,2.47,2.47,0,0,1-.87-.73,3.38,3.38,0,0,1-.52-1.06,4.71,4.71,0,0,1-.17-1.25,4.42,4.42,0,0,1,.17-1.21,3.07,3.07,0,0,1,.52-1,2.5,2.5,0,0,1,2.06-1,2.38,2.38,0,0,1,1,.24,1.74,1.74,0,0,1,.78.69h0V7.93h1.7v8.56H93.75V15.7Zm-.07-3.06a1.77,1.77,0,0,0-.25-.63,1.57,1.57,0,0,0-.45-.44,1.34,1.34,0,0,0-.7-.16,1.37,1.37,0,0,0-.7.16,1.35,1.35,0,0,0-.47.45,2,2,0,0,0-.25.63,3.5,3.5,0,0,0-.08.74,3,3,0,0,0,.09.72,1.74,1.74,0,0,0,.27.64,1.35,1.35,0,0,0,.47.45,1.2,1.2,0,0,0,.67.18,1.41,1.41,0,0,0,.71-.17,1.38,1.38,0,0,0,.45-.45,2.12,2.12,0,0,0,.24-.64,4.54,4.54,0,0,0,.07-.75A4.3,4.3,0,0,0,93.66,12.64Z" style="fill:#fff"/><path d="M98.42,15a1.55,1.55,0,0,0,1.1.37,1.53,1.53,0,0,0,.89-.26,1.06,1.06,0,0,0,.46-.55h1.5a2.83,2.83,0,0,1-1.11,1.6,3.22,3.22,0,0,1-1.8.48,3.73,3.73,0,0,1-1.32-.23,2.76,2.76,0,0,1-1-.67,3.07,3.07,0,0,1-.63-1,3.73,3.73,0,0,1-.22-1.32,3.66,3.66,0,0,1,.22-1.3,3.27,3.27,0,0,1,.65-1,3.19,3.19,0,0,1,1-.69,3.37,3.37,0,0,1,1.29-.25,2.87,2.87,0,0,1,1.38.31,2.68,2.68,0,0,1,1,.82,3.56,3.56,0,0,1,.55,1.18,4.5,4.5,0,0,1,.12,1.38H98A1.69,1.69,0,0,0,98.42,15Zm1.93-3.27a1.23,1.23,0,0,0-.93-.33,1.5,1.5,0,0,0-.68.13,1.27,1.27,0,0,0-.43.35,1.13,1.13,0,0,0-.23.43,1.73,1.73,0,0,0-.08.41h2.77A2,2,0,0,0,100.35,11.74Z" style="fill:#fff"/><path d="M57.42,22.31a1.71,1.71,0,0,0-.42-.47,2,2,0,0,0-.57-.32,1.89,1.89,0,0,0-.67-.11,2,2,0,0,0-1.8.9,2.93,2.93,0,0,0-.4.94,5,5,0,0,0-.13,1.1,4.57,4.57,0,0,0,.13,1,2.77,2.77,0,0,0,.4.91,2.17,2.17,0,0,0,.72.66,2.27,2.27,0,0,0,1.08.24,1.73,1.73,0,0,0,1.35-.52,2.5,2.5,0,0,0,.6-1.4h1.82a4.48,4.48,0,0,1-.37,1.46,3.56,3.56,0,0,1-.79,1.1,3.5,3.5,0,0,1-1.16.7,4.2,4.2,0,0,1-1.45.24A4.4,4.4,0,0,1,54,28.44a3.7,3.7,0,0,1-1.32-.94,4.14,4.14,0,0,1-.83-1.41,5.21,5.21,0,0,1-.29-1.74,5.46,5.46,0,0,1,.29-1.79,4.33,4.33,0,0,1,.83-1.43,3.75,3.75,0,0,1,1.32-1,4.4,4.4,0,0,1,1.77-.35A4.23,4.23,0,0,1,57.1,20a3.48,3.48,0,0,1,1.13.59,3.23,3.23,0,0,1,.82,1,3.41,3.41,0,0,1,.41,1.32H57.63A1.53,1.53,0,0,0,57.42,22.31Z" style="fill:#fff"/><path d="M64.77,28.59v-.86h0a2,2,0,0,1-.84.78,2.52,2.52,0,0,1-1.06.24,3,3,0,0,1-1.12-.18,1.64,1.64,0,0,1-.69-.51,1.88,1.88,0,0,1-.35-.8,4.9,4.9,0,0,1-.11-1.05V22.39h1.71v3.5A2.17,2.17,0,0,0,62.52,27a.93.93,0,0,0,.85.38,1.18,1.18,0,0,0,1-.42,2.27,2.27,0,0,0,.31-1.36V22.39h1.7v6.2Z" style="fill:#fff"/><path d="M69.38,20v8.56h-1.7V20Z" style="fill:#fff"/><path d="M74.07,22.39v1.14H72.83V26.6a.83.83,0,0,0,.14.58.89.89,0,0,0,.58.14h.27l.25,0v1.32a3.22,3.22,0,0,1-.48.05h-.51a4.43,4.43,0,0,1-.75,0,2,2,0,0,1-.63-.21,1.05,1.05,0,0,1-.42-.44,1.56,1.56,0,0,1-.16-.76V23.53h-1V22.39h1V20.53h1.71v1.86Z" style="fill:#fff"/><path d="M79,28.59v-.86h0a1.86,1.86,0,0,1-.84.78,2.44,2.44,0,0,1-1.05.24A3,3,0,0,1,76,28.57a1.64,1.64,0,0,1-.69-.51,2.16,2.16,0,0,1-.35-.8,4.93,4.93,0,0,1-.1-1.05V22.39h1.7v3.5A2.17,2.17,0,0,0,76.77,27a1,1,0,0,0,.86.38,1.15,1.15,0,0,0,1-.42,2.27,2.27,0,0,0,.31-1.36V22.39h1.71v6.2Z" style="fill:#fff"/><path d="M83.51,22.39v1.15h0a2.2,2.2,0,0,1,.32-.53,2.06,2.06,0,0,1,.47-.42,2.12,2.12,0,0,1,.57-.27,1.83,1.83,0,0,1,.62-.1,1.29,1.29,0,0,1,.37.06v1.59l-.29-.05h-.32a1.86,1.86,0,0,0-.79.15,1.38,1.38,0,0,0-.52.43,1.66,1.66,0,0,0-.29.63,3.81,3.81,0,0,0-.08.78v2.79h-1.7v-6.2Z" style="fill:#fff"/><path d="M86.72,23.3a2.12,2.12,0,0,1,.67-.63,3.08,3.08,0,0,1,.92-.35,5.89,5.89,0,0,1,1-.1,6.16,6.16,0,0,1,1,.07,2.75,2.75,0,0,1,.87.26,1.68,1.68,0,0,1,.65.53,1.49,1.49,0,0,1,.25.91v3.22a7,7,0,0,0,0,.81,1.38,1.38,0,0,0,.17.57H90.55a2.45,2.45,0,0,1-.08-.29,2.91,2.91,0,0,1,0-.31,2.18,2.18,0,0,1-1,.59,4,4,0,0,1-1.13.17,3.2,3.2,0,0,1-.83-.11,1.91,1.91,0,0,1-.67-.33,1.71,1.71,0,0,1-.45-.58,1.92,1.92,0,0,1-.16-.83,1.75,1.75,0,0,1,.19-.87,1.46,1.46,0,0,1,.47-.54,2.12,2.12,0,0,1,.68-.31,6.41,6.41,0,0,1,.76-.16l.76-.1a4.13,4.13,0,0,0,.66-.11.94.94,0,0,0,.45-.21.48.48,0,0,0,.16-.4.93.93,0,0,0-.09-.44.72.72,0,0,0-.24-.25,1,1,0,0,0-.35-.12,2.9,2.9,0,0,0-.43,0,1.26,1.26,0,0,0-.79.22,1,1,0,0,0-.33.72H86.42A2,2,0,0,1,86.72,23.3Zm3.37,2.41-.35.09-.39.06a2.9,2.9,0,0,0-.41.06,2.62,2.62,0,0,0-.38.09,1.09,1.09,0,0,0-.32.17.67.67,0,0,0-.22.25.82.82,0,0,0-.09.4.74.74,0,0,0,.09.38.56.56,0,0,0,.23.25,1,1,0,0,0,.33.13,2.6,2.6,0,0,0,.4,0,1.46,1.46,0,0,0,.78-.17,1.13,1.13,0,0,0,.41-.4,1.38,1.38,0,0,0,.16-.47,3.28,3.28,0,0,0,0-.39v-.63A1,1,0,0,1,90.09,25.71Z" style="fill:#fff"/><path d="M98.42,27.11a1.55,1.55,0,0,0,1.1.37,1.53,1.53,0,0,0,.89-.26,1.06,1.06,0,0,0,.46-.55h1.5a2.83,2.83,0,0,1-1.11,1.6,3.22,3.22,0,0,1-1.8.48,3.73,3.73,0,0,1-1.32-.23,2.76,2.76,0,0,1-1-.67,3.07,3.07,0,0,1-.63-1,3.73,3.73,0,0,1-.22-1.32,3.66,3.66,0,0,1,.22-1.3,3.27,3.27,0,0,1,.65-1,3.19,3.19,0,0,1,1-.69,3.37,3.37,0,0,1,1.29-.25,2.87,2.87,0,0,1,1.38.31,2.68,2.68,0,0,1,1,.82,3.56,3.56,0,0,1,.55,1.18,4.5,4.5,0,0,1,.12,1.38H98A1.69,1.69,0,0,0,98.42,27.11Zm1.93-3.27a1.23,1.23,0,0,0-.93-.33,1.5,1.5,0,0,0-.68.13,1.27,1.27,0,0,0-.43.35,1.13,1.13,0,0,0-.23.43,1.73,1.73,0,0,0-.08.41h2.77A2,2,0,0,0,100.35,23.84Z" style="fill:#fff"/><path d="M6.41,32.13v1.58H1.88v1.84H6V37H1.88v2.1H6.5v1.58H0V32.13Z" style="fill:#fff"/><path d="M10.5,35.61a1.27,1.27,0,0,0-.69.18,1.72,1.72,0,0,0-.45.48,2.29,2.29,0,0,0-.24.65,3.39,3.39,0,0,0-.07.7,3.3,3.3,0,0,0,.07.69,2.15,2.15,0,0,0,.23.63,1.48,1.48,0,0,0,.44.46,1.2,1.2,0,0,0,.67.18,1.27,1.27,0,0,0,.94-.34,1.68,1.68,0,0,0,.42-.92h1.64a2.79,2.79,0,0,1-1,1.88,3.11,3.11,0,0,1-2,.65,3.46,3.46,0,0,1-1.27-.23,2.87,2.87,0,0,1-1-.66,2.81,2.81,0,0,1-.64-1,3.51,3.51,0,0,1-.23-1.28,4.18,4.18,0,0,1,.21-1.34,3,3,0,0,1,.62-1.06,2.8,2.8,0,0,1,1-.71,3.52,3.52,0,0,1,1.34-.25,3.72,3.72,0,0,1,1.06.15,2.73,2.73,0,0,1,.91.43,2.29,2.29,0,0,1,.95,1.77H11.76A1.14,1.14,0,0,0,10.5,35.61Z" style="fill:#fff"/><path d="M14.4,36.25a2.79,2.79,0,0,1,.65-1,2.73,2.73,0,0,1,1-.66,3.78,3.78,0,0,1,2.65,0,2.69,2.69,0,0,1,1,.66,2.79,2.79,0,0,1,.65,1,4,4,0,0,1,0,2.69,3,3,0,0,1-.65,1,2.79,2.79,0,0,1-1,.65,3.93,3.93,0,0,1-2.65,0,2.84,2.84,0,0,1-1-.65,3,3,0,0,1-.65-1,4,4,0,0,1,0-2.69ZM16,38.32a1.89,1.89,0,0,0,.24.64,1.32,1.32,0,0,0,.46.45,1.63,1.63,0,0,0,1.45,0,1.27,1.27,0,0,0,.47-.45,1.89,1.89,0,0,0,.24-.64,3.38,3.38,0,0,0,.08-.72,3.55,3.55,0,0,0-.08-.73,1.81,1.81,0,0,0-.24-.64,1.45,1.45,0,0,0-.47-.45,1.63,1.63,0,0,0-1.45,0,1.52,1.52,0,0,0-.46.45,1.81,1.81,0,0,0-.24.64,3.55,3.55,0,0,0-.08.73A3.38,3.38,0,0,0,16,38.32Z" style="fill:#fff"/><path d="M23.25,34.49v.86h0a2,2,0,0,1,.84-.78,2.36,2.36,0,0,1,1.06-.25,2.78,2.78,0,0,1,1.12.19A1.64,1.64,0,0,1,27,35a2,2,0,0,1,.35.81,4.8,4.8,0,0,1,.1,1.05v3.81h-1.7v-3.5A2.21,2.21,0,0,0,25.51,36a.92.92,0,0,0-.85-.37,1.17,1.17,0,0,0-1,.41,2.29,2.29,0,0,0-.31,1.36v3.25H21.63v-6.2Z" style="fill:#fff"/><path d="M28.73,36.25a2.8,2.8,0,0,1,1.65-1.69,3.45,3.45,0,0,1,1.32-.24,3.54,3.54,0,0,1,1.33.24,2.85,2.85,0,0,1,1.66,1.69,4,4,0,0,1,0,2.69A3,3,0,0,1,34,40a2.88,2.88,0,0,1-1,.65,3.75,3.75,0,0,1-1.33.23,3.65,3.65,0,0,1-1.32-.23,2.88,2.88,0,0,1-1-.65,2.94,2.94,0,0,1-.64-1,4,4,0,0,1,0-2.69Zm1.54,2.07a1.9,1.9,0,0,0,.25.64,1.32,1.32,0,0,0,.46.45,1.42,1.42,0,0,0,.72.17,1.49,1.49,0,0,0,.73-.17A1.35,1.35,0,0,0,32.9,39a2.12,2.12,0,0,0,.24-.64,3.38,3.38,0,0,0,.07-.72,3.54,3.54,0,0,0-.07-.73,2,2,0,0,0-.24-.64,1.56,1.56,0,0,0-.47-.45,1.39,1.39,0,0,0-.73-.17,1.33,1.33,0,0,0-.72.17,1.52,1.52,0,0,0-.46.45,1.82,1.82,0,0,0-.25.64,4.4,4.4,0,0,0-.07.73A4.18,4.18,0,0,0,30.27,38.32Z" style="fill:#fff"/><path d="M37.62,34.49v.84h0a2.47,2.47,0,0,1,.81-.74,2.18,2.18,0,0,1,1.09-.27,2.5,2.5,0,0,1,1.07.23,1.5,1.5,0,0,1,.74.8,2.59,2.59,0,0,1,.75-.72,2.07,2.07,0,0,1,1.12-.31,3.28,3.28,0,0,1,.91.12,1.8,1.8,0,0,1,.72.39,1.66,1.66,0,0,1,.47.69,2.79,2.79,0,0,1,.17,1v4.15h-1.7V37.18a5.41,5.41,0,0,0,0-.59,1.22,1.22,0,0,0-.13-.48.76.76,0,0,0-.32-.32,1.15,1.15,0,0,0-.57-.12,1.11,1.11,0,0,0-.58.13,1.2,1.2,0,0,0-.35.36,1.61,1.61,0,0,0-.17.51,5.46,5.46,0,0,0,0,.57v3.45H39.9V37.21c0-.18,0-.36,0-.54a1.59,1.59,0,0,0-.11-.5.83.83,0,0,0-.3-.37,1.13,1.13,0,0,0-.61-.13,1.09,1.09,0,0,0-.32,0,1.21,1.21,0,0,0-.39.2,1.15,1.15,0,0,0-.31.44,1.66,1.66,0,0,0-.14.73v3.6H36v-6.2Z" style="fill:#fff"/><path d="M46.82,33.53v-1.4h1.71v1.4Zm1.71,1v6.2H46.82v-6.2Z" style="fill:#fff"/><path d="M50,35.4a2,2,0,0,1,.67-.63,3,3,0,0,1,.92-.35,5.87,5.87,0,0,1,1-.1,6.08,6.08,0,0,1,1,.07,2.81,2.81,0,0,1,.88.26,1.68,1.68,0,0,1,.65.53,1.56,1.56,0,0,1,.25.91v3.22a5.34,5.34,0,0,0,0,.81,1.39,1.39,0,0,0,.16.57H53.87a1.38,1.38,0,0,1-.08-.29,1.55,1.55,0,0,1,0-.31,2.3,2.3,0,0,1-1,.59,4,4,0,0,1-1.13.17,3.14,3.14,0,0,1-.83-.11,1.83,1.83,0,0,1-.67-.33,1.71,1.71,0,0,1-.45-.58,1.92,1.92,0,0,1-.16-.83,1.87,1.87,0,0,1,.18-.87,1.58,1.58,0,0,1,.48-.54,2.16,2.16,0,0,1,.67-.31,7,7,0,0,1,.77-.16l.75-.1a3.78,3.78,0,0,0,.66-.11,1,1,0,0,0,.46-.21.45.45,0,0,0,.15-.4.93.93,0,0,0-.09-.44.72.72,0,0,0-.24-.25.92.92,0,0,0-.34-.12,3,3,0,0,0-.43,0,1.24,1.24,0,0,0-.79.22,1,1,0,0,0-.34.72h-1.7A1.94,1.94,0,0,1,50,35.4Zm3.36,2.41-.34.09-.39.06a2.7,2.7,0,0,0-.41.06,2.34,2.34,0,0,0-.38.09,1.09,1.09,0,0,0-.32.17.69.69,0,0,0-.23.25,1,1,0,0,0-.08.4.86.86,0,0,0,.08.38.7.7,0,0,0,.23.25,1.15,1.15,0,0,0,.34.13,2.56,2.56,0,0,0,.39,0,1.41,1.41,0,0,0,.78-.17,1.05,1.05,0,0,0,.41-.4,1.2,1.2,0,0,0,.16-.47,3.28,3.28,0,0,0,0-.39v-.63A.87.87,0,0,1,53.4,37.81Z" style="fill:#fff"/><path d="M65.59,34.41a1.71,1.71,0,0,0-.42-.47,2,2,0,0,0-.57-.32,1.85,1.85,0,0,0-.67-.11,2,2,0,0,0-1.8.9,3.18,3.18,0,0,0-.4.94,5,5,0,0,0-.12,1.1,4.57,4.57,0,0,0,.12,1,3,3,0,0,0,.4.91,2.17,2.17,0,0,0,.72.66,2.27,2.27,0,0,0,1.08.24,1.73,1.73,0,0,0,1.35-.52,2.43,2.43,0,0,0,.6-1.4H67.7a4.48,4.48,0,0,1-.37,1.46,3.4,3.4,0,0,1-.79,1.1,3.45,3.45,0,0,1-1.15.7,4.26,4.26,0,0,1-1.46.24,4.4,4.4,0,0,1-1.77-.35,3.7,3.7,0,0,1-1.32-.94A4.14,4.14,0,0,1,60,38.19a5.21,5.21,0,0,1-.29-1.74A5.46,5.46,0,0,1,60,34.66a4.33,4.33,0,0,1,.83-1.43,3.75,3.75,0,0,1,1.32-1,4.4,4.4,0,0,1,1.77-.35,4.18,4.18,0,0,1,1.34.21,3.48,3.48,0,0,1,1.13.59,3.1,3.1,0,0,1,.82,1A3.41,3.41,0,0,1,67.63,35H65.81A1.73,1.73,0,0,0,65.59,34.41Z" style="fill:#fff"/><path d="M70.37,34.49v1.15h0a2.2,2.2,0,0,1,.32-.53,2.06,2.06,0,0,1,.47-.42,2.12,2.12,0,0,1,.57-.27,1.83,1.83,0,0,1,.62-.1,1.29,1.29,0,0,1,.37.06V36l-.29,0h-.32a1.86,1.86,0,0,0-.79.15,1.38,1.38,0,0,0-.52.43,1.66,1.66,0,0,0-.29.63,3.81,3.81,0,0,0-.08.78v2.79h-1.7v-6.2Z" style="fill:#fff"/><path d="M73.4,33.53v-1.4h1.71v1.4Zm1.71,1v6.2H73.4v-6.2Z" style="fill:#fff"/><path d="M76.62,35.4a2,2,0,0,1,.67-.63,3,3,0,0,1,.92-.35,5.87,5.87,0,0,1,1-.1,6.08,6.08,0,0,1,1,.07,2.81,2.81,0,0,1,.88.26,1.68,1.68,0,0,1,.65.53,1.56,1.56,0,0,1,.25.91v3.22a5.34,5.34,0,0,0,.05.81,1.39,1.39,0,0,0,.16.57H80.45a1.38,1.38,0,0,1-.08-.29,1.55,1.55,0,0,1,0-.31,2.3,2.3,0,0,1-1,.59,4,4,0,0,1-1.13.17,3.14,3.14,0,0,1-.83-.11,1.83,1.83,0,0,1-.67-.33,1.71,1.71,0,0,1-.45-.58,1.92,1.92,0,0,1-.16-.83,1.87,1.87,0,0,1,.18-.87,1.49,1.49,0,0,1,.48-.54,2.16,2.16,0,0,1,.67-.31,7,7,0,0,1,.77-.16L79,37a3.78,3.78,0,0,0,.66-.11,1,1,0,0,0,.46-.21.45.45,0,0,0,.15-.4.93.93,0,0,0-.09-.44.72.72,0,0,0-.24-.25.92.92,0,0,0-.34-.12,3,3,0,0,0-.43,0,1.24,1.24,0,0,0-.79.22,1,1,0,0,0-.34.72h-1.7A1.94,1.94,0,0,1,76.62,35.4ZM80,37.81l-.34.09-.39.06a2.7,2.7,0,0,0-.41.06,2.34,2.34,0,0,0-.38.09,1.09,1.09,0,0,0-.32.17.69.69,0,0,0-.23.25,1,1,0,0,0-.08.4.86.86,0,0,0,.08.38.7.7,0,0,0,.23.25,1.15,1.15,0,0,0,.34.13,2.56,2.56,0,0,0,.39,0,1.41,1.41,0,0,0,.78-.17,1.05,1.05,0,0,0,.41-.4,1.2,1.2,0,0,0,.16-.47,3.28,3.28,0,0,0,0-.39v-.63A.87.87,0,0,1,80,37.81Z" style="fill:#fff"/><path d="M86.62,34.49v1.14H85.38V38.7a.57.57,0,0,0,.72.72h.27l.25,0v1.32a3.22,3.22,0,0,1-.48.05h-.51a4.43,4.43,0,0,1-.75,0,2,2,0,0,1-.63-.21,1.05,1.05,0,0,1-.42-.44,1.56,1.56,0,0,1-.16-.76V35.63h-1V34.49h1V32.63h1.71v1.86Z" style="fill:#fff"/><path d="M87.43,33.53v-1.4h1.7v1.4Zm1.7,1v6.2h-1.7v-6.2Z" style="fill:#fff"/><path d="M92,40.69l-2.12-6.2h1.79l1.3,4.24h0l1.31-4.24H96l-2.1,6.2Z" style="fill:#fff"/><path d="M96.82,35.4a2.05,2.05,0,0,1,.68-.63,2.92,2.92,0,0,1,.91-.35,6,6,0,0,1,1-.1,6.16,6.16,0,0,1,1,.07,2.68,2.68,0,0,1,.87.26,1.61,1.61,0,0,1,.65.53,1.49,1.49,0,0,1,.25.91v3.22a7,7,0,0,0,0,.81,1.38,1.38,0,0,0,.17.57h-1.73a2.45,2.45,0,0,1-.08-.29,2.91,2.91,0,0,1,0-.31,2.18,2.18,0,0,1-1,.59,3.92,3.92,0,0,1-1.13.17,3.07,3.07,0,0,1-.82-.11,2,2,0,0,1-.68-.33,1.71,1.71,0,0,1-.45-.58,2.08,2.08,0,0,1-.16-.83,1.75,1.75,0,0,1,.19-.87,1.4,1.4,0,0,1,.48-.54,2.06,2.06,0,0,1,.67-.31,6.85,6.85,0,0,1,.76-.16l.76-.1a3.78,3.78,0,0,0,.66-.11.94.94,0,0,0,.45-.21.43.43,0,0,0,.16-.4.93.93,0,0,0-.09-.44.72.72,0,0,0-.24-.25,1,1,0,0,0-.35-.12,2.77,2.77,0,0,0-.42,0,1.29,1.29,0,0,0-.8.22,1,1,0,0,0-.33.72H96.52A2.14,2.14,0,0,1,96.82,35.4Zm3.37,2.41-.35.09-.39.06L99,38a2.49,2.49,0,0,0-.37.09,1,1,0,0,0-.33.17.76.76,0,0,0-.22.25.82.82,0,0,0-.08.4.74.74,0,0,0,.08.38.62.62,0,0,0,.23.25,1.08,1.08,0,0,0,.33.13,2.6,2.6,0,0,0,.4,0,1.41,1.41,0,0,0,.78-.17,1.13,1.13,0,0,0,.41-.4,1.2,1.2,0,0,0,.16-.47,3.28,3.28,0,0,0,0-.39v-.63A.87.87,0,0,1,100.19,37.81Z" style="fill:#fff"/><path d="M178.12,26.51a1.31,1.31,0,0,0,.42.48,1.66,1.66,0,0,0,.6.28,2.84,2.84,0,0,0,.72.09,5.29,5.29,0,0,0,.54,0,1.7,1.7,0,0,0,.54-.17,1.14,1.14,0,0,0,.42-.33.82.82,0,0,0,.17-.53.73.73,0,0,0-.22-.56,1.68,1.68,0,0,0-.58-.36,7.21,7.21,0,0,0-.82-.26l-.93-.24a6.25,6.25,0,0,1-.93-.29,3.25,3.25,0,0,1-.82-.45,2.06,2.06,0,0,1-.58-.69,2.08,2.08,0,0,1-.22-1,2.25,2.25,0,0,1,.28-1.15,2.73,2.73,0,0,1,.74-.81,3.48,3.48,0,0,1,1-.48,4.6,4.6,0,0,1,1.15-.15,5.43,5.43,0,0,1,1.29.15,3.31,3.31,0,0,1,1.1.48,2.52,2.52,0,0,1,.76.86,2.62,2.62,0,0,1,.28,1.27h-1.82a1.47,1.47,0,0,0-.16-.64,1.1,1.1,0,0,0-.37-.4,1.61,1.61,0,0,0-.52-.2,3.16,3.16,0,0,0-.64-.06,2.49,2.49,0,0,0-.46.05,1.15,1.15,0,0,0-.41.17,1,1,0,0,0-.31.3.79.79,0,0,0-.12.45.71.71,0,0,0,.1.41.81.81,0,0,0,.38.29,4.68,4.68,0,0,0,.78.26l1.3.34c.16,0,.38.09.67.17a3.56,3.56,0,0,1,.84.4,2.86,2.86,0,0,1,.73.74,2.13,2.13,0,0,1,.3,1.18,2.67,2.67,0,0,1-.22,1.1,2.58,2.58,0,0,1-.68.87,3.47,3.47,0,0,1-1.12.57,5.48,5.48,0,0,1-1.54.2,5.65,5.65,0,0,1-1.37-.17,3.47,3.47,0,0,1-1.18-.55,2.67,2.67,0,0,1-.81-.95,2.8,2.8,0,0,1-.29-1.37H178A1.65,1.65,0,0,0,178.12,26.51Z" style="fill:#fff"/><path d="M186.05,27.13a1.54,1.54,0,0,0,1.11.37,1.43,1.43,0,0,0,.88-.26,1.08,1.08,0,0,0,.46-.54H190a2.87,2.87,0,0,1-1.1,1.59,3.27,3.27,0,0,1-1.8.48,3.45,3.45,0,0,1-1.32-.23,2.71,2.71,0,0,1-1-.67,3,3,0,0,1-.63-1,3.73,3.73,0,0,1-.22-1.32,3.44,3.44,0,0,1,.23-1.29,2.87,2.87,0,0,1,.65-1,3,3,0,0,1,1-.69,3.16,3.16,0,0,1,1.29-.25,3,3,0,0,1,1.38.3,2.83,2.83,0,0,1,1,.82,3.46,3.46,0,0,1,.55,1.18,4.5,4.5,0,0,1,.12,1.38h-4.48A1.79,1.79,0,0,0,186.05,27.13ZM188,23.87a1.19,1.19,0,0,0-.93-.34,1.52,1.52,0,0,0-.68.14,1.23,1.23,0,0,0-.43.34,1.2,1.2,0,0,0-.23.43,2.45,2.45,0,0,0-.08.41h2.78A2,2,0,0,0,188,23.87Z" style="fill:#fff"/><path d="M194,23.53a1.14,1.14,0,0,0-.68.19,1.3,1.3,0,0,0-.45.48,2,2,0,0,0-.25.64,3.49,3.49,0,0,0-.07.71,3.21,3.21,0,0,0,.07.68,2.48,2.48,0,0,0,.23.63,1.38,1.38,0,0,0,.44.46,1.22,1.22,0,0,0,.67.18,1.26,1.26,0,0,0,1-.34,1.63,1.63,0,0,0,.41-.92H197a2.81,2.81,0,0,1-1,1.89,3.08,3.08,0,0,1-2,.64,3.31,3.31,0,0,1-1.28-.23,2.84,2.84,0,0,1-1-.65,3,3,0,0,1-.64-1,3.46,3.46,0,0,1-.23-1.27,4.14,4.14,0,0,1,.21-1.34,3.07,3.07,0,0,1,.62-1.07,2.87,2.87,0,0,1,1-.7,3.34,3.34,0,0,1,1.34-.25,3.72,3.72,0,0,1,1.06.14,2.9,2.9,0,0,1,.92.44,2.53,2.53,0,0,1,.65.73,2.39,2.39,0,0,1,.29,1h-1.67A1.14,1.14,0,0,0,194,23.53Z" style="fill:#fff"/><path d="M199.5,22.41v1.16h0a2.26,2.26,0,0,1,.32-.54,2.36,2.36,0,0,1,.47-.42,2.89,2.89,0,0,1,.56-.27,2.18,2.18,0,0,1,.63-.09,1.35,1.35,0,0,1,.37.06v1.58l-.29,0-.32,0a1.71,1.71,0,0,0-.79.16,1.38,1.38,0,0,0-.53.42,1.81,1.81,0,0,0-.28.63,3.81,3.81,0,0,0-.08.78v2.8h-1.71V22.41Z" style="fill:#fff"/><path d="M204.32,27.13a1.74,1.74,0,0,0,2,.11,1,1,0,0,0,.45-.54h1.5a2.82,2.82,0,0,1-1.1,1.59,3.27,3.27,0,0,1-1.8.48,3.45,3.45,0,0,1-1.32-.23,2.89,2.89,0,0,1-1-.67,3,3,0,0,1-.63-1,4,4,0,0,1-.22-1.32,3.65,3.65,0,0,1,.23-1.29,3,3,0,0,1,.65-1,3.08,3.08,0,0,1,1-.69,3.19,3.19,0,0,1,1.29-.25,2.78,2.78,0,0,1,2.35,1.12,3.44,3.44,0,0,1,.54,1.18,4.5,4.5,0,0,1,.12,1.38H203.9A1.69,1.69,0,0,0,204.32,27.13Zm1.92-3.26a1.17,1.17,0,0,0-.93-.34,1.52,1.52,0,0,0-.68.14,1.23,1.23,0,0,0-.43.34,1.39,1.39,0,0,0-.23.43,1.68,1.68,0,0,0-.07.41h2.77A1.9,1.9,0,0,0,206.24,23.87Z" style="fill:#fff"/><path d="M212.73,22.41v1.14h-1.25v3.08a.85.85,0,0,0,.14.57.82.82,0,0,0,.58.15l.28,0a1.07,1.07,0,0,0,.25,0v1.32l-.48.05h-.52a4.56,4.56,0,0,1-.75-.06,1.57,1.57,0,0,1-.62-.21,1.14,1.14,0,0,1-.43-.44,1.63,1.63,0,0,1-.15-.76V23.55h-1V22.41h1V20.55h1.7v1.86Z" style="fill:#fff"/><path d="M213.71,23.33a2,2,0,0,1,.67-.64,3.07,3.07,0,0,1,.92-.34,5.07,5.07,0,0,1,1-.1,7.69,7.69,0,0,1,.95.06,2.94,2.94,0,0,1,.87.26,1.79,1.79,0,0,1,.65.53,1.49,1.49,0,0,1,.25.91v3.23a6.73,6.73,0,0,0,0,.8,1.43,1.43,0,0,0,.17.58h-1.73c0-.1-.06-.2-.08-.3s0-.2,0-.3a2.28,2.28,0,0,1-1,.59,3.91,3.91,0,0,1-1.13.16,3.2,3.2,0,0,1-.83-.1,2.12,2.12,0,0,1-.67-.34,1.59,1.59,0,0,1-.45-.57,2,2,0,0,1-.16-.83,1.7,1.7,0,0,1,.19-.87,1.51,1.51,0,0,1,.48-.55,2.06,2.06,0,0,1,.67-.31c.25-.06.5-.12.76-.16l.76-.09a5.67,5.67,0,0,0,.66-.11,1.18,1.18,0,0,0,.45-.21.46.46,0,0,0,.16-.4.9.9,0,0,0-.09-.44.64.64,0,0,0-.24-.25,1,1,0,0,0-.35-.12,2.81,2.81,0,0,0-.43,0,1.32,1.32,0,0,0-.79.21,1,1,0,0,0-.33.72h-1.71A2.07,2.07,0,0,1,213.71,23.33Zm3.37,2.4a2,2,0,0,1-.35.09,2.28,2.28,0,0,1-.39.06l-.41.06-.38.1a1.07,1.07,0,0,0-.32.16.78.78,0,0,0-.22.26.75.75,0,0,0-.09.39.78.78,0,0,0,.09.39.68.68,0,0,0,.23.25,1,1,0,0,0,.33.12,2.58,2.58,0,0,0,.4,0,1.56,1.56,0,0,0,.78-.17,1.21,1.21,0,0,0,.41-.4,1.51,1.51,0,0,0,.16-.48,3.29,3.29,0,0,0,0-.38v-.64A.59.59,0,0,1,217.08,25.73Z" style="fill:#fff"/><path d="M221.93,22.41v1.16h0a2,2,0,0,1,.32-.54,2.36,2.36,0,0,1,.47-.42,2.63,2.63,0,0,1,.56-.27,2.18,2.18,0,0,1,.63-.09,1.35,1.35,0,0,1,.37.06v1.58l-.29,0-.32,0a1.76,1.76,0,0,0-.8.16,1.34,1.34,0,0,0-.52.42,1.81,1.81,0,0,0-.28.63,3.22,3.22,0,0,0-.08.78v2.8h-1.71V22.41Z" style="fill:#fff"/><path d="M225,21.45v-1.4h1.7v1.4Zm1.7,1v6.21H225V22.41Z" style="fill:#fff"/><path d="M228.18,23.33a2,2,0,0,1,.67-.64,3.07,3.07,0,0,1,.92-.34,5.07,5.07,0,0,1,1-.1,7.69,7.69,0,0,1,.95.06,2.94,2.94,0,0,1,.87.26,1.79,1.79,0,0,1,.65.53,1.49,1.49,0,0,1,.25.91v3.23a6.73,6.73,0,0,0,0,.8,1.43,1.43,0,0,0,.17.58H232c0-.1-.06-.2-.08-.3s0-.2,0-.3a2.28,2.28,0,0,1-1,.59,3.91,3.91,0,0,1-1.13.16,3.2,3.2,0,0,1-.83-.1,2.23,2.23,0,0,1-.67-.34,1.59,1.59,0,0,1-.45-.57,2.12,2.12,0,0,1-.16-.83,1.7,1.7,0,0,1,.19-.87,1.51,1.51,0,0,1,.48-.55,2.06,2.06,0,0,1,.67-.31c.25-.06.5-.12.76-.16l.76-.09a5.33,5.33,0,0,0,.66-.11,1.18,1.18,0,0,0,.45-.21.46.46,0,0,0,.16-.4.9.9,0,0,0-.09-.44.64.64,0,0,0-.24-.25,1,1,0,0,0-.35-.12,2.77,2.77,0,0,0-.42,0,1.33,1.33,0,0,0-.8.21,1,1,0,0,0-.33.72h-1.71A2.07,2.07,0,0,1,228.18,23.33Zm3.37,2.4a2,2,0,0,1-.35.09,2.28,2.28,0,0,1-.39.06l-.41.06L230,26a1.07,1.07,0,0,0-.32.16.78.78,0,0,0-.22.26.75.75,0,0,0-.09.39.78.78,0,0,0,.09.39.68.68,0,0,0,.23.25,1.07,1.07,0,0,0,.33.12,2.58,2.58,0,0,0,.4,0,1.56,1.56,0,0,0,.78-.17,1.21,1.21,0,0,0,.41-.4,1.3,1.3,0,0,0,.16-.48,3.29,3.29,0,0,0,0-.38v-.64A.59.59,0,0,1,231.55,25.73Z" style="fill:#fff"/><path d="M242.46,27.83a1.8,1.8,0,0,1-.78.72,2.6,2.6,0,0,1-1.1.22,2.82,2.82,0,0,1-1.23-.26,2.6,2.6,0,0,1-.87-.74,3.36,3.36,0,0,1-.51-1.06,4.34,4.34,0,0,1-.18-1.25,4.06,4.06,0,0,1,.18-1.2,3.2,3.2,0,0,1,.51-1,2.52,2.52,0,0,1,2.06-1,2.37,2.37,0,0,1,1.05.23,1.89,1.89,0,0,1,.79.69h0V20.05h1.71v8.57h-1.62v-.79Zm-.07-3.07a1.8,1.8,0,0,0-.25-.62,1.27,1.27,0,0,0-.45-.44,1.31,1.31,0,0,0-.69-.17,1.41,1.41,0,0,0-.71.17,1.3,1.3,0,0,0-.46.44,1.93,1.93,0,0,0-.25.63,3.05,3.05,0,0,0-.08.74,3.53,3.53,0,0,0,.08.72,2.17,2.17,0,0,0,.27.64,1.58,1.58,0,0,0,.47.46,1.32,1.32,0,0,0,.68.17,1.28,1.28,0,0,0,.7-.17,1.21,1.21,0,0,0,.45-.45,2,2,0,0,0,.24-.64,3.95,3.95,0,0,0,0-1.48Z" style="fill:#fff"/><path d="M247.15,27.13a1.54,1.54,0,0,0,1.11.37,1.48,1.48,0,0,0,.89-.26,1.05,1.05,0,0,0,.45-.54h1.5a2.87,2.87,0,0,1-1.1,1.59,3.27,3.27,0,0,1-1.8.48,3.45,3.45,0,0,1-1.32-.23,2.8,2.8,0,0,1-1-.67,3,3,0,0,1-.63-1,3.73,3.73,0,0,1-.22-1.32,3.65,3.65,0,0,1,.23-1.29,3,3,0,0,1,.65-1,3.08,3.08,0,0,1,1-.69,3.19,3.19,0,0,1,1.29-.25,2.78,2.78,0,0,1,2.35,1.12,3.44,3.44,0,0,1,.54,1.18,4.5,4.5,0,0,1,.12,1.38h-4.48A1.79,1.79,0,0,0,247.15,27.13Zm1.93-3.26a1.17,1.17,0,0,0-.93-.34,1.52,1.52,0,0,0-.68.14A1.23,1.23,0,0,0,247,24a1.39,1.39,0,0,0-.23.43,2.45,2.45,0,0,0-.08.41h2.78A2,2,0,0,0,249.08,23.87Z" style="fill:#fff"/><path d="M120.62,32.15a2.68,2.68,0,0,1,1,.19,2.34,2.34,0,0,1,.79.51,2,2,0,0,1,.5.75,2.31,2.31,0,0,1,.18.91,2.57,2.57,0,0,1-.32,1.31,2,2,0,0,1-1,.84v0a1.51,1.51,0,0,1,.58.29,1.71,1.71,0,0,1,.37.47,2.75,2.75,0,0,1,.21.59c0,.22.07.43.09.65s0,.3,0,.48,0,.37,0,.57a4.32,4.32,0,0,0,.1.54,1.19,1.19,0,0,0,.2.44h-1.89a3.71,3.71,0,0,1-.19-1c0-.38-.06-.74-.11-1.08a1.75,1.75,0,0,0-.4-1,1.4,1.4,0,0,0-1-.31h-1.89v3.35H116V32.15ZM120,36a1.44,1.44,0,0,0,1-.29,1.21,1.21,0,0,0,.32-.94,1.16,1.16,0,0,0-.32-.9,1.44,1.44,0,0,0-1-.29h-2.07V36Z" style="fill:#fff"/><path d="M126.25,39.23a1.74,1.74,0,0,0,2,.11,1,1,0,0,0,.45-.54h1.5a2.82,2.82,0,0,1-1.1,1.59,3.27,3.27,0,0,1-1.8.48,3.45,3.45,0,0,1-1.32-.23,2.75,2.75,0,0,1-1-.67,3,3,0,0,1-.63-1,4,4,0,0,1-.22-1.32,3.65,3.65,0,0,1,.23-1.29,3,3,0,0,1,.65-1,3.08,3.08,0,0,1,1-.69,3.19,3.19,0,0,1,1.29-.25,2.78,2.78,0,0,1,2.35,1.12,3.44,3.44,0,0,1,.54,1.18A4.5,4.5,0,0,1,130.3,38h-4.47A1.69,1.69,0,0,0,126.25,39.23ZM128.17,36a1.17,1.17,0,0,0-.93-.34,1.52,1.52,0,0,0-.68.14,1.23,1.23,0,0,0-.43.34,1.39,1.39,0,0,0-.23.43,1.68,1.68,0,0,0-.07.41h2.77A1.9,1.9,0,0,0,128.17,36Z" style="fill:#fff"/><path d="M133,32.15v8.57h-1.7V32.15Z" style="fill:#fff"/><path d="M134.51,35.43a2,2,0,0,1,.68-.64,2.91,2.91,0,0,1,.91-.34,5.14,5.14,0,0,1,1-.1,7.69,7.69,0,0,1,1,.06,2.94,2.94,0,0,1,.87.26,1.79,1.79,0,0,1,.65.53,1.51,1.51,0,0,1,.25.91v3.23a6.73,6.73,0,0,0,.05.8,1.43,1.43,0,0,0,.17.58h-1.73a2.63,2.63,0,0,1-.08-.3c0-.1,0-.2,0-.3a2.28,2.28,0,0,1-1,.59,3.91,3.91,0,0,1-1.13.16,3.07,3.07,0,0,1-.82-.1,2.17,2.17,0,0,1-.68-.34,1.59,1.59,0,0,1-.45-.57A2.12,2.12,0,0,1,134,39a1.7,1.7,0,0,1,.19-.87,1.51,1.51,0,0,1,.48-.55,2.06,2.06,0,0,1,.67-.31c.25-.06.51-.12.76-.16l.76-.09a5,5,0,0,0,.66-.11,1.18,1.18,0,0,0,.45-.21.44.44,0,0,0,.16-.4.9.9,0,0,0-.09-.44.64.64,0,0,0-.24-.25,1,1,0,0,0-.35-.12,2.77,2.77,0,0,0-.42,0,1.36,1.36,0,0,0-.8.21,1,1,0,0,0-.33.72h-1.71A2.07,2.07,0,0,1,134.51,35.43Zm3.37,2.4a1.79,1.79,0,0,1-.35.09,2.28,2.28,0,0,1-.39.06l-.41.06-.37.1a1,1,0,0,0-.33.16.92.92,0,0,0-.22.26.78.78,0,0,0-.08.39.75.75,0,0,0,.08.39.69.69,0,0,0,.23.25,1.07,1.07,0,0,0,.33.12,1.75,1.75,0,0,0,.4,0,1.5,1.5,0,0,0,.78-.17,1.21,1.21,0,0,0,.41-.4,1.3,1.3,0,0,0,.16-.48,3.29,3.29,0,0,0,0-.38v-.64A.59.59,0,0,1,137.88,37.83Z" style="fill:#fff"/><path d="M144.08,35.63a1.19,1.19,0,0,0-.69.19,1.48,1.48,0,0,0-.45.48,2.23,2.23,0,0,0-.24.64,3.49,3.49,0,0,0-.07.71,3.21,3.21,0,0,0,.07.68,2.15,2.15,0,0,0,.23.63,1.38,1.38,0,0,0,.44.46,1.2,1.2,0,0,0,.67.18,1.23,1.23,0,0,0,.94-.34,1.64,1.64,0,0,0,.42-.92H147a2.75,2.75,0,0,1-.9,1.84,3,3,0,0,1-1.94.68l-.34.48h0a1.05,1.05,0,0,1,.4-.06,1.92,1.92,0,0,1,.41,0,1,1,0,0,1,.35.15.88.88,0,0,1,.25.26.7.7,0,0,1,.1.38,1.25,1.25,0,0,1-.12.58,1.08,1.08,0,0,1-.32.38,1.3,1.3,0,0,1-.45.19,3,3,0,0,1-.52,0,3.62,3.62,0,0,1-.49,0l-.36,0-.32-.08-.31-.11.25-.58a2.26,2.26,0,0,0,.44.15,2,2,0,0,0,.57.07.51.51,0,0,0,.34-.1.36.36,0,0,0,.14-.31.31.31,0,0,0-.14-.3.61.61,0,0,0-.34-.08,1.21,1.21,0,0,0-.48.08L143,41.7l.6-.86a3.39,3.39,0,0,1-1.11-.31,2.77,2.77,0,0,1-.85-.67,3,3,0,0,1-.56-1,3.76,3.76,0,0,1-.19-1.19,4.14,4.14,0,0,1,.21-1.34,3.07,3.07,0,0,1,.62-1.07,2.78,2.78,0,0,1,1-.7,3.34,3.34,0,0,1,1.34-.25,3.72,3.72,0,0,1,1.06.14,2.75,2.75,0,0,1,.91.44,2.42,2.42,0,0,1,.66.73,2.39,2.39,0,0,1,.29,1h-1.67A1.14,1.14,0,0,0,144.08,35.63Z" style="fill:#fff"/><path d="M148,36.27a3,3,0,0,1,.65-1,3,3,0,0,1,1-.66,3.93,3.93,0,0,1,2.65,0,2.85,2.85,0,0,1,1.66,1.69,3.9,3.9,0,0,1,.23,1.35,3.82,3.82,0,0,1-.23,1.35,2.83,2.83,0,0,1-.65,1,2.69,2.69,0,0,1-1,.66,4.1,4.1,0,0,1-2.65,0,2.73,2.73,0,0,1-1-.66,2.83,2.83,0,0,1-.65-1,3.82,3.82,0,0,1-.23-1.35A3.9,3.9,0,0,1,148,36.27Zm5-3.68a1.45,1.45,0,0,1-.22.45,1.29,1.29,0,0,1-.39.34,1.14,1.14,0,0,1-.59.14,1.72,1.72,0,0,1-.52-.07l-.47-.13-.43-.15a1.4,1.4,0,0,0-.41-.06.4.4,0,0,0-.34.14,1,1,0,0,0-.16.36h-.73a5.08,5.08,0,0,1,.15-.52,2,2,0,0,1,.27-.47,1.35,1.35,0,0,1,.43-.34,1.47,1.47,0,0,1,.66-.13,1,1,0,0,1,.39.07l.38.14.39.15a1.34,1.34,0,0,0,.4.06.52.52,0,0,0,.4-.13.35.35,0,0,0,.1-.29h.83C153.12,32.29,153.08,32.43,153,32.59Zm-3.49,5.76a1.89,1.89,0,0,0,.24.64,1.51,1.51,0,0,0,1.91.44,1.33,1.33,0,0,0,.47-.44,1.89,1.89,0,0,0,.24-.64,3.55,3.55,0,0,0,.08-.73,3.63,3.63,0,0,0-.08-.73,1.76,1.76,0,0,0-.24-.63,1.38,1.38,0,0,0-.47-.46,1.63,1.63,0,0,0-1.45,0,1.44,1.44,0,0,0-.46.46,1.76,1.76,0,0,0-.24.63,3.63,3.63,0,0,0-.08.73A3.55,3.55,0,0,0,149.53,38.35Z" style="fill:#fff"/><path d="M157,39.23a1.49,1.49,0,0,0,1.1.37,1.46,1.46,0,0,0,.89-.26,1.08,1.08,0,0,0,.46-.54H161a2.83,2.83,0,0,1-1.11,1.59,3.22,3.22,0,0,1-1.8.48,3.45,3.45,0,0,1-1.32-.23,2.63,2.63,0,0,1-1-.67,2.7,2.7,0,0,1-.63-1,3.73,3.73,0,0,1-.23-1.32,3.65,3.65,0,0,1,.23-1.29,3,3,0,0,1,.65-1,3.08,3.08,0,0,1,1-.69,3.19,3.19,0,0,1,1.29-.25,3,3,0,0,1,1.38.3,2.87,2.87,0,0,1,1,.82,3.44,3.44,0,0,1,.54,1.18,4,4,0,0,1,.12,1.38h-4.47A1.69,1.69,0,0,0,157,39.23ZM159,36a1.17,1.17,0,0,0-.93-.34,1.48,1.48,0,0,0-.67.14,1.27,1.27,0,0,0-.44.34,1.35,1.35,0,0,0-.22.43,1.73,1.73,0,0,0-.08.41h2.77A1.9,1.9,0,0,0,159,36Z" style="fill:#fff"/><path d="M163.48,39.18a.89.89,0,0,0,.29.32,1.18,1.18,0,0,0,.41.19,2,2,0,0,0,.49.06,1.73,1.73,0,0,0,.38,0,1.11,1.11,0,0,0,.36-.13.88.88,0,0,0,.27-.24.63.63,0,0,0,.11-.38c0-.25-.17-.44-.52-.57a9.58,9.58,0,0,0-1.42-.39c-.25-.05-.49-.12-.72-.19a2.63,2.63,0,0,1-.63-.3,1.55,1.55,0,0,1-.45-.47,1.35,1.35,0,0,1-.16-.69,1.8,1.8,0,0,1,.23-1,1.65,1.65,0,0,1,.62-.61,2.59,2.59,0,0,1,.86-.31,5.33,5.33,0,0,1,1-.09,5.18,5.18,0,0,1,1,.09,2.56,2.56,0,0,1,.85.33,2,2,0,0,1,.62.6,2.05,2.05,0,0,1,.29,1H165.7a.75.75,0,0,0-.37-.67,1.8,1.8,0,0,0-.79-.17,1.67,1.67,0,0,0-.31,0,.94.94,0,0,0-.31.07.58.58,0,0,0-.23.18.42.42,0,0,0-.1.3.47.47,0,0,0,.17.37,1.27,1.27,0,0,0,.43.24c.19.06.39.11.62.16l.71.16a6.05,6.05,0,0,1,.73.2,2.67,2.67,0,0,1,.63.32,1.42,1.42,0,0,1,.61,1.22,1.91,1.91,0,0,1-.25,1,1.87,1.87,0,0,1-.64.67,2.37,2.37,0,0,1-.91.35,5.07,5.07,0,0,1-1,.1,5.29,5.29,0,0,1-1.06-.1,3.27,3.27,0,0,1-.92-.36,2.11,2.11,0,0,1-.66-.67,2.16,2.16,0,0,1-.28-1h1.62A.9.9,0,0,0,163.48,39.18Z" style="fill:#fff"/><path d="M173.76,32.15v8.57h-1.88V32.15Z" style="fill:#fff"/><path d="M176.8,34.51v.87h0a1.93,1.93,0,0,1,.84-.79,2.44,2.44,0,0,1,1-.24,3,3,0,0,1,1.12.18,1.62,1.62,0,0,1,.69.52,2,2,0,0,1,.36.8,4.93,4.93,0,0,1,.1,1v3.82h-1.7V37.21a2.15,2.15,0,0,0-.24-1.14,1,1,0,0,0-.86-.38,1.15,1.15,0,0,0-1,.42,2.27,2.27,0,0,0-.32,1.36v3.25h-1.7V34.51Z" style="fill:#fff"/><path d="M185.64,34.51v1.14H184.4v3.08a.8.8,0,0,0,.14.57.82.82,0,0,0,.58.15l.27,0a1,1,0,0,0,.25,0v1.32l-.48.05h-.51a4.38,4.38,0,0,1-.75-.06,1.57,1.57,0,0,1-.63-.21,1.05,1.05,0,0,1-.42-.44,1.49,1.49,0,0,1-.16-.75V35.65h-1V34.51h1V32.65h1.71v1.86Z" style="fill:#fff"/><path d="M188.22,39.23a1.54,1.54,0,0,0,1.11.37,1.48,1.48,0,0,0,.89-.26,1.05,1.05,0,0,0,.45-.54h1.5a2.87,2.87,0,0,1-1.1,1.59,3.27,3.27,0,0,1-1.8.48,3.45,3.45,0,0,1-1.32-.23,2.67,2.67,0,0,1-1-.67,3,3,0,0,1-.63-1,3.73,3.73,0,0,1-.22-1.32,3.65,3.65,0,0,1,.23-1.29,3,3,0,0,1,.65-1,3.08,3.08,0,0,1,1-.69,3.19,3.19,0,0,1,1.29-.25,3,3,0,0,1,1.38.3,2.83,2.83,0,0,1,1,.82,3.28,3.28,0,0,1,.55,1.18,4.5,4.5,0,0,1,.12,1.38H187.8A1.79,1.79,0,0,0,188.22,39.23ZM190.15,36a1.17,1.17,0,0,0-.93-.34,1.52,1.52,0,0,0-.68.14,1.23,1.23,0,0,0-.43.34,1.39,1.39,0,0,0-.23.43,2.45,2.45,0,0,0-.08.41h2.78A2,2,0,0,0,190.15,36Z" style="fill:#fff"/><path d="M194.85,34.51v1.16h0a2,2,0,0,1,.33-.54,2.3,2.3,0,0,1,.46-.42,3,3,0,0,1,.57-.27,2.16,2.16,0,0,1,.62-.09,1.29,1.29,0,0,1,.37.06V36l-.28,0-.33,0a1.74,1.74,0,0,0-.79.16,1.28,1.28,0,0,0-.52.42,1.64,1.64,0,0,0-.28.63,3.21,3.21,0,0,0-.09.78v2.8h-1.7V34.51Z" style="fill:#fff"/><path d="M199.46,34.51v.87h0a2,2,0,0,1,.84-.79,2.52,2.52,0,0,1,1.06-.24,3,3,0,0,1,1.12.18,1.75,1.75,0,0,1,.69.52,1.88,1.88,0,0,1,.35.8,4.9,4.9,0,0,1,.11,1v3.82H202V37.21a2.15,2.15,0,0,0-.24-1.14.93.93,0,0,0-.85-.38,1.18,1.18,0,0,0-1,.42,2.27,2.27,0,0,0-.31,1.36v3.25h-1.7V34.51Z" style="fill:#fff"/><path d="M205.12,35.43a2,2,0,0,1,.67-.64,3,3,0,0,1,.92-.34,5.07,5.07,0,0,1,1-.1,7.54,7.54,0,0,1,.94.06,3,3,0,0,1,.88.26,1.88,1.88,0,0,1,.65.53,1.51,1.51,0,0,1,.25.91v3.23a6.73,6.73,0,0,0,0,.8,1.43,1.43,0,0,0,.17.58H209a2.63,2.63,0,0,1-.08-.3c0-.1,0-.2,0-.3a2.28,2.28,0,0,1-1,.59,4,4,0,0,1-1.13.16,3.15,3.15,0,0,1-.83-.1,2.12,2.12,0,0,1-.67-.34,1.59,1.59,0,0,1-.45-.57,2,2,0,0,1-.16-.83,1.82,1.82,0,0,1,.18-.87,1.72,1.72,0,0,1,.48-.55,2.12,2.12,0,0,1,.68-.31c.25-.06.5-.12.76-.16l.75-.09a5,5,0,0,0,.66-.11,1.16,1.16,0,0,0,.46-.21.49.49,0,0,0,.16-.4.9.9,0,0,0-.09-.44.64.64,0,0,0-.24-.25,1,1,0,0,0-.35-.12,2.9,2.9,0,0,0-.43,0,1.32,1.32,0,0,0-.79.21,1,1,0,0,0-.34.72h-1.7A1.87,1.87,0,0,1,205.12,35.43Zm3.37,2.4a2,2,0,0,1-.35.09,2.63,2.63,0,0,1-.39.06l-.41.06-.38.1a1.07,1.07,0,0,0-.32.16.78.78,0,0,0-.22.26.78.78,0,0,0-.09.39.75.75,0,0,0,.09.39.67.67,0,0,0,.22.25,1.14,1.14,0,0,0,.34.12,1.75,1.75,0,0,0,.4,0,1.56,1.56,0,0,0,.78-.17,1.09,1.09,0,0,0,.4-.4,1.32,1.32,0,0,0,.17-.48,3.29,3.29,0,0,0,0-.38v-.64A.72.72,0,0,1,208.49,37.83Z" style="fill:#fff"/><path d="M214.68,35.63a1.14,1.14,0,0,0-.68.19,1.38,1.38,0,0,0-.45.48,2,2,0,0,0-.25.64,4.38,4.38,0,0,0-.07.71,4,4,0,0,0,.07.68,2.17,2.17,0,0,0,.24.63,1.26,1.26,0,0,0,.43.46,1.43,1.43,0,0,0,1.62-.16,1.57,1.57,0,0,0,.41-.92h1.65a2.79,2.79,0,0,1-1,1.89,3.12,3.12,0,0,1-2,.64,3.31,3.31,0,0,1-1.28-.23,2.71,2.71,0,0,1-1-.65,3,3,0,0,1-.63-1,3.35,3.35,0,0,1-.23-1.28,4.14,4.14,0,0,1,.21-1.34,2.92,2.92,0,0,1,.62-1.07,2.83,2.83,0,0,1,1-.7,3.34,3.34,0,0,1,1.34-.25,3.79,3.79,0,0,1,1.07.14,2.85,2.85,0,0,1,.91.44,2.28,2.28,0,0,1,.94,1.77h-1.67A1.14,1.14,0,0,0,214.68,35.63Z" style="fill:#fff"/><path d="M218.6,33.55v-1.4h1.7v1.4Zm1.7,1v6.21h-1.7V34.51Z" style="fill:#fff"/><path d="M221.62,36.27a3,3,0,0,1,.65-1,3,3,0,0,1,1-.66,3.93,3.93,0,0,1,2.65,0,3,3,0,0,1,1,.66,2.82,2.82,0,0,1,.65,1,3.9,3.9,0,0,1,.23,1.35,3.82,3.82,0,0,1-.23,1.35,2.87,2.87,0,0,1-1.66,1.68,4.1,4.1,0,0,1-2.65,0,2.73,2.73,0,0,1-1-.66,2.83,2.83,0,0,1-.65-1,3.82,3.82,0,0,1-.23-1.35A3.9,3.9,0,0,1,221.62,36.27Zm1.55,2.08a2.12,2.12,0,0,0,.24.64,1.34,1.34,0,0,0,1.19.61,1.37,1.37,0,0,0,.72-.17,1.33,1.33,0,0,0,.47-.44,1.89,1.89,0,0,0,.24-.64,3.55,3.55,0,0,0,.08-.73,3.63,3.63,0,0,0-.08-.73,1.76,1.76,0,0,0-.24-.63,1.38,1.38,0,0,0-.47-.46,1.47,1.47,0,0,0-.72-.17,1.42,1.42,0,0,0-.72.17,1.38,1.38,0,0,0-.47.46,2,2,0,0,0-.24.63,3.61,3.61,0,0,0-.07.73A3.54,3.54,0,0,0,223.17,38.35Z" style="fill:#fff"/><path d="M230.47,34.51v.87h0a2,2,0,0,1,.84-.79,2.52,2.52,0,0,1,1.06-.24,3,3,0,0,1,1.12.18,1.75,1.75,0,0,1,.69.52,1.88,1.88,0,0,1,.35.8,4.9,4.9,0,0,1,.11,1v3.82H233V37.21a2.15,2.15,0,0,0-.24-1.14.93.93,0,0,0-.85-.38,1.18,1.18,0,0,0-1,.42,2.27,2.27,0,0,0-.31,1.36v3.25h-1.7V34.51Z" style="fill:#fff"/><path d="M236.14,35.43a2,2,0,0,1,.67-.64,3,3,0,0,1,.92-.34,5.07,5.07,0,0,1,1-.1,7.54,7.54,0,0,1,.94.06,3.1,3.1,0,0,1,.88.26,1.88,1.88,0,0,1,.65.53,1.58,1.58,0,0,1,.25.91v3.23a6.73,6.73,0,0,0,.05.8,1.45,1.45,0,0,0,.16.58H240a1.47,1.47,0,0,1-.08-.3,1.54,1.54,0,0,1,0-.3,2.34,2.34,0,0,1-1,.59,4,4,0,0,1-1.13.16,3.15,3.15,0,0,1-.83-.1,2.12,2.12,0,0,1-.67-.34,1.59,1.59,0,0,1-.45-.57,2,2,0,0,1-.16-.83,1.82,1.82,0,0,1,.18-.87,1.72,1.72,0,0,1,.48-.55,2.16,2.16,0,0,1,.67-.31c.26-.06.51-.12.77-.16l.75-.09a5,5,0,0,0,.66-.11,1.23,1.23,0,0,0,.46-.21.46.46,0,0,0,.15-.4.8.8,0,0,0-.09-.44.53.53,0,0,0-.24-.25.86.86,0,0,0-.34-.12,2.9,2.9,0,0,0-.43,0,1.32,1.32,0,0,0-.79.21,1,1,0,0,0-.34.72h-1.7A1.87,1.87,0,0,1,236.14,35.43Zm3.37,2.4a2,2,0,0,1-.35.09,2.63,2.63,0,0,1-.39.06l-.41.06-.38.1a1.07,1.07,0,0,0-.32.16.82.82,0,0,0-.23.26.9.9,0,0,0-.08.39.87.87,0,0,0,.08.39.79.79,0,0,0,.23.25,1.14,1.14,0,0,0,.34.12,1.72,1.72,0,0,0,.39,0,1.57,1.57,0,0,0,.79-.17,1.18,1.18,0,0,0,.4-.4,1.54,1.54,0,0,0,.17-.48c0-.16,0-.29,0-.38v-.64A.61.61,0,0,1,239.51,37.83Z" style="fill:#fff"/><path d="M242.79,33.55v-1.4h1.7v1.4Zm1.7,1v6.21h-1.7V34.51Z" style="fill:#fff"/><path d="M247.21,39.18a.89.89,0,0,0,.29.32,1.15,1.15,0,0,0,.42.19,1.86,1.86,0,0,0,.48.06,1.73,1.73,0,0,0,.38,0,1.11,1.11,0,0,0,.36-.13.78.78,0,0,0,.27-.24.63.63,0,0,0,.11-.38q0-.37-.51-.57a10.34,10.34,0,0,0-1.42-.39c-.25-.05-.49-.12-.73-.19a2.63,2.63,0,0,1-.63-.3,1.52,1.52,0,0,1-.44-.47,1.26,1.26,0,0,1-.17-.69,1.89,1.89,0,0,1,.23-1,1.73,1.73,0,0,1,.62-.61,2.67,2.67,0,0,1,.86-.31,5.44,5.44,0,0,1,2,0,2.59,2.59,0,0,1,.84.33,1.87,1.87,0,0,1,.62.6,2.05,2.05,0,0,1,.29,1h-1.62a.73.73,0,0,0-.37-.67,1.77,1.77,0,0,0-.79-.17,1.67,1.67,0,0,0-.31,0,1,1,0,0,0-.31.07.58.58,0,0,0-.23.18.42.42,0,0,0-.1.3.47.47,0,0,0,.17.37,1.23,1.23,0,0,0,.44.24,5.52,5.52,0,0,0,.62.16l.7.16a6.05,6.05,0,0,1,.73.2,2.33,2.33,0,0,1,.63.32,1.48,1.48,0,0,1,.44.49,1.39,1.39,0,0,1,.17.73,1.86,1.86,0,0,1-.89,1.69,2.39,2.39,0,0,1-.9.35,5.16,5.16,0,0,1-1,.1,5.36,5.36,0,0,1-1.06-.1,3.09,3.09,0,0,1-.91-.36,2,2,0,0,1-.66-.67,2.05,2.05,0,0,1-.29-1h1.62A.9.9,0,0,0,247.21,39.18Z" style="fill:#fff"/><path d="M280.33,31.31a.81.81,0,0,1,.18.19,1,1,0,0,1,.16-.24.76.76,0,0,1-.19-.12Z" style="fill:#fff"/><path d="M279.11,20.19a2.46,2.46,0,0,1-2-1,1.27,1.27,0,0,1-.39.12,1.49,1.49,0,0,1,.08.52,1.84,1.84,0,0,1-.05.41,2.35,2.35,0,0,1,2,1.59l.26-.13a2,2,0,0,1-.05-.48,2.4,2.4,0,0,1,.22-1Z" style="fill:#fff"/><path d="M282.74,15.61a1,1,0,0,1,.64-.63,1,1,0,0,1-.14-.3,2.27,2.27,0,0,1-1.09.28,2.29,2.29,0,0,1-1.71-.77,2.31,2.31,0,0,1-.6,1.16,2.35,2.35,0,0,1,.85.46,1.59,1.59,0,0,1,1.14-.48A1.66,1.66,0,0,1,282.74,15.61Z" style="fill:#fff"/><path d="M284.51,18.08a1.89,1.89,0,0,1,.89-1.21,1.82,1.82,0,0,1-.51-1.09h-.26a.53.53,0,0,1,0,.13,1,1,0,0,1-1,1,.76.76,0,0,1-.21,0s0,.08,0,.11a1.63,1.63,0,0,1-1.64,1.63,1.72,1.72,0,0,1-.39,0,2.41,2.41,0,0,1-.15.33,2.45,2.45,0,0,1,1.28.4,1.66,1.66,0,0,1,1.61-1.23A1.69,1.69,0,0,1,284.51,18.08Z" style="fill:#fff"/><path d="M285.5,20.77a1.66,1.66,0,0,1-1.32.64,1.59,1.59,0,0,1-.62-.12,2.25,2.25,0,0,1-.2.82,4.2,4.2,0,0,1,1.09,1.21,2,2,0,0,1,.86-.19,2.22,2.22,0,0,1,.37,0,1.09,1.09,0,0,1,0-.26,1.84,1.84,0,0,1,.51-1.26A2.37,2.37,0,0,1,285.5,20.77Z" style="fill:#fff"/><path d="M287.31,25.44h0Z" style="fill:#fff"/><path d="M277.79,28.43l-.37.19a1.92,1.92,0,0,1,.17.44,1.72,1.72,0,0,1,.41-.44l-.21-.19Z" style="fill:#fff"/><path d="M278.26,11.46Z" style="fill:#fff"/><path d="M279.28,33a.43.43,0,0,1,0,.11.36.36,0,0,0,0-.1Z" style="fill:#fff"/><path d="M293,26.29h0a4.51,4.51,0,0,1-.44-.77A2.39,2.39,0,0,1,292,26a1.55,1.55,0,0,1,.34.55A2.07,2.07,0,0,1,293,26.29Z" style="fill:#fff"/><path d="M273.26,24.75a1.28,1.28,0,0,1-.14.23,1.29,1.29,0,0,1,.25.46,1.8,1.8,0,0,1,.55-.24,2.59,2.59,0,0,1,.14-.29h-.16A1.28,1.28,0,0,1,273.26,24.75Z" style="fill:#fff"/><path d="M296.07,30.67a2.21,2.21,0,0,1-.49-.52,2,2,0,0,1-.31.34,1.35,1.35,0,0,1,.66.34Z" style="fill:#fff"/><path d="M329.76,26.61a3.36,3.36,0,0,0,.74-1.24,5.36,5.36,0,0,0,.28-1.86,7.83,7.83,0,0,0-.19-1.82A3.79,3.79,0,0,0,330,20.3a2.88,2.88,0,0,0-1.19-.88,4.59,4.59,0,0,0-1.81-.31h-2.09v8.38h2.6a4,4,0,0,0,1.24-.2A2.79,2.79,0,0,0,329.76,26.61Z" style="fill:#fff"/><path d="M287.47,24.72h-.18a2.12,2.12,0,0,1,0,.44,2.64,2.64,0,0,1,0,.29,1.28,1.28,0,0,1,.39.13,1.29,1.29,0,0,1,.92-.76,2.36,2.36,0,0,1-.08-.45A1.82,1.82,0,0,1,287.47,24.72Z" style="fill:#fff"/><path d="M288.87,21.74a1.82,1.82,0,0,1,.39.83,2.45,2.45,0,0,1,.5-.34,3.08,3.08,0,0,1-.38-1A2.16,2.16,0,0,1,288.87,21.74Z" style="fill:#fff"/><path d="M349.76,0H266a2,2,0,0,0-2,2V45.26a2,2,0,0,0,2,2h83.78a2,2,0,0,0,2-2V2A2,2,0,0,0,349.76,0Zm-14,16.65h9.35v2.46h-6.43v3.07h5.57v2.27h-5.57V30h-2.92Zm-13.8,0h5.73a7,7,0,0,1,2.4.41A5.19,5.19,0,0,1,332,18.29a5.64,5.64,0,0,1,1.26,2.05,8.15,8.15,0,0,1,.46,2.89,9.54,9.54,0,0,1-.37,2.68A5.91,5.91,0,0,1,332.21,28a5.21,5.21,0,0,1-1.88,1.41,6.41,6.41,0,0,1-2.66.51h-5.73Zm-14.28,3.94A6.76,6.76,0,0,1,309,18.36,5.87,5.87,0,0,1,311,16.87a6.71,6.71,0,0,1,2.75-.54,6.31,6.31,0,0,1,2,.31,5.81,5.81,0,0,1,1.73.9A4.88,4.88,0,0,1,319.36,21h-2.79a2.76,2.76,0,0,0-1-1.68,2.9,2.9,0,0,0-1.8-.56,3.48,3.48,0,0,0-1.68.38,3.26,3.26,0,0,0-1.12,1,4.35,4.35,0,0,0-.62,1.46,7.32,7.32,0,0,0-.2,1.7,6.86,6.86,0,0,0,.2,1.63,4.32,4.32,0,0,0,.62,1.42,3.33,3.33,0,0,0,1.12,1,3.48,3.48,0,0,0,1.68.38,2.86,2.86,0,0,0,3.16-2.87H314V22.76h5.59V30h-1.86l-.3-1.51a4.43,4.43,0,0,1-1.73,1.41,5.08,5.08,0,0,1-1.92.4,6.88,6.88,0,0,1-2.75-.53A5.93,5.93,0,0,1,309,28.26a6.57,6.57,0,0,1-1.29-2.19,8.28,8.28,0,0,1-.44-2.71A8.51,8.51,0,0,1,307.66,20.59Zm-9.35-8.72a.86.86,0,1,1-.85.86A.85.85,0,0,1,298.31,11.87Zm-1.19,1.27a.77.77,0,1,1-.77-.77A.77.77,0,0,1,297.12,13.14ZM296.64,15a.91.91,0,1,1-.91-.91A.9.9,0,0,1,296.64,15Zm-2.13-4.09A1,1,0,0,1,295,11a.77.77,0,1,1,.77.77.76.76,0,0,1-.27,0v.12a1,1,0,1,1-.95-.95Zm-2.24-2.83a1,1,0,0,1,.57,1.73,1.23,1.23,0,0,1-.44,2.38,1.26,1.26,0,0,1-.43-.08.66.66,0,0,1,0,.14,2,2,0,1,1-2-2,1.94,1.94,0,0,1,1.21.41h0a1.25,1.25,0,0,1,.6-.8,1,1,0,0,1-.49-.84A1,1,0,0,1,292.27,8.07Zm-2.64-1.35A1.61,1.61,0,1,1,288,8.33,1.62,1.62,0,0,1,289.63,6.72Zm-3.91,0a.7.7,0,1,1-.7.7A.7.7,0,0,1,285.72,6.71ZM283,6.93a.85.85,0,1,1,0,1.7.85.85,0,0,1,0-1.7Zm-2.42.68a1,1,0,1,1-1,1A1,1,0,0,1,280.56,7.61ZM273.68,14a.86.86,0,1,1-.86.86A.86.86,0,0,1,273.68,14ZM272,19.64a.8.8,0,0,1,.79.79.79.79,0,0,1-.79.78.78.78,0,0,1-.78-.78A.79.79,0,0,1,272,19.64Zm15.36,11.48a.49.49,0,1,1,.49.49A.49.49,0,0,1,287.31,31.12Zm57.83,9.44H292.59a5.17,5.17,0,0,1-3.35-1.23,4.94,4.94,0,0,1-1.31-3.72,5.14,5.14,0,0,1,1.5-3.87,7.34,7.34,0,0,1,2.32-1.54,2.46,2.46,0,0,1-.59-1.5l-.31,0a1.07,1.07,0,0,1-1.07,1,1.08,1.08,0,0,1-.52-2,2.81,2.81,0,0,1-.08-.31l-.27,0a1.27,1.27,0,0,1-.82-.3,1.1,1.1,0,0,1-1.92-.12,2.08,2.08,0,0,1-.86.19,2,2,0,0,1-.15,1.54.91.91,0,1,1-1.43,1l-.32,0a1.68,1.68,0,0,1-.45-.05v.1a1.4,1.4,0,0,1-.1.35,7.41,7.41,0,0,1,2.42,1.59,5.37,5.37,0,0,1-.14,7.59A4.83,4.83,0,0,1,282,40.57H270.67v-.42h11.16a4.54,4.54,0,0,0,3-1.12,4.7,4.7,0,0,0,1.51-3.41A4.75,4.75,0,0,0,285,32.05a7.1,7.1,0,0,0-2.24-1.48,1.52,1.52,0,0,1-.73.71.88.88,0,0,1,.24.61.91.91,0,0,1-.91.91.94.94,0,0,1-.68-.3,1.06,1.06,0,0,1-1,.7,1.23,1.23,0,0,1-.39-.07.85.85,0,1,1-.81-1.08h.13a1.59,1.59,0,0,1,.06-.3,1.8,1.8,0,0,1-1.29-1.28,1.76,1.76,0,0,1-.45.49,1.32,1.32,0,1,1-2.12,1,1.3,1.3,0,0,1,.29-.82l-.17-.09a1.21,1.21,0,1,1-.92-2h0a1.82,1.82,0,0,1,.22-.56h0a1.71,1.71,0,0,1-1.59-1.7,1.15,1.15,0,0,1,0-.19,2,2,0,0,1-.24,0,.78.78,0,0,1,.08.35.86.86,0,0,1-.86.85.85.85,0,0,1-.09-1.7,1,1,0,0,1-.14-.52,1,1,0,0,1,.32-.73h0a.92.92,0,0,1-.19-.56.91.91,0,0,1,.91-.91h.12a1.54,1.54,0,0,1,0-.31h0a.84.84,0,0,1-.49-.15.79.79,0,0,1-.74.52.79.79,0,0,1,0-1.57.87.87,0,0,1,.39.1.87.87,0,0,1,1.72.21,1.28,1.28,0,0,1,.48-.09,1,1,0,0,1,.3,0h0a2.37,2.37,0,0,1,.26-.79,1.75,1.75,0,0,1-1.17-1.65,1.73,1.73,0,0,1,.22-.85.89.89,0,0,1-.58-.46.67.67,0,0,1-.39.12.74.74,0,1,1,0-1.47.75.75,0,0,1,.59.3.87.87,0,0,1,.6-.24.89.89,0,0,1,.89.89h0A1.93,1.93,0,0,1,275,18h.1a.53.53,0,0,1,0-.13,1.24,1.24,0,0,1,0-.27,1.23,1.23,0,0,1-.89-1.17,1.22,1.22,0,1,1,2.43,0v.09h0l.2.05a2.52,2.52,0,0,1,.51-.7,2.3,2.3,0,0,1-1.53-2.14,1,1,0,0,1-.55.15,1.12,1.12,0,0,1,0-2.24,1.13,1.13,0,0,1,1,.66,2,2,0,0,1,.52-.49,1.14,1.14,0,0,1-.67-1,1.12,1.12,0,1,1,2.05.62,3.16,3.16,0,0,1,.32,0v0a1.63,1.63,0,0,1,2.91-1,2.27,2.27,0,0,1,.58-.1A1.68,1.68,0,0,1,283.72,9a1.66,1.66,0,0,1,1,.31,2,2,0,1,1,.28,2.52,1.81,1.81,0,0,1-.57.41,2.13,2.13,0,0,1,0,.25l.36,0a1.66,1.66,0,0,1,1.6,1.2,1.75,1.75,0,0,1,.4,0,1.92,1.92,0,0,1,1.89,1.59,2.16,2.16,0,0,1,.81-.15,2.25,2.25,0,0,1,2.13,1.53,1.34,1.34,0,0,1,.35-.05A1.48,1.48,0,0,1,293.46,18a2.83,2.83,0,0,1,.67.4,2.06,2.06,0,0,1,.41-.23,1.23,1.23,0,0,1-.41-.91V17.1a1,1,0,0,1-.25,0,1,1,0,0,1-1-1,1.11,1.11,0,0,1,.07-.37h0a1.48,1.48,0,1,1,1.46-.56,1.05,1.05,0,0,1,.56.93h0a1.15,1.15,0,0,1,.41-.08,1.22,1.22,0,0,1,.9,2,2.44,2.44,0,0,1,1.66,1.75,2.07,2.07,0,0,1,.34.15h0a1.82,1.82,0,0,1,.18-.51,1.92,1.92,0,0,1,.14-2.87,1.33,1.33,0,0,1-.14-.57.89.89,0,0,1-.36.07,1,1,0,1,1,1-1.26,1.4,1.4,0,0,1,.67-.18A1.32,1.32,0,0,1,301.08,16a1.45,1.45,0,0,1-.13.59,1.93,1.93,0,0,1,.75,1.52,2.64,2.64,0,0,1,0,.29,1.91,1.91,0,0,1,.68-.13,1.77,1.77,0,0,1,.22,3.54,1.55,1.55,0,0,1,.07.48,1.89,1.89,0,0,1-.56,1.35,1.16,1.16,0,0,1,.4.88,1.18,1.18,0,0,1-.89,1.14,2.48,2.48,0,0,1,0,.27,1.52,1.52,0,0,1-.34,1,1,1,0,1,1-1.24.95,1,1,0,0,1,.08-.39h0a1.51,1.51,0,0,1-1-.34,3.72,3.72,0,0,1-.56.39,2,2,0,0,1-.12,3.23,1.64,1.64,0,0,1,.47,1.15,1.68,1.68,0,0,1-3,1,1.43,1.43,0,0,1-.94.36h-.08v.06a1.1,1.1,0,1,1-1.25-1.09,1.27,1.27,0,0,1,0-.34,1.35,1.35,0,0,1,.21-.72h-.19a2.42,2.42,0,0,1-1.56-.6,7.22,7.22,0,0,0-2.32,1.52,4.75,4.75,0,0,0-1.38,3.56A4.52,4.52,0,0,0,289.54,39a4.86,4.86,0,0,0,3.18,1.12h52.42ZM286.2,30.8a.51.51,0,1,1,.51-.51A.51.51,0,0,1,286.2,30.8Zm.46.7a.38.38,0,1,1-.37-.37A.37.37,0,0,1,286.66,31.5Zm-3.54.83a.56.56,0,0,1-.55-.56.56.56,0,0,1,1.11,0A.56.56,0,0,1,283.12,32.33ZM284,33a.36.36,0,1,1-.36-.36A.36.36,0,0,1,284,33Zm-1.17.29a.41.41,0,0,1,.41.41.41.41,0,1,1-.81,0A.41.41,0,0,1,282.87,33.25Zm7.33-.76a.82.82,0,1,1,1.63,0,.86.86,0,0,1-.09.39.87.87,0,0,1,0,1.73.87.87,0,0,1-.87-.87.8.8,0,0,1,.12-.43A.83.83,0,0,1,290.2,32.49Zm.36,1.31a.48.48,0,0,1-.48.49.49.49,0,0,1,0-1A.48.48,0,0,1,290.56,33.8Z" style="fill:#fff"/></svg>