<svg xmlns="http://www.w3.org/2000/svg" viewBox="0 0 912 142"><path d="M0,8.64H117V.42h43v88h34.37v42.72H0ZM117,88.5V51.71l-74,.47V88.5Z" style="fill:#fff"/><path d="M244.39,51l-4.06-11.3H224.77l-4,11.3h-7L229,10.1h7.24L251.46,51Zm-5.81-17-3.82-11.08c-.27-.75-.66-1.92-1.17-3.5s-.8-2.76-1-3.51a59.27,59.27,0,0,1-2.2,7.49l-3.67,10.6Z" style="fill:#fff"/><path d="M276.25,42.18A8.05,8.05,0,0,1,273,49.11c-2.2,1.59-5.32,2.4-9.41,2.4a22.06,22.06,0,0,1-9.87-1.87V44a24.22,24.22,0,0,0,10.1,2.51c4,0,6-1.23,6-3.65a2.94,2.94,0,0,0-.67-2,7.71,7.71,0,0,0-2.2-1.61,36.14,36.14,0,0,0-4.26-1.89c-3.53-1.37-5.95-2.76-7.18-4.12a7.47,7.47,0,0,1-1.89-5.34,7.06,7.06,0,0,1,3.17-6.15c2.14-1.45,5-2.17,8.68-2.17a24.48,24.48,0,0,1,10.27,2.19l-2.11,4.93a23.09,23.09,0,0,0-8.38-2.06c-3.45,0-5.17,1-5.17,2.95a3,3,0,0,0,1.33,2.45,30.39,30.39,0,0,0,5.9,2.75,27.66,27.66,0,0,1,5.54,2.7,7.52,7.52,0,0,1,3.39,6.65Z" style="fill:#fff"/><path d="M303.41,42.18a8.05,8.05,0,0,1-3.28,6.93c-2.2,1.59-5.32,2.4-9.41,2.4a22.13,22.13,0,0,1-9.88-1.87V44A24.29,24.29,0,0,0,291,46.5c4,0,6-1.23,6-3.65a2.93,2.93,0,0,0-.66-2,7.71,7.71,0,0,0-2.2-1.61,36.14,36.14,0,0,0-4.26-1.89c-3.53-1.37-5.95-2.76-7.18-4.12a7.47,7.47,0,0,1-1.89-5.34A7.06,7.06,0,0,1,284,21.79c2.14-1.45,5-2.17,8.68-2.17a24.48,24.48,0,0,1,10.27,2.19l-2.11,4.93a23.13,23.13,0,0,0-8.38-2.06c-3.45,0-5.17,1-5.17,2.95a3,3,0,0,0,1.33,2.45,30.39,30.39,0,0,0,5.9,2.75,27.66,27.66,0,0,1,5.54,2.7,8.07,8.07,0,0,1,2.56,2.84A8.21,8.21,0,0,1,303.41,42.18Z" style="fill:#fff"/><path d="M337.22,35.5c0,5-1.28,9-3.87,11.78s-6.17,4.23-10.76,4.23A14.66,14.66,0,0,1,315,49.56a13,13,0,0,1-5.09-5.6,18.88,18.88,0,0,1-1.78-8.46q0-7.47,3.84-11.68c2.56-2.81,6.18-4.2,10.82-4.2,4.45,0,8,1.44,10.58,4.28S337.22,30.64,337.22,35.5Zm-22.4,0q0,10.65,7.88,10.66t7.79-10.66c0-7-2.62-10.54-7.85-10.54-2.75,0-4.73.92-6,2.73S314.82,32.11,314.82,35.5Z" style="fill:#fff"/><path d="M356.56,51.51c-4.64,0-8.18-1.37-10.63-4.07s-3.62-6.62-3.62-11.71,1.28-9.16,3.79-11.94,6.2-4.17,11-4.17a20.76,20.76,0,0,1,8.77,1.8l-2,5.26A19.6,19.6,0,0,0,357,25.07q-8,0-8,10.6,0,5.17,2,7.77a6.81,6.81,0,0,0,5.82,2.61,16.64,16.64,0,0,0,8.26-2.17v5.71a13.31,13.31,0,0,1-3.73,1.47A21.77,21.77,0,0,1,356.56,51.51Z" style="fill:#fff"/><path d="M371.42,12a3.76,3.76,0,0,1,.95-2.7,3.77,3.77,0,0,1,2.75-1,3.72,3.72,0,0,1,2.7,1,3.76,3.76,0,0,1,.95,2.7,3.75,3.75,0,0,1-.95,2.64,3.86,3.86,0,0,1-2.7.95,3.9,3.9,0,0,1-2.75-.95A3.75,3.75,0,0,1,371.42,12ZM378.35,51h-6.54V20.17h6.54Z" style="fill:#fff"/><path d="M406.37,51l-1.31-4.29h-.22a12.74,12.74,0,0,1-4.48,3.84,14.25,14.25,0,0,1-5.79,1c-3,0-5.39-.81-7.06-2.45A9.09,9.09,0,0,1,385,42.13,8.1,8.1,0,0,1,388.48,35c2.37-1.62,5.95-2.51,10.77-2.65l5.31-.16V30.5a6.43,6.43,0,0,0-1.36-4.43,5.86,5.86,0,0,0-4.29-1.45,14.55,14.55,0,0,0-4.53.7A33.15,33.15,0,0,0,390.21,27l-2.12-4.67a24.27,24.27,0,0,1,5.48-2,26.06,26.06,0,0,1,5.62-.66c3.93,0,6.88.86,8.85,2.56s3,4.39,3,8V51Zm-9.74-4.45a8.13,8.13,0,0,0,5.74-2,7.22,7.22,0,0,0,2.14-5.56V36.26l-3.95.16c-3.09.11-5.32.62-6.71,1.56a4.6,4.6,0,0,0-2.11,4.2,4.21,4.21,0,0,0,1.22,3.2A5.33,5.33,0,0,0,396.63,46.5Z" style="fill:#fff"/><path d="M431.08,46.22a16,16,0,0,0,4.79-.75v4.92a12.52,12.52,0,0,1-2.78.78,19.12,19.12,0,0,1-3.57.34q-9.3,0-9.29-9.8V25.13H416v-2.9l4.51-2.39,2.22-6.51h4v6.84h8.76v5H426.8V41.6A4.72,4.72,0,0,0,428,45.11,4.48,4.48,0,0,0,431.08,46.22Z" style="fill:#fff"/><path d="M441.05,12a3.75,3.75,0,0,1,.94-2.7,3.78,3.78,0,0,1,2.76-1,3.72,3.72,0,0,1,2.7,1,3.75,3.75,0,0,1,.94,2.7,3.75,3.75,0,0,1-.94,2.64,3.86,3.86,0,0,1-2.7.95,3.91,3.91,0,0,1-2.76-.95A3.75,3.75,0,0,1,441.05,12ZM448,51h-6.54V20.17H448Z" style="fill:#fff"/><path d="M484.07,35.5c0,5-1.28,9-3.87,11.78s-6.18,4.23-10.77,4.23a14.66,14.66,0,0,1-7.63-1.95,13.12,13.12,0,0,1-5.09-5.6,19,19,0,0,1-1.78-8.46q0-7.47,3.84-11.68c2.56-2.81,6.18-4.2,10.83-4.2,4.45,0,8,1.44,10.57,4.28S484.07,30.64,484.07,35.5Zm-22.41,0q0,10.65,7.88,10.66t7.79-10.66c0-7-2.61-10.54-7.85-10.54-2.75,0-4.73.92-6,2.73S461.66,32.11,461.66,35.5Z" style="fill:#fff"/><path d="M518.07,51H511.5V32a8.34,8.34,0,0,0-1.42-5.32A5.56,5.56,0,0,0,505.52,25c-2.75,0-4.79.81-6.07,2.45s-1.92,4.37-1.92,8.21V51H491V20.17h5.12l.92,4h.34a9.09,9.09,0,0,1,3.95-3.4A13.16,13.16,0,0,1,507,19.62q11.06,0,11.07,11.27Z" style="fill:#fff"/><path d="M556.28,25.13h-7.52V51H542.2V25.13h-5.07V22.06l5.07-2v-2c0-3.65.86-6.35,2.56-8.07s4.31-2.65,7.82-2.65a21.13,21.13,0,0,1,6.79,1.14l-1.73,5a14.68,14.68,0,0,0-4.62-.78,3.67,3.67,0,0,0-3.23,1.39,6.74,6.74,0,0,0-1,4.12v2h7.52Z" style="fill:#fff"/><path d="M588.25,35.5c0,5-1.28,9-3.87,11.78s-6.18,4.23-10.77,4.23A14.65,14.65,0,0,1,566,49.56,13,13,0,0,1,560.9,44a18.88,18.88,0,0,1-1.78-8.46q0-7.47,3.84-11.68c2.56-2.81,6.17-4.2,10.82-4.2,4.45,0,8,1.44,10.57,4.28S588.25,30.64,588.25,35.5Zm-22.4,0c0,7.1,2.61,10.66,7.87,10.66s7.8-3.56,7.8-10.66S578.9,25,573.67,25c-2.76,0-4.73.92-6,2.73S565.85,32.11,565.85,35.5Z" style="fill:#fff"/><path d="M610.79,19.62a15.7,15.7,0,0,1,3.26.27l-.64,6.1a12.51,12.51,0,0,0-2.9-.34,8.5,8.5,0,0,0-6.37,2.56,9.3,9.3,0,0,0-2.42,6.65V51h-6.54V20.17h5.12l.86,5.43h.34a12.53,12.53,0,0,1,4-4.37A9.51,9.51,0,0,1,610.79,19.62Z" style="fill:#fff"/><path d="M236.46,92.33a11,11,0,0,0-9,4.06c-2.19,2.7-3.28,6.46-3.28,11.21,0,5,1.06,8.77,3.15,11.33s5.17,3.84,9.15,3.84a24.89,24.89,0,0,0,5-.5c1.61-.36,3.28-.81,5-1.34v5.71a31,31,0,0,1-10.86,1.81q-8.93,0-13.71-5.4c-3.21-3.62-4.79-8.79-4.79-15.5a25.27,25.27,0,0,1,2.31-11.1,16.7,16.7,0,0,1,6.73-7.29,20.18,20.18,0,0,1,10.33-2.54A25.63,25.63,0,0,1,248,89.24l-2.4,5.54a36.15,36.15,0,0,0-4.37-1.73A16,16,0,0,0,236.46,92.33Z" style="fill:#fff"/><path d="M281.32,112.45c0,5-1.28,9-3.87,11.77s-6.18,4.23-10.77,4.23a14.6,14.6,0,0,1-7.62-1.95,13.11,13.11,0,0,1-5.1-5.59,19,19,0,0,1-1.78-8.46q0-7.47,3.84-11.69c2.56-2.81,6.18-4.2,10.83-4.2,4.45,0,8,1.44,10.57,4.28S281.32,107.58,281.32,112.45Zm-22.4,0c0,7.09,2.61,10.65,7.87,10.65s7.79-3.56,7.79-10.65S272,101.9,266.74,101.9c-2.76,0-4.73.92-6,2.73S258.92,109.05,258.92,112.45Z" style="fill:#fff"/><path d="M314.18,127.89h-6.57v-19a8.63,8.63,0,0,0-1.33-5.28,5,5,0,0,0-4.18-1.73,6.45,6.45,0,0,0-5.56,2.45c-1.17,1.67-1.75,4.4-1.75,8.21v15.33h-6.54V97.11h5.12l.92,4h.33a8.6,8.6,0,0,1,3.7-3.4,12,12,0,0,1,5.37-1.19c4.73,0,7.88,1.61,9.41,4.84h.44a9.5,9.5,0,0,1,3.84-3.56,12,12,0,0,1,5.68-1.28c3.67,0,6.34.92,8,2.78s2.5,4.67,2.5,8.49v20.06h-6.53v-19a8.42,8.42,0,0,0-1.37-5.28,4.94,4.94,0,0,0-4.17-1.73c-2.53,0-4.4.78-5.57,2.39s-1.78,4-1.78,7.29Z" style="fill:#fff"/><path d="M357.79,128.45a10.76,10.76,0,0,1-9.08-4.2h-.38c.25,2.58.38,4.17.38,4.73v12.6h-6.53V97.11h5.28c.14.59.45,2,.92,4.12h.33q3.06-4.67,9.19-4.67a10.75,10.75,0,0,1,9,4.17c2.11,2.78,3.2,6.68,3.2,11.72s-1.09,9-3.26,11.77A10.85,10.85,0,0,1,357.79,128.45ZM356.2,101.9c-2.59,0-4.51.75-5.68,2.28s-1.81,3.95-1.81,7.29v1c0,3.75.59,6.45,1.79,8.15s3.11,2.5,5.81,2.5a5.87,5.87,0,0,0,5.23-2.78c1.23-1.86,1.84-4.51,1.84-7.93s-.61-6.07-1.84-7.82A6,6,0,0,0,356.2,101.9Z" style="fill:#fff"/><path d="M398.8,127.89l-.91-4h-.34a9.37,9.37,0,0,1-3.87,3.36,13.17,13.17,0,0,1-5.76,1.23c-3.73,0-6.51-.92-8.34-2.79s-2.76-4.67-2.76-8.43V97.11h6.6v19c0,2.37.47,4.12,1.44,5.29a5.49,5.49,0,0,0,4.54,1.78c2.75,0,4.76-.83,6.06-2.45s1.92-4.4,1.92-8.26V97.11H404v30.78Z" style="fill:#fff"/><path d="M424.18,123.16a16,16,0,0,0,4.79-.75v4.92a12.68,12.68,0,0,1-2.78.78,18.31,18.31,0,0,1-3.57.34q-9.3,0-9.29-9.8V102.07h-4.2v-2.9l4.51-2.39,2.22-6.51h4v6.84h8.76v5H419.9v16.47a4.72,4.72,0,0,0,1.17,3.51A4.48,4.48,0,0,0,424.18,123.16Z" style="fill:#fff"/><path d="M453.79,127.89l-1.31-4.28h-.22a13,13,0,0,1-4.48,3.84,14.44,14.44,0,0,1-5.79,1c-3,0-5.4-.81-7.07-2.45a9.11,9.11,0,0,1-2.56-6.93,8.11,8.11,0,0,1,3.54-7.18c2.36-1.61,6-2.5,10.77-2.64l5.31-.17v-1.64a6.43,6.43,0,0,0-1.36-4.43,5.86,5.86,0,0,0-4.29-1.44,14.5,14.5,0,0,0-4.53.69,33.9,33.9,0,0,0-4.18,1.64l-2.11-4.67a24.08,24.08,0,0,1,5.48-2,25.49,25.49,0,0,1,5.62-.67c3.92,0,6.87.86,8.85,2.56s3,4.39,3,8v20.73Zm-9.74-4.45a8.09,8.09,0,0,0,5.73-2,7.19,7.19,0,0,0,2.15-5.56V113.2l-4,.16c-3.08.12-5.31.62-6.7,1.56a4.61,4.61,0,0,0-2.12,4.2,4.24,4.24,0,0,0,1.23,3.21A5.36,5.36,0,0,0,444.05,123.44Z" style="fill:#fff"/><path d="M478.5,123.16a16,16,0,0,0,4.79-.75v4.92a12.62,12.62,0,0,1-2.79.78,18.21,18.21,0,0,1-3.56.34q-9.3,0-9.29-9.8V102.07h-4.2v-2.9l4.5-2.39,2.23-6.51h4v6.84H483v5h-8.77v16.47a4.72,4.72,0,0,0,1.17,3.51A4.52,4.52,0,0,0,478.5,123.16Z" style="fill:#fff"/><path d="M488.46,89a3.68,3.68,0,1,1,6.4,2.64,3.81,3.81,0,0,1-2.7,1,3.86,3.86,0,0,1-2.75-1A3.74,3.74,0,0,1,488.46,89Zm6.93,38.93h-6.54V97.11h6.54Z" style="fill:#fff"/><path d="M531.48,112.45c0,5-1.28,9-3.87,11.77s-6.17,4.23-10.76,4.23a14.66,14.66,0,0,1-7.63-1.95,13.09,13.09,0,0,1-5.09-5.59,18.91,18.91,0,0,1-1.78-8.46q0-7.47,3.84-11.69c2.56-2.81,6.18-4.2,10.82-4.2,4.46,0,8,1.44,10.58,4.28S531.48,107.58,531.48,112.45Zm-22.4,0q0,10.64,7.88,10.65t7.79-10.65q0-10.56-7.85-10.55c-2.75,0-4.73.92-6,2.73S509.08,109.05,509.08,112.45Z" style="fill:#fff"/><path d="M565.49,127.89h-6.57V109a8.34,8.34,0,0,0-1.42-5.32,5.57,5.57,0,0,0-4.56-1.75c-2.76,0-4.79.81-6.07,2.45s-1.92,4.37-1.92,8.21v15.33h-6.54V97.11h5.12l.92,4h.33a9.12,9.12,0,0,1,4-3.4,13.12,13.12,0,0,1,5.67-1.19q11.07,0,11.08,11.27Z" style="fill:#fff"/><path d="M593.29,127.89,592,123.61h-.22a13,13,0,0,1-4.48,3.84,14.5,14.5,0,0,1-5.79,1c-3,0-5.4-.81-7.07-2.45s-2.56-4-2.56-6.93a8.12,8.12,0,0,1,3.53-7.18c2.37-1.61,6-2.5,10.77-2.64l5.32-.17v-1.64a6.43,6.43,0,0,0-1.37-4.43,5.82,5.82,0,0,0-4.28-1.44,14.56,14.56,0,0,0-4.54.69,33.76,33.76,0,0,0-4.17,1.64L575,99.23a24.16,24.16,0,0,1,5.49-2,25.35,25.35,0,0,1,5.62-.67c3.92,0,6.87.86,8.85,2.56s3,4.39,3,8v20.73Zm-9.74-4.45a8.12,8.12,0,0,0,5.73-2,7.19,7.19,0,0,0,2.14-5.56V113.2l-3.95.16c-3.09.12-5.31.62-6.71,1.56a4.62,4.62,0,0,0-2.11,4.2,4.27,4.27,0,0,0,1.22,3.21A5.41,5.41,0,0,0,583.55,123.44Z" style="fill:#fff"/><path d="M613,127.89H606.5V84.59H613Z" style="fill:#fff"/><path d="M636.75,127.89V87.21h6.65v35h17.23v5.7Z" style="fill:#fff"/><path d="M666,89a3.67,3.67,0,1,1,6.4,2.64,3.81,3.81,0,0,1-2.7,1,3.86,3.86,0,0,1-2.76-1A3.73,3.73,0,0,1,666,89Zm6.93,38.93h-6.54V97.11h6.54Z" style="fill:#fff"/><path d="M708.77,127.89H702.2V109a8.34,8.34,0,0,0-1.42-5.32,5.56,5.56,0,0,0-4.56-1.75c-2.76,0-4.79.81-6.07,2.45s-1.92,4.37-1.92,8.21v15.33h-6.54V97.11h5.12l.92,4h.34a9,9,0,0,1,3.95-3.4,13.12,13.12,0,0,1,5.67-1.19q11.07,0,11.08,11.27Z" style="fill:#fff"/><path d="M743.3,97.11v3.59l-5.26,1a8.22,8.22,0,0,1,1.2,2.39,9.63,9.63,0,0,1,.47,3,9.15,9.15,0,0,1-3.28,7.48c-2.2,1.81-5.2,2.73-9,2.73a16.79,16.79,0,0,1-2.68-.22,3.64,3.64,0,0,0-2.11,3.06,1.71,1.71,0,0,0,1,1.58,8.31,8.31,0,0,0,3.62.53h5.37c3.39,0,6,.73,7.73,2.17a7.66,7.66,0,0,1,2.65,6.26,9.13,9.13,0,0,1-4.32,8.07c-2.86,1.9-7,2.84-12.46,2.84-4.2,0-7.4-.75-9.6-2.22a7.2,7.2,0,0,1-3.31-6.35,6.7,6.7,0,0,1,1.81-4.79,9.49,9.49,0,0,1,5-2.67,5.15,5.15,0,0,1-2.17-1.78,4.66,4.66,0,0,1-.83-2.61,4.59,4.59,0,0,1,1-2.93,11.08,11.08,0,0,1,2.9-2.36,8.62,8.62,0,0,1-3.87-3.34,9.86,9.86,0,0,1-1.5-5.45,9.73,9.73,0,0,1,3.17-7.77q3.13-2.75,9-2.75a24.45,24.45,0,0,1,2.75.16,17.86,17.86,0,0,1,2.14.39Zm-24.18,35.57a3.56,3.56,0,0,0,1.92,3.25,10.44,10.44,0,0,0,5.34,1.14c3.57,0,6.21-.5,8-1.53a4.58,4.58,0,0,0,2.62-4.06,3.08,3.08,0,0,0-1.45-2.87c-1-.55-2.73-.83-5.31-.83h-5a7,7,0,0,0-4.48,1.33A4.35,4.35,0,0,0,719.12,132.68Zm2.81-25.6a6.16,6.16,0,0,0,1.5,4.45,5.61,5.61,0,0,0,4.26,1.56c3.79,0,5.68-2,5.68-6.07A6.79,6.79,0,0,0,732,102.4a5.21,5.21,0,0,0-4.26-1.64,5.55,5.55,0,0,0-4.31,1.61A7,7,0,0,0,721.93,107.08Z" style="fill:#fff"/><path d="M770.13,127.89l-.92-4h-.33a9.37,9.37,0,0,1-3.87,3.36,13.23,13.23,0,0,1-5.76,1.23c-3.73,0-6.51-.92-8.35-2.79s-2.76-4.67-2.76-8.43V97.11h6.6v19c0,2.37.47,4.12,1.45,5.29a5.46,5.46,0,0,0,4.53,1.78c2.76,0,4.76-.83,6.07-2.45s1.92-4.4,1.92-8.26V97.11h6.57v30.78Z" style="fill:#fff"/><path d="M783.65,89a3.68,3.68,0,1,1,6.4,2.64,3.81,3.81,0,0,1-2.7,1,3.86,3.86,0,0,1-2.75-1A3.74,3.74,0,0,1,783.65,89Zm6.93,38.93H784V97.11h6.54Z" style="fill:#fff"/><path d="M820,119.12a8.05,8.05,0,0,1-3.28,6.93c-2.2,1.59-5.32,2.4-9.41,2.4a22.13,22.13,0,0,1-9.88-1.87v-5.65a24.29,24.29,0,0,0,10.1,2.51c4,0,6-1.23,6-3.65a2.93,2.93,0,0,0-.66-2,7.9,7.9,0,0,0-2.2-1.61,36.14,36.14,0,0,0-4.26-1.89c-3.53-1.36-6-2.76-7.18-4.12a7.46,7.46,0,0,1-1.89-5.34,7.06,7.06,0,0,1,3.17-6.15c2.14-1.45,5-2.17,8.68-2.17a24.34,24.34,0,0,1,10.27,2.2l-2.11,4.92a23.18,23.18,0,0,0-8.38-2.06q-5.17,0-5.18,2.95a3,3,0,0,0,1.34,2.45,30.23,30.23,0,0,0,5.9,2.76,27.2,27.2,0,0,1,5.54,2.69,8.07,8.07,0,0,1,2.56,2.84A8.21,8.21,0,0,1,820,119.12Z" style="fill:#fff"/><path d="M838,123.16a15.89,15.89,0,0,0,4.78-.75v4.92a12.52,12.52,0,0,1-2.78.78,18.28,18.28,0,0,1-3.56.34q-9.32,0-9.3-9.8V102.07h-4.2v-2.9l4.51-2.39,2.23-6.51h4v6.84h8.77v5h-8.77v16.47a4.72,4.72,0,0,0,1.17,3.51A4.52,4.52,0,0,0,838,123.16Z" style="fill:#fff"/><path d="M848,89a3.87,3.87,0,0,1,6.4-2.7,4.23,4.23,0,0,1,0,5.34,4.38,4.38,0,0,1-5.45,0A3.69,3.69,0,0,1,848,89Zm6.93,38.93h-6.54V97.11h6.54Z" style="fill:#fff"/><path d="M876.09,128.45c-4.64,0-8.18-1.37-10.63-4.07s-3.61-6.62-3.61-11.71,1.28-9.16,3.78-11.94,6.21-4.17,11-4.17a20.62,20.62,0,0,1,8.77,1.81l-2,5.26a19.42,19.42,0,0,0-6.84-1.62q-8,0-8,10.6,0,5.17,2,7.77A6.81,6.81,0,0,0,876.4,123a16.61,16.61,0,0,0,8.26-2.17v5.71a13,13,0,0,1-3.73,1.47A21.77,21.77,0,0,1,876.09,128.45Z" style="fill:#fff"/><path d="M912,119.12a8.08,8.08,0,0,1-3.28,6.93c-2.2,1.59-5.32,2.4-9.41,2.4a22.13,22.13,0,0,1-9.88-1.87v-5.65a24.29,24.29,0,0,0,10.1,2.51c4,0,6-1.23,6-3.65a2.89,2.89,0,0,0-.67-2,7.83,7.83,0,0,0-2.19-1.61,36.14,36.14,0,0,0-4.26-1.89c-3.54-1.36-6-2.76-7.18-4.12a7.46,7.46,0,0,1-1.89-5.34,7,7,0,0,1,3.17-6.15c2.14-1.45,5-2.17,8.68-2.17a24.34,24.34,0,0,1,10.27,2.2l-2.12,4.92a23.09,23.09,0,0,0-8.37-2.06q-5.18,0-5.18,2.95a3,3,0,0,0,1.34,2.45,29.93,29.93,0,0,0,5.9,2.76,27.06,27.06,0,0,1,5.53,2.69,7.88,7.88,0,0,1,2.56,2.84A8.09,8.09,0,0,1,912,119.12Z" style="fill:#fff"/></svg>