<svg width="171" height="32" viewBox="0 0 171 32" fill="none" xmlns="http://www.w3.org/2000/svg">
<path d="M18.5703 0H19.2435L19.7979 0.878864L20.4316 1.1585L23.5602 6.39172L24.4314 6.71127L26.2531 9.82726L25.3423 11.3852L18.5703 0Z" fill="#4766A8"/>
<path d="M20.9062 0H21.8963L22.1339 0.0798966L25.2625 5.35306L26.1338 5.67265L27.4406 7.82986L26.5298 9.4278L20.9062 0Z" fill="#4766A8"/>
<path d="M16.2344 0H16.9076L18.0561 1.91752L18.7293 2.19715L21.8183 7.43034L22.6895 7.78987L25.1052 11.8247L24.1944 13.3827L16.2344 0Z" fill="#4766A8"/>
<path d="M23.2461 0H24.4341L27.0083 4.31441L27.8796 4.63399L28.5924 5.87239L27.6815 7.43034L23.2461 0Z" fill="#4766A8"/>
<path d="M13.9023 0H14.5756L16.3577 2.95617L16.9913 3.23581L20.1199 8.46902L20.9911 8.82856L23.9613 13.8221L23.0505 15.3801L13.9023 0Z" fill="#4766A8"/>
<path d="M29.1015 0L30.4481 2.2371L30.646 2.317L29.9728 3.43554L27.9531 0H29.1015Z" fill="#4766A8"/>
<path d="M25.625 0H26.7735L28.714 3.27575L29.5852 3.59534L29.7436 3.87498L28.8328 5.43296L25.625 0Z" fill="#4766A8"/>
<path d="M2.21875 0H2.89198L7.72346 8.18939L8.39672 8.4291L11.4856 13.6623L12.3569 14.0218L18.1784 23.7692L17.2676 25.3272L2.21875 0Z" fill="#4766A8"/>
<path d="M9.58374 16.3388L0 0H0.554431L6.01953 9.22801L6.65319 9.46772L9.78177 14.7009L10.653 15.0605L16.9893 25.7666L16.0785 27.3246L9.58374 16.3388Z" fill="#4766A8"/>
<path d="M4.55859 0H5.23183L9.46927 7.11079L10.1029 7.39042L13.2315 12.6236L14.1027 12.9832L19.3302 21.7718L18.4194 23.3298L4.55859 0Z" fill="#4766A8"/>
<path d="M6.89844 0H7.5717L11.1755 6.07213L11.8487 6.35174L14.9377 11.585L15.809 11.9445L20.482 19.7743L19.5712 21.3324L6.89844 0Z" fill="#4766A8"/>
<path d="M9.22656 0H9.89982L12.9096 5.03348L13.5432 5.31311L16.6718 10.5463L17.543 10.9059L21.622 17.7769L20.7112 19.3749L9.22656 0Z" fill="#4766A8"/>
<path d="M11.5625 0H12.2357L14.6119 3.99482L15.2851 4.27446L18.3741 9.50771L19.2453 9.86724L22.8095 15.8195L21.8986 17.3775L11.5625 0Z" fill="#4766A8"/>
<path d="M31.0486 1.63788L30.0586 0H31.9991L31.0486 1.63788Z" fill="#4766A8"/>
<path d="M56.1937 3.11523H52.7087C52.5899 3.11523 52.3919 3.23508 52.3523 3.35493L47.0456 16.4979L41.6993 3.35493C41.6597 3.23508 41.4617 3.11523 41.3429 3.11523H37.7787C37.4619 3.11523 37.3034 3.35493 37.4223 3.63456L44.1546 20.2131C44.1942 20.3329 44.3922 20.4527 44.5111 20.4527H49.4613C49.5802 20.4527 49.7781 20.3329 49.8177 20.2131L56.5501 3.63456C56.669 3.35493 56.5105 3.11523 56.1937 3.11523Z" fill="#121212"/>
<path d="M75.159 3.11523H58.7241C58.5262 3.11523 58.3281 3.27503 58.3281 3.51472V20.0932C58.3281 20.293 58.4866 20.4927 58.7241 20.4927H75.159C75.3571 20.4927 75.5551 20.3329 75.5551 20.0932V17.0971C75.5551 16.8974 75.3967 16.6976 75.159 16.6976H62.3676V13.6216H75.159C75.3571 13.6216 75.5551 13.4618 75.5551 13.2221V10.226C75.5551 10.0263 75.3967 9.82651 75.159 9.82651H62.3676V6.79049H75.159C75.3571 6.79049 75.5551 6.63068 75.5551 6.39097V3.47477C75.5155 3.27503 75.3571 3.11523 75.159 3.11523Z" fill="#121212"/>
<path d="M90.7653 13.4998C93.2204 13.0203 94.8442 11.0629 94.8442 8.42629C94.8442 5.23045 92.7061 3.07324 89.5375 3.07324H77.6969C77.4988 3.07324 77.3008 3.23304 77.3008 3.47273V20.0512C77.3008 20.2509 77.4592 20.4507 77.6969 20.4507H80.9836C81.1817 20.4507 81.3797 20.2909 81.3797 20.0512V13.6595H86.33L90.4089 20.2909C90.4485 20.3308 90.6465 20.4507 90.7257 20.4507H94.4482C94.8046 20.4507 94.9631 20.1711 94.765 19.8515L90.7653 13.4998ZM89.4979 9.90441H81.3005V6.86833H89.4979C90.29 6.86833 90.7653 7.38767 90.7653 8.14666V8.666C90.7653 9.38507 90.29 9.90441 89.4979 9.90441Z" fill="#121212"/>
<path d="M113.425 3.11499H96.9508C96.7527 3.11499 96.5547 3.27478 96.5547 3.51448V6.51061C96.5547 6.71034 96.7131 6.91007 96.9508 6.91007H103.168V20.1329C103.168 20.3327 103.326 20.5324 103.564 20.5324H106.891C107.089 20.5324 107.287 20.3726 107.287 20.1329V6.87015H113.504C113.702 6.87015 113.9 6.71034 113.9 6.47063V3.47452C113.821 3.27478 113.623 3.11499 113.425 3.11499Z" fill="#121212"/>
<path d="M132.355 3.11523H115.92C115.721 3.11523 115.523 3.27503 115.523 3.51472V20.0932C115.523 20.293 115.682 20.4927 115.92 20.4927H132.355C132.553 20.4927 132.751 20.3329 132.751 20.0932V17.0971C132.751 16.8974 132.592 16.6976 132.355 16.6976H119.602V13.6216H132.394C132.592 13.6216 132.79 13.4618 132.79 13.2221V10.226C132.79 10.0263 132.632 9.82651 132.394 9.82651H119.602V6.79049H132.394C132.592 6.79049 132.79 6.63068 132.79 6.39097V3.47477C132.751 3.27503 132.553 3.11523 132.355 3.11523Z" fill="#121212"/>
<path d="M147.996 13.4998C150.451 13.0203 152.075 11.0629 152.075 8.42629C152.075 5.23045 149.937 3.07324 146.769 3.07324H134.927C134.729 3.07324 134.531 3.23304 134.531 3.47273V20.0512C134.531 20.2509 134.69 20.4507 134.927 20.4507H138.215C138.413 20.4507 138.61 20.2909 138.61 20.0512V13.6595H143.64L147.719 20.2909C147.759 20.3308 147.957 20.4507 148.036 20.4507H151.758C152.115 20.4507 152.273 20.1711 152.075 19.8515L147.996 13.4998ZM146.729 9.90441H138.531V6.86833H146.729C147.521 6.86833 147.996 7.38767 147.996 8.14666V8.666C147.996 9.38507 147.482 9.90441 146.729 9.90441Z" fill="#121212"/>
<path d="M170.605 6.86833C170.803 6.86833 171.001 6.70852 171.001 6.46887V3.47273C171.001 3.27298 170.842 3.07324 170.605 3.07324H154.17C153.971 3.07324 153.773 3.23304 153.773 3.47273V20.0512C153.773 20.2509 153.932 20.4507 154.17 20.4507H170.605C170.803 20.4507 171.001 20.2909 171.001 20.0512V17.0551C171.001 16.8554 170.842 16.6557 170.605 16.6557H157.813V13.5796H170.605C170.803 13.5796 171.001 13.4199 171.001 13.1801V10.184C171.001 9.98431 170.842 9.78452 170.605 9.78452H157.813V6.7485H170.605V6.86833Z" fill="#121212"/>
<path d="M103.167 26.4058C103.048 26.286 102.969 26.1262 102.969 25.9664C102.969 25.8066 103.048 25.6468 103.167 25.527C103.285 25.4071 103.443 25.3672 103.641 25.3672C103.839 25.3672 103.998 25.4071 104.117 25.527C104.236 25.6468 104.315 25.7666 104.315 25.9664C104.315 26.1662 104.236 26.286 104.117 26.4058C103.998 26.5257 103.839 26.6056 103.641 26.6056C103.443 26.6056 103.285 26.5257 103.167 26.4058ZM103.088 27.1249H104.196V30.92H103.088V27.1249Z" fill="#121212"/>
<path d="M113.258 27.4825C113.535 27.7621 113.693 28.2015 113.693 28.7608V30.958H112.585V28.9606C112.585 28.641 112.506 28.4412 112.387 28.2814C112.268 28.1216 112.07 28.0417 111.832 28.0417C111.555 28.0417 111.318 28.1216 111.159 28.2814C111.001 28.4412 110.921 28.7209 110.921 29.0405V30.918H109.812V27.1229H110.842V27.5624C111.001 27.4026 111.159 27.2827 111.397 27.2028C111.595 27.1229 111.832 27.083 112.11 27.083C112.585 27.083 112.981 27.2028 113.258 27.4825Z" fill="#121212"/>
<path d="M119.678 30.8781C119.361 30.7982 119.123 30.7183 118.965 30.5984L119.321 29.7995C119.48 29.9193 119.678 29.9992 119.915 30.0791C120.153 30.159 120.391 30.1989 120.628 30.1989C121.104 30.1989 121.341 30.0791 121.341 29.8394C121.341 29.7196 121.262 29.6397 121.143 29.5997C121.024 29.5598 120.826 29.5198 120.549 29.4799C120.232 29.4399 119.995 29.36 119.797 29.3201C119.599 29.2402 119.44 29.1603 119.282 29.0005C119.123 28.8407 119.044 28.641 119.044 28.3214C119.044 28.0817 119.123 27.882 119.242 27.6823C119.361 27.4825 119.599 27.3626 119.836 27.2428C120.113 27.1229 120.43 27.083 120.787 27.083C121.064 27.083 121.302 27.1229 121.579 27.1629C121.856 27.2028 122.054 27.3227 122.252 27.4026L121.896 28.2015C121.579 28.0018 121.183 27.9219 120.826 27.9219C120.589 27.9219 120.43 27.9619 120.311 28.0018C120.193 28.0817 120.153 28.1616 120.153 28.2415C120.153 28.3613 120.232 28.4412 120.351 28.4812C120.47 28.5211 120.668 28.5611 120.945 28.601C121.262 28.641 121.5 28.7209 121.698 28.7608C121.896 28.8008 122.054 28.9206 122.213 29.0804C122.371 29.2402 122.411 29.4399 122.411 29.7196C122.411 29.9593 122.331 30.159 122.213 30.3587C122.054 30.5585 121.856 30.6784 121.579 30.7982C121.302 30.918 120.985 30.958 120.628 30.958C120.272 30.9979 119.995 30.958 119.678 30.8781Z" fill="#121212"/>
<path d="M130.132 30.7603C130.014 30.8402 129.895 30.9201 129.736 30.96C129.578 31 129.419 31 129.261 31C128.825 31 128.469 30.8801 128.231 30.6405C127.994 30.4008 127.875 30.0812 127.875 29.6018V28.0438H127.281V27.2049H127.875V26.2861H128.984V27.2049H129.934V28.0438H128.984V29.6018C128.984 29.7616 129.023 29.8814 129.103 29.9613C129.182 30.0412 129.301 30.0812 129.459 30.0812C129.617 30.0812 129.776 30.0412 129.895 29.9214L130.132 30.7603Z" fill="#121212"/>
<path d="M135.444 26.4058C135.325 26.286 135.246 26.1262 135.246 25.9664C135.246 25.8066 135.325 25.6468 135.444 25.527C135.563 25.4071 135.721 25.3672 135.919 25.3672C136.117 25.3672 136.276 25.4071 136.395 25.527C136.514 25.6468 136.593 25.7666 136.593 25.9664C136.593 26.1662 136.514 26.286 136.395 26.4058C136.276 26.5257 136.117 26.6056 135.919 26.6056C135.721 26.6056 135.563 26.5257 135.444 26.4058ZM135.365 27.1249H136.474V30.92H135.365V27.1249Z" fill="#121212"/>
<path d="M144.554 30.7603C144.435 30.8402 144.317 30.9201 144.158 30.96C144 31 143.841 31 143.683 31C143.248 31 142.891 30.8801 142.654 30.6405C142.416 30.4008 142.297 30.0812 142.297 29.6018V28.0438H141.703V27.2049H142.297V26.2861H143.406V27.2049H144.356V28.0438H143.367V29.6018C143.367 29.7616 143.406 29.8814 143.485 29.9613C143.564 30.0412 143.683 30.0812 143.841 30.0812C144 30.0812 144.158 30.0412 144.277 29.9214L144.554 30.7603Z" fill="#121212"/>
<path d="M153.61 27.1232V30.9182H152.581V30.4789C152.423 30.6386 152.264 30.7585 152.066 30.8384C151.868 30.9182 151.631 30.9582 151.432 30.9582C150.918 30.9582 150.561 30.7984 150.244 30.5188C149.967 30.2392 149.809 29.7997 149.809 29.2405V27.0833H150.918V29.0807C150.918 29.6799 151.155 29.9994 151.67 29.9994C151.947 29.9994 152.145 29.9195 152.304 29.7598C152.462 29.6 152.541 29.3204 152.541 29.0007V27.1232H153.61Z" fill="#121212"/>
<path d="M161.692 30.7603C161.573 30.8402 161.454 30.9201 161.296 30.96C161.138 31 160.979 31 160.821 31C160.385 31 160.029 30.8801 159.791 30.6405C159.553 30.4008 159.434 30.0812 159.434 29.6018V28.0438H158.801V27.2049H159.395V26.2861H160.504V27.2049H161.454V28.0438H160.504V29.6018C160.504 29.7616 160.543 29.8814 160.623 29.9613C160.702 30.0412 160.821 30.0812 160.979 30.0812C161.138 30.0812 161.296 30.0412 161.415 29.9214L161.692 30.7603Z" fill="#121212"/>
<path d="M167.553 30.7623C167.236 30.6025 166.999 30.3629 166.801 30.0832C166.603 29.8036 166.523 29.4441 166.523 29.0846C166.523 28.725 166.603 28.3655 166.801 28.0858C166.999 27.8062 167.236 27.5665 167.553 27.4067C167.87 27.2469 168.227 27.167 168.622 27.167C169.018 27.167 169.375 27.2469 169.691 27.4067C170.008 27.5665 170.246 27.8062 170.444 28.0858C170.602 28.3655 170.721 28.725 170.721 29.0846C170.721 29.4441 170.642 29.8036 170.444 30.0832C170.286 30.3629 170.008 30.6025 169.691 30.7623C169.375 30.9221 169.018 31.002 168.622 31.002C168.227 31.002 167.87 30.9221 167.553 30.7623ZM169.295 29.8036C169.493 29.6038 169.573 29.3642 169.573 29.0446C169.573 28.725 169.493 28.4853 169.295 28.2856C169.097 28.0859 168.899 28.0059 168.622 28.0059C168.345 28.0059 168.108 28.0859 167.91 28.2856C167.712 28.4853 167.632 28.725 167.632 29.0446C167.632 29.3642 167.712 29.6038 167.91 29.8036C168.108 30.0033 168.306 30.0832 168.622 30.0832C168.899 30.0832 169.137 30.0033 169.295 29.8036Z" fill="#121212"/>
</svg>
