<svg xmlns="http://www.w3.org/2000/svg" xmlns:xlink="http://www.w3.org/1999/xlink" viewBox="0 0 118 104"><defs><clipPath id="a"><rect y="-560" width="1200" height="519.1" style="fill:none"/></clipPath></defs><title>abralin-logo</title><g style="clip-path:url(#a)"><image width="2400" height="1378" transform="translate(0 -560) scale(0.5)" xlink:href="../../Captura%20de%20Tela%202020-09-11%20a%CC%80s%2001.01.08.png"/></g><path d="M0,67.46,5.85,47.23h4.8l5.82,20.23H11.89l-.84-3.21H5.17l-.8,3.21Zm6.13-7h4l-2-7.82Z" style="fill:#fff"/><path d="M20.51,47.23h7.72c3.76,0,6.41,2.12,6.41,5.36A4.44,4.44,0,0,1,31.78,57v0a4.75,4.75,0,0,1,3.35,4.77c0,3.48-2.65,5.64-6.4,5.64H20.51Zm4.43,3.6v4.53h2.68a2.18,2.18,0,0,0,2.46-2.31c0-1.48-.95-2.22-2.46-2.22Zm0,8.19v4.83h3a2.3,2.3,0,0,0,2.61-2.43A2.36,2.36,0,0,0,27.93,59Z" style="fill:#fff"/><path d="M49.24,67.46l-2.65-7.18H43.94v7.18H39.48V47.23H47c4,0,7,2.55,7,6.4a6.24,6.24,0,0,1-3,5.61l3.17,8.22Zm-5.3-16.32v5.23h2.53c1.81,0,2.92-1,2.92-2.65s-1.11-2.58-2.92-2.58Z" style="fill:#fff"/><path d="M57.68,67.46l5.85-20.23h4.8l5.82,20.23H69.56l-.83-3.21H62.85l-.8,3.21Zm6.12-7h4l-2-7.82Z" style="fill:#fff"/><path d="M82.65,63.45h7.54v4h-12V47.23h4.47Z" style="fill:#fff"/><path d="M98.68,67.46H94.22V47.23h4.46Z" style="fill:#fff"/><path d="M118,67.46h-3.63l-6.5-11.55V67.46h-4.06V47.23h3.81l6.32,11.24V47.23H118Z" style="fill:#fff"/><path d="M6.8,87.79l-.66-1.91H2.63L2,87.79H1L3.8,79.71H5l2.85,8.08ZM4.37,80.73,3,84.92H5.81Z" style="fill:#fff"/><path d="M12.81,87.29a2.61,2.61,0,0,1-1.88.65,2.57,2.57,0,0,1-1.87-.65A1.87,1.87,0,0,1,8.5,86h1a1.11,1.11,0,0,0,.47.9,1.84,1.84,0,0,0,1,.26A1.57,1.57,0,0,0,12,86.81a.84.84,0,0,0,.29-.63c0-.43-.31-.74-.9-.82l-1.3-.17a1.49,1.49,0,0,1-1.41-1.55,1.65,1.65,0,0,1,.47-1.12,2.35,2.35,0,0,1,1.7-.64,2.27,2.27,0,0,1,1.83.73,1.62,1.62,0,0,1,.42,1.1h-1a1.06,1.06,0,0,0-.33-.72,1.39,1.39,0,0,0-.95-.3,1.52,1.52,0,0,0-.67.11.86.86,0,0,0-.58.77c0,.48.29.69.77.76.32,0,.78.09,1.39.19a1.64,1.64,0,0,1,1.47,1.59A1.66,1.66,0,0,1,12.81,87.29Z" style="fill:#fff"/><path d="M18.74,87.29a2.61,2.61,0,0,1-1.88.65A2.57,2.57,0,0,1,15,87.29,1.87,1.87,0,0,1,14.43,86h1a1.11,1.11,0,0,0,.47.9,1.84,1.84,0,0,0,1,.26A1.57,1.57,0,0,0,18,86.81a.84.84,0,0,0,.29-.63c0-.43-.31-.74-.9-.82l-1.3-.17a1.49,1.49,0,0,1-1.41-1.55,1.65,1.65,0,0,1,.47-1.12,2.35,2.35,0,0,1,1.7-.64,2.27,2.27,0,0,1,1.83.73,1.62,1.62,0,0,1,.41,1.1h-1a1.11,1.11,0,0,0-.33-.72,1.39,1.39,0,0,0-1-.3,1.52,1.52,0,0,0-.67.11.86.86,0,0,0-.58.77c0,.48.29.69.77.76.32,0,.78.09,1.39.19a1.64,1.64,0,0,1,1.47,1.59A1.66,1.66,0,0,1,18.74,87.29Z" style="fill:#fff"/><path d="M24.71,87.27a2.59,2.59,0,0,1-3.48,0,3.81,3.81,0,0,1,0-4.72,2.59,2.59,0,0,1,3.48,0,3.81,3.81,0,0,1,0,4.72ZM24,83.12a1.4,1.4,0,0,0-1-.41,1.42,1.42,0,0,0-1,.41,2.57,2.57,0,0,0-.53,1.79,2.6,2.6,0,0,0,.53,1.79,1.42,1.42,0,0,0,1,.41,1.4,1.4,0,0,0,1-.41,2.56,2.56,0,0,0,.54-1.79A2.53,2.53,0,0,0,24,83.12Z" style="fill:#fff"/><path d="M31,87.31a2.29,2.29,0,0,1-1.67.63,2.4,2.4,0,0,1-2.1-1.09,3.36,3.36,0,0,1-.48-1.94,3.4,3.4,0,0,1,.48-2,2.38,2.38,0,0,1,2.09-1.08,2.33,2.33,0,0,1,1.64.61A2.19,2.19,0,0,1,31.65,84h-1a1.47,1.47,0,0,0-.42-.9,1.34,1.34,0,0,0-.93-.35,1.44,1.44,0,0,0-1,.38,2.33,2.33,0,0,0-.58,1.81,2.35,2.35,0,0,0,.58,1.81,1.44,1.44,0,0,0,1,.37,1.34,1.34,0,0,0,1-.38,1.44,1.44,0,0,0,.39-.86h1A2.2,2.2,0,0,1,31,87.31Z" style="fill:#fff"/><path d="M33.19,80.7V79.57h1.13V80.7Zm.07,7.09V82h1v5.76Z" style="fill:#fff"/><path d="M40.55,87.87a.82.82,0,0,1-.83-.88h0a2.11,2.11,0,0,1-1.86,1,1.81,1.81,0,0,1-2-1.78c0-.74.48-1.71,2-1.8l1.76-.1v-.42a1.15,1.15,0,0,0-.3-.88,1.31,1.31,0,0,0-.95-.3,1.38,1.38,0,0,0-1,.35,1,1,0,0,0-.29.69h-.94a1.7,1.7,0,0,1,.5-1.21,2.46,2.46,0,0,1,1.77-.61,2,2,0,0,1,2,1.1,2.11,2.11,0,0,1,.17.89v2.79c0,.31.13.39.32.39a1.24,1.24,0,0,0,.25,0v.72A1.37,1.37,0,0,1,40.55,87.87ZM39.67,85l-1.55.09c-.58,0-1.27.31-1.27,1,0,.51.32,1,1.14,1a1.63,1.63,0,0,0,1.19-.47,1.86,1.86,0,0,0,.49-1.31Z" style="fill:#fff"/><path d="M46.53,87.31a2.29,2.29,0,0,1-1.66.63,2.4,2.4,0,0,1-2.11-1.09,3.36,3.36,0,0,1-.48-1.94,3.4,3.4,0,0,1,.48-2,2.4,2.4,0,0,1,2.1-1.08,2.29,2.29,0,0,1,1.63.61A2.24,2.24,0,0,1,47.18,84h-1a1.46,1.46,0,0,0-.41-.9,1.38,1.38,0,0,0-.93-.35,1.45,1.45,0,0,0-1,.38,2.36,2.36,0,0,0-.58,1.81,2.39,2.39,0,0,0,.58,1.81,1.44,1.44,0,0,0,1,.37,1.32,1.32,0,0,0,1-.38,1.38,1.38,0,0,0,.39-.86h1A2.11,2.11,0,0,1,46.53,87.31Zm-1.78,3.13-1-.45.88-1.5h.85Z" style="fill:#fff"/><path d="M53,87.87a.82.82,0,0,1-.83-.88h0a2.11,2.11,0,0,1-1.86,1,1.81,1.81,0,0,1-2-1.78c0-.74.48-1.71,2-1.8l1.75-.1v-.42a1.14,1.14,0,0,0-.29-.88,1.33,1.33,0,0,0-.95-.3,1.42,1.42,0,0,0-1.05.35.94.94,0,0,0-.28.69h-.95a1.71,1.71,0,0,1,.51-1.21,2.46,2.46,0,0,1,1.77-.61,2,2,0,0,1,2,1.1,2.28,2.28,0,0,1,.17.89v2.79c0,.31.12.39.32.39a1.24,1.24,0,0,0,.25,0v.72A1.39,1.39,0,0,1,53,87.87ZM51.62,81a1.62,1.62,0,0,1-.82-.23,1.39,1.39,0,0,0-.68-.24.89.89,0,0,0-.7.32L49,80.4a1.54,1.54,0,0,1,1.17-.62,1.64,1.64,0,0,1,.78.25,1.45,1.45,0,0,0,.71.25,1,1,0,0,0,.72-.34l.42.48A1.44,1.44,0,0,1,51.62,81Zm.46,4-1.55.09c-.58,0-1.26.31-1.26,1,0,.51.32,1,1.14,1a1.61,1.61,0,0,0,1.18-.47,1.82,1.82,0,0,0,.49-1.31Z" style="fill:#fff"/><path d="M59,87.27a2.61,2.61,0,0,1-3.49,0,3.81,3.81,0,0,1,0-4.72,2.61,2.61,0,0,1,3.49,0,3.81,3.81,0,0,1,0,4.72Zm-.71-4.15a1.51,1.51,0,0,0-2.07,0,2.57,2.57,0,0,0-.54,1.79,2.6,2.6,0,0,0,.54,1.79,1.51,1.51,0,0,0,2.07,0,2.6,2.6,0,0,0,.54-1.79A2.57,2.57,0,0,0,58.24,83.12Z" style="fill:#fff"/><path d="M69.42,87.05a2.8,2.8,0,0,1-2,.74H64.14V79.71h3.22a2.72,2.72,0,0,1,2,.74,1.91,1.91,0,0,1,.52,1.35,1.86,1.86,0,0,1-1.16,1.79A2,2,0,0,1,70,85.53,2.18,2.18,0,0,1,69.42,87.05Zm-2.06-6.44H65.13v2.54h2.26c.84,0,1.43-.37,1.43-1.27A1.3,1.3,0,0,0,67.36,80.61ZM67.42,84H65.13v2.81h2.26c.89,0,1.61-.43,1.61-1.38A1.46,1.46,0,0,0,67.42,84Z" style="fill:#fff"/><path d="M74.23,82.93a1.58,1.58,0,0,0-1.09.45,2.58,2.58,0,0,0-.52,1.85v2.56h-1V82h.85l.08,1A1.79,1.79,0,0,1,74.31,82a2.38,2.38,0,0,1,.46,0V83A3.27,3.27,0,0,0,74.23,82.93Z" style="fill:#fff"/><path d="M80.11,87.87a.82.82,0,0,1-.84-.88h0a2.1,2.1,0,0,1-1.85,1,1.81,1.81,0,0,1-2-1.78c0-.74.48-1.71,2-1.8l1.76-.1v-.42a1.15,1.15,0,0,0-.3-.88,1.3,1.3,0,0,0-.94-.3,1.39,1.39,0,0,0-1,.35,1,1,0,0,0-.29.69H75.7a1.7,1.7,0,0,1,.5-1.21A2.48,2.48,0,0,1,78,81.88,2,2,0,0,1,80,83a2.11,2.11,0,0,1,.17.89v2.79c0,.31.13.39.32.39a1.11,1.11,0,0,0,.25,0v.72A1.33,1.33,0,0,1,80.11,87.87ZM79.22,85l-1.55.09c-.58,0-1.26.31-1.26,1,0,.51.31,1,1.13,1a1.63,1.63,0,0,0,1.19-.47,1.86,1.86,0,0,0,.49-1.31Z" style="fill:#fff"/><path d="M86.09,87.29a2.6,2.6,0,0,1-1.88.65,2.53,2.53,0,0,1-1.86-.65A1.83,1.83,0,0,1,81.79,86h1a1.13,1.13,0,0,0,.46.9,1.85,1.85,0,0,0,1,.26,1.57,1.57,0,0,0,1.06-.32.83.83,0,0,0,.28-.63c0-.43-.3-.74-.9-.82l-1.3-.17A1.5,1.5,0,0,1,82,83.64a1.65,1.65,0,0,1,.48-1.12,2.35,2.35,0,0,1,1.7-.64,2.29,2.29,0,0,1,1.83.73,1.62,1.62,0,0,1,.41,1.1h-1a1.06,1.06,0,0,0-.33-.72,1.38,1.38,0,0,0-.94-.3,1.58,1.58,0,0,0-.68.11.88.88,0,0,0-.58.77c0,.48.3.69.78.76.32,0,.77.09,1.39.19a1.64,1.64,0,0,1,1,2.77Z" style="fill:#fff"/><path d="M88.14,80.7V79.57h1.13V80.7Zm.07,7.09V82h1v5.76Z" style="fill:#fff"/><path d="M92.49,87.86c-.85,0-1.21-.5-1.21-1.42V79.57h1v6.82c0,.39.12.59.52.59h.4v.82A2.49,2.49,0,0,1,92.49,87.86Z" style="fill:#fff"/><path d="M99.21,85.23H95.13a2.08,2.08,0,0,0,.56,1.44,1.39,1.39,0,0,0,1,.41,1.46,1.46,0,0,0,1.08-.37,1.3,1.3,0,0,0,.34-.63h.94a2.11,2.11,0,0,1-.89,1.42,2.6,2.6,0,0,1-1.47.44,2.46,2.46,0,0,1-1.91-.87,3.26,3.26,0,0,1-.72-2.14,3.47,3.47,0,0,1,.45-1.84,2.45,2.45,0,0,1,2.17-1.21,2.32,2.32,0,0,1,1.76.74,3,3,0,0,1,.73,2Zm-1.34-2a1.36,1.36,0,0,0-1.14-.52,1.6,1.6,0,0,0-1.58,1.7h3.08A2,2,0,0,0,97.87,83.22Z" style="fill:#fff"/><path d="M100.77,80.7V79.57h1.13V80.7Zm.07,7.09V82h1v5.76Z" style="fill:#fff"/><path d="M106.52,82.93a1.58,1.58,0,0,0-1.09.45,2.58,2.58,0,0,0-.53,1.85v2.56h-1V82h.85l.08,1A1.79,1.79,0,0,1,106.6,82a2.38,2.38,0,0,1,.46,0V83A3.27,3.27,0,0,0,106.52,82.93Z" style="fill:#fff"/><path d="M112.4,87.87a.82.82,0,0,1-.84-.88h0a2.1,2.1,0,0,1-1.85,1,1.81,1.81,0,0,1-2-1.78c0-.74.48-1.71,2-1.8l1.76-.1v-.42a1.15,1.15,0,0,0-.3-.88,1.3,1.3,0,0,0-.94-.3,1.39,1.39,0,0,0-1,.35,1,1,0,0,0-.29.69H108a1.7,1.7,0,0,1,.5-1.21,2.48,2.48,0,0,1,1.78-.61,2,2,0,0,1,2,1.1,2.11,2.11,0,0,1,.17.89v2.79c0,.31.13.39.32.39a1.11,1.11,0,0,0,.25,0v.72A1.33,1.33,0,0,1,112.4,87.87ZM111.51,85,110,85.1c-.58,0-1.26.31-1.26,1,0,.51.31,1,1.13,1a1.63,1.63,0,0,0,1.19-.47,1.86,1.86,0,0,0,.49-1.31Z" style="fill:#fff"/><path d="M5.73,100.81l-.07-.75a2,2,0,0,1-1.72.9,2.22,2.22,0,0,1-1.63-.62,3.42,3.42,0,0,1-.83-2.4,3.37,3.37,0,0,1,.88-2.46,2.26,2.26,0,0,1,1.58-.58,2,2,0,0,1,1.67.82V92.59h1v8.22ZM5,96.1a1.31,1.31,0,0,0-.93-.38c-1.29,0-1.63,1.15-1.63,2.21s.34,2.21,1.63,2.21A1.34,1.34,0,0,0,5,99.77,3,3,0,0,0,5,96.1Z" style="fill:#fff"/><path d="M13.33,98.25H9.25a2.15,2.15,0,0,0,.56,1.45,1.46,1.46,0,0,0,1.06.41,1.44,1.44,0,0,0,1.07-.38,1.23,1.23,0,0,0,.34-.62h1a2.13,2.13,0,0,1-.89,1.42,2.67,2.67,0,0,1-1.47.43A2.45,2.45,0,0,1,9,100.1,3.26,3.26,0,0,1,8.24,98a3.52,3.52,0,0,1,.44-1.85,2.49,2.49,0,0,1,2.18-1.21,2.33,2.33,0,0,1,1.75.74,3,3,0,0,1,.73,2Zm-1.33-2a1.37,1.37,0,0,0-1.14-.53,1.6,1.6,0,0,0-1.58,1.7h3.07A2,2,0,0,0,12,96.25Z" style="fill:#fff"/><path d="M17.66,100.81V92.74h1v7.13h3.88v.94Z" style="fill:#fff"/><path d="M23.65,93.73V92.59h1.13v1.14Zm.07,7.08V95.05h1v5.76Z" style="fill:#fff"/><path d="M30.52,100.81V97.16c0-.87-.36-1.38-1.27-1.38a1.4,1.4,0,0,0-1.25.89,3.86,3.86,0,0,0-.21,1.47v2.67h-1V95.05h.84l.08.87a2,2,0,0,1,1.74-1,1.86,1.86,0,0,1,2,2.12v3.79Z" style="fill:#fff"/><path d="M37.91,102.83a3.35,3.35,0,0,1-2.32.67,3.05,3.05,0,0,1-2.19-.67,1.39,1.39,0,0,1-.41-1,1.43,1.43,0,0,1,.82-1.28,1,1,0,0,1-.67-1,1.24,1.24,0,0,1,.76-1.11,2.06,2.06,0,0,1-.66-1.5,1.91,1.91,0,0,1,.55-1.4,2.27,2.27,0,0,1,1.71-.65,2.39,2.39,0,0,1,1.32.35A1.21,1.21,0,0,1,38,94.44l.29,0v.79a.75.75,0,0,0-.22,0,.66.66,0,0,0-.7.53A1.82,1.82,0,0,1,37.74,97a2,2,0,0,1-.52,1.38A2.27,2.27,0,0,1,35.5,99a2.63,2.63,0,0,1-1-.15.63.63,0,0,0-.49.51c0,.5.5.56.87.57s1.14,0,1.14,0a2.67,2.67,0,0,1,1.9.6,1.56,1.56,0,0,1,.45,1.13A1.58,1.58,0,0,1,37.91,102.83Zm-2.26-2.07h-1a1,1,0,0,0-.73.91.8.8,0,0,0,.24.6,2.19,2.19,0,0,0,1.54.4,2.39,2.39,0,0,0,1.57-.41.8.8,0,0,0,.24-.59C37.46,100.69,36.38,100.76,35.65,100.76Zm-.16-5.07a1.28,1.28,0,1,0,0,2.55A1.26,1.26,0,0,0,36.8,97,1.21,1.21,0,0,0,35.49,95.69Z" style="fill:#fff"/><path d="M43.18,100.81l-.08-.87a1.85,1.85,0,0,1-1.7,1c-1.31,0-2-.78-2-2.12V95.05h1V98.7c0,.86.32,1.37,1.23,1.37a1.31,1.31,0,0,0,1-.43,2.34,2.34,0,0,0,.48-1.59v-3h1v5.76Z" style="fill:#fff"/><path d="M46.17,94.54,45.83,94l1.94-1.4.51.81Zm.16,6.27V95.05h1v5.76Z" style="fill:#fff"/><path d="M53.4,100.31a3,3,0,0,1-3.74,0A1.83,1.83,0,0,1,49.1,99h1a1.11,1.11,0,0,0,.46.9,1.79,1.79,0,0,0,1,.26,1.52,1.52,0,0,0,1.06-.32.79.79,0,0,0,.28-.62c0-.43-.3-.74-.9-.82l-1.29-.17a1.5,1.5,0,0,1-1.42-1.55,1.66,1.66,0,0,1,.48-1.13,2.35,2.35,0,0,1,1.7-.64,2.27,2.27,0,0,1,1.83.73,1.66,1.66,0,0,1,.41,1.11h-1a1,1,0,0,0-.33-.72,1.32,1.32,0,0,0-.94-.31,1.41,1.41,0,0,0-.67.12.84.84,0,0,0-.58.77c0,.48.29.68.77.75.32.05.77.09,1.39.2a1.62,1.62,0,0,1,1.47,1.59A1.6,1.6,0,0,1,53.4,100.31Z" style="fill:#fff"/><path d="M57.3,100.89a1.41,1.41,0,0,1-1.59-1.56V95.88H54.6v-.83h1.11V93.58l1-.23v1.7h1.71v.83H56.68v3.34c0,.56.24.79.77.79a6.84,6.84,0,0,0,1-.11v.83A4.18,4.18,0,0,1,57.3,100.89Z" style="fill:#fff"/><path d="M59.78,93.73V92.59H60.9v1.14Zm.06,7.08V95.05h1v5.76Z" style="fill:#fff"/><path d="M66.75,100.34a2.31,2.31,0,0,1-1.66.62A2.42,2.42,0,0,1,63,99.88a3.46,3.46,0,0,1-.47-1.95A3.5,3.5,0,0,1,63,96a2.4,2.4,0,0,1,2.1-1.08,2.29,2.29,0,0,1,1.64.62A2.15,2.15,0,0,1,67.4,97h-1a1.41,1.41,0,0,0-.41-.9,1.3,1.3,0,0,0-.93-.35,1.48,1.48,0,0,0-1,.37,2.35,2.35,0,0,0-.58,1.81,2.33,2.33,0,0,0,.58,1.81,1.44,1.44,0,0,0,1,.38,1.35,1.35,0,0,0,1-.39,1.47,1.47,0,0,0,.39-.85h1A2.21,2.21,0,0,1,66.75,100.34Z" style="fill:#fff"/><path d="M73.2,100.89a.81.81,0,0,1-.83-.87h0a2.09,2.09,0,0,1-1.85.94,1.81,1.81,0,0,1-2-1.77c0-.74.47-1.71,2-1.8l1.75-.11v-.42A1.16,1.16,0,0,0,72,96a1.3,1.3,0,0,0-.94-.29A1.43,1.43,0,0,0,70,96a1,1,0,0,0-.29.69h-.94a1.68,1.68,0,0,1,.5-1.2,2.49,2.49,0,0,1,1.78-.62,2,2,0,0,1,2,1.11,2.28,2.28,0,0,1,.17.89v2.79c0,.3.12.38.31.38a1.64,1.64,0,0,0,.26,0v.72A1.39,1.39,0,0,1,73.2,100.89ZM72.31,98l-1.55.1c-.58,0-1.26.3-1.26,1,0,.51.32,1,1.13,1a1.62,1.62,0,0,0,1.19-.46,1.88,1.88,0,0,0,.49-1.31Z" style="fill:#fff"/><path d="M58.28,9.31A9.91,9.91,0,0,0,50.75,6a9.77,9.77,0,0,0-3.85.77,9.59,9.59,0,0,0-1.44.78V.5H38.23V11.74h-15V6.48H16v1A9.55,9.55,0,0,0,10.72,6,9.9,9.9,0,0,0,3.2,9.31,11.93,11.93,0,0,0,.15,17.72,11.71,11.71,0,0,0,3.3,26a10.1,10.1,0,0,0,7.57,3.38,9.66,9.66,0,0,0,3.66-.7A10.37,10.37,0,0,0,16,27.92v1h7.26V23.65h15V28.9h7.23v-1a8.72,8.72,0,0,0,1.47.78,9.52,9.52,0,0,0,3.67.71A10.11,10.11,0,0,0,58.18,26a11.74,11.74,0,0,0,3.16-8.31A11.94,11.94,0,0,0,58.28,9.31Zm-36.13,1V27.79H16.94V26.25s-.09-.09-.11-.07a9.07,9.07,0,0,1-6,2.13,9,9,0,0,1-6.77-3,10.56,10.56,0,0,1-2.86-7.55A10.86,10.86,0,0,1,4,10.05a8.84,8.84,0,0,1,6.72-3,9.64,9.64,0,0,1,6,2.36l.11-.11V7.58h5.29Zm35.23,15a9,9,0,0,1-6.78,3,8.55,8.55,0,0,1-3.25-.62,9.82,9.82,0,0,1-2.75-1.82s-.1,0-.1,0v1.92H39.33V23.67H49.44c3.49,0,5.75-2.53,5.75-6s-2.12-5.93-5.82-5.93h-10V1.59h5V9.81a9.76,9.76,0,0,1,3-2.06,8.57,8.57,0,0,1,3.42-.69,8.81,8.81,0,0,1,6.72,3,10.84,10.84,0,0,1,2.77,7.67A10.56,10.56,0,0,1,57.38,25.27Z" style="fill:#fff"/><path d="M11.74,11.74c-3.23,0-5.45,2.61-5.45,5.92,0,3.58,2.24,6,5.81,6s5.37-2.84,5.37-6A5.73,5.73,0,0,0,11.74,11.74Z" style="fill:#fff"/></svg>